<svg width="126" height="207" viewBox="0 0 126 207" fill="none" xmlns="http://www.w3.org/2000/svg">
<g clip-path="url(#clip0_67_115)">
<path d="M89.1302 206.7L87.8402 207.03C87.1891 207.176 86.5267 207.267 85.8602 207.3C84.5369 207.39 83.2093 207.206 81.9602 206.76C80.9449 206.388 80.0803 205.692 79.5002 204.78C78.9033 203.743 78.6218 202.555 78.6902 201.36V191.49H75.9902V186.75H78.6902V181.89H85.1102V186.75H88.7702V191.49H85.1102V200.49C85.1055 200.822 85.1774 201.15 85.3202 201.45C85.4363 201.677 85.6269 201.857 85.8602 201.96C86.1581 202.01 86.4623 202.01 86.7602 201.96H87.5403L88.1702 201.81L89.1302 206.7Z" fill="#0D0A03"/>
<path d="M48.8102 188.25C47.9476 187.648 46.9814 187.211 45.9601 186.96C44.8003 186.625 43.5973 186.463 42.3901 186.48C40.7998 186.449 39.2192 186.735 37.7402 187.32C36.5527 187.81 35.5172 188.607 34.7402 189.63C33.989 190.581 33.5211 191.725 33.3901 192.93L39.3901 193.14C39.4392 192.834 39.5495 192.54 39.7144 192.277C39.8794 192.014 40.0956 191.787 40.3502 191.61C40.9677 191.217 41.6887 191.019 42.4202 191.04C43.0964 191.011 43.7625 191.212 44.3102 191.61C44.5452 191.793 44.7313 192.031 44.8517 192.303C44.9721 192.575 45.0231 192.873 45.0001 193.17C45.0139 193.358 44.9766 193.547 44.8921 193.716C44.8076 193.885 44.6791 194.028 44.5201 194.13C44.0512 194.405 43.5301 194.578 42.9902 194.64C42.2902 194.76 41.3602 194.88 40.2002 195C39.1861 195.054 38.1805 195.215 37.2002 195.48C36.3466 195.721 35.5365 196.096 34.8001 196.59C34.0996 197.071 33.5321 197.721 33.1502 198.48C32.7292 199.37 32.5237 200.346 32.5501 201.33C32.5087 202.501 32.8112 203.659 33.4202 204.66C34.0044 205.533 34.827 206.22 35.7902 206.64C36.8762 207.078 38.0394 207.292 39.2101 207.27C40.0712 207.277 40.9293 207.166 41.7602 206.94C42.4785 206.72 43.1428 206.352 43.7101 205.86C44.2809 205.377 44.75 204.786 45.0901 204.12H45.2701V207H51.2701V193.23C51.2816 192.255 51.0554 191.292 50.6111 190.425C50.1668 189.557 49.5178 188.81 48.7202 188.25H48.8102ZM44.9702 199.8C44.9837 200.419 44.8055 201.026 44.4601 201.54C44.1217 202.043 43.6558 202.447 43.1101 202.71C42.5312 202.993 41.8944 203.137 41.2501 203.13C40.5976 203.154 39.9551 202.964 39.4202 202.59C39.182 202.415 38.9914 202.184 38.8656 201.917C38.7399 201.649 38.683 201.355 38.7002 201.06C38.6983 200.656 38.8128 200.26 39.0301 199.92C39.2885 199.592 39.6164 199.326 39.9902 199.14C40.4906 198.929 41.0142 198.778 41.5501 198.69H42.5102L43.4402 198.48L44.2801 198.27L44.9702 198V199.8Z" fill="#0D0A03"/>
<path d="M120.6 198.42V196.83C120.625 195.319 120.381 193.816 119.88 192.39C119.449 191.179 118.764 190.074 117.87 189.15C117.019 188.288 115.998 187.613 114.87 187.17C113.612 186.706 112.281 186.472 110.94 186.48C109.075 186.439 107.232 186.895 105.6 187.8C104.115 188.663 102.907 189.933 102.12 191.46C101.248 193.156 100.814 195.043 100.86 196.95C100.808 198.886 101.241 200.804 102.12 202.53C102.901 204.066 104.138 205.323 105.66 206.13C107.343 207.009 109.223 207.443 111.12 207.39C112.718 207.421 114.306 207.146 115.8 206.58C117.057 206.092 118.178 205.31 119.07 204.3C119.894 203.298 120.443 202.099 120.66 200.82L114.66 200.67C114.493 201.098 114.238 201.487 113.91 201.81C113.562 202.12 113.153 202.355 112.71 202.5C112.206 202.66 111.679 202.74 111.15 202.74C110.404 202.758 109.667 202.571 109.02 202.2C108.419 201.879 107.936 201.374 107.64 200.76C107.289 200.095 107.113 199.352 107.13 198.6V198.42H120.6ZM107.64 192.93C107.964 192.377 108.43 191.921 108.99 191.61C109.591 191.294 110.261 191.129 110.94 191.13C111.598 191.115 112.249 191.27 112.83 191.58C113.366 191.89 113.81 192.335 114.12 192.87C114.446 193.415 114.622 194.036 114.63 194.67H107.13C107.143 194.055 107.319 193.455 107.64 192.93Z" fill="#0D0A03"/>
<path d="M0 180H8.10004L14.94 196.71H15.27L22.11 180H30.21V207H23.85V190.41H23.61L17.1301 206.82H13.08L6.60004 190.32H6.35999V207H0V180Z" fill="#0D0A03"/>
<path d="M73.2002 190.11C73.8275 191.343 74.127 192.717 74.0701 194.1V207H67.5302V195.36C67.6037 194.404 67.3024 193.457 66.6902 192.72C66.3842 192.397 66.0101 192.145 65.595 191.985C65.1799 191.824 64.7342 191.757 64.2902 191.79C63.6747 191.783 63.0667 191.927 62.5201 192.21C62.0044 192.502 61.5869 192.941 61.3201 193.47C61.0275 194.088 60.8837 194.766 60.9002 195.45V207H54.4502V186.75H60.4502V190.47H60.6902C61.0838 189.238 61.8887 188.179 62.9702 187.47C64.1222 186.729 65.4709 186.353 66.8401 186.39C68.1355 186.36 69.4135 186.693 70.5302 187.35C71.6882 187.966 72.6225 188.932 73.2002 190.11Z" fill="#0D0A03"/>
<path d="M98.1897 180H91.7397V207H98.1897V180Z" fill="#0D0A03"/>
<path d="M17.7902 144H9.12012L0.120117 171H7.14011L8.9101 165.33H18.2401L20.0402 171H27.0301L17.7902 144ZM10.3501 160.35L13.3501 150.78H13.5301L16.5301 160.35H10.3501Z" fill="#0D0A03"/>
<path d="M46.1399 156.93H40.1399C40.0872 156.522 39.9209 156.138 39.6599 155.82C39.3725 155.472 39.0007 155.203 38.5799 155.04C38.1096 154.826 37.5963 154.723 37.0799 154.74C36.4118 154.722 35.7503 154.877 35.1599 155.19C34.9291 155.3 34.7355 155.475 34.6023 155.694C34.4692 155.912 34.4023 156.164 34.4099 156.42C34.4028 156.616 34.4427 156.811 34.5262 156.988C34.6097 157.166 34.7344 157.321 34.8899 157.44C35.4128 157.815 36.0214 158.052 36.6599 158.13L40.5599 158.88C42.2085 159.092 43.766 159.757 45.0599 160.8C45.555 161.25 45.9457 161.802 46.2048 162.419C46.4639 163.036 46.5851 163.702 46.5599 164.37C46.5792 165.676 46.1445 166.949 45.3299 167.97C44.4572 169.056 43.3064 169.886 41.9999 170.37C40.4616 170.971 38.8211 171.266 37.1699 171.24C34.7668 171.374 32.3829 170.744 30.3599 169.44C29.5365 168.911 28.8406 168.206 28.3219 167.376C27.8032 166.546 27.4747 165.612 27.3599 164.64L33.7499 164.49C33.8006 164.831 33.9231 165.156 34.1093 165.446C34.2955 165.736 34.5412 165.982 34.8299 166.17C35.505 166.586 36.2874 166.795 37.0799 166.77C37.79 166.789 38.4928 166.624 39.1199 166.29C39.3496 166.175 39.5436 166 39.681 165.783C39.8185 165.567 39.8942 165.317 39.8999 165.06C39.9011 164.844 39.8465 164.631 39.7414 164.441C39.6363 164.252 39.4842 164.093 39.2999 163.98C38.7377 163.622 38.1018 163.397 37.4399 163.32L33.8999 162.63C32.2167 162.43 30.6355 161.718 29.3699 160.59C28.8741 160.092 28.4874 159.495 28.2344 158.84C27.9813 158.184 27.8674 157.482 27.8999 156.78C27.8382 155.529 28.2207 154.296 28.9799 153.3C29.7559 152.297 30.7942 151.529 31.9799 151.08C33.5119 150.545 35.1277 150.291 36.7499 150.33C39.0357 150.207 41.3025 150.805 43.2299 152.04C44.0646 152.57 44.763 153.288 45.2685 154.138C45.774 154.987 46.0725 155.944 46.1399 156.93Z" fill="#0D0A03"/>
<path d="M66.7201 156.93H60.7201C60.6572 156.52 60.4805 156.135 60.21 155.82C59.9276 155.48 59.5674 155.212 59.16 155.04C58.6888 154.829 58.1762 154.726 57.66 154.74C56.9919 154.722 56.3305 154.877 55.74 155.19C55.5104 155.305 55.3164 155.48 55.1789 155.696C55.0415 155.913 54.9658 156.163 54.96 156.42C54.9655 156.617 55.0139 156.81 55.102 156.986C55.1901 157.163 55.3158 157.317 55.4701 157.44C55.9897 157.821 56.5999 158.058 57.24 158.13L61.14 158.88C62.7853 159.104 64.3398 159.767 65.64 160.8C66.1351 161.25 66.5259 161.802 66.785 162.419C67.0441 163.036 67.1652 163.702 67.14 164.37C67.1593 165.676 66.7246 166.949 65.91 167.97C65.0373 169.056 63.8865 169.886 62.58 170.37C61.0418 170.971 59.4012 171.266 57.75 171.24C55.3379 171.37 52.9457 170.74 50.91 169.44C50.1173 168.892 49.4524 168.18 48.9605 167.351C48.4686 166.523 48.1615 165.598 48.0601 164.64L54.42 164.49C54.4761 164.832 54.6039 165.159 54.7952 165.449C54.9865 165.738 55.237 165.984 55.53 166.17C56.2051 166.586 56.9875 166.795 57.78 166.77C58.481 166.794 59.1754 166.628 59.7901 166.29C60.0233 166.177 60.2216 166.003 60.3642 165.786C60.5068 165.57 60.5882 165.319 60.6 165.06C60.5952 164.841 60.5348 164.627 60.4246 164.439C60.3144 164.25 60.158 164.092 59.9701 163.98C59.4103 163.617 58.7731 163.391 58.11 163.32L54.6 162.63C52.9168 162.43 51.3356 161.718 50.07 160.59C49.5703 160.093 49.179 159.498 48.9208 158.842C48.6627 158.186 48.5432 157.484 48.57 156.78C48.5351 155.532 48.9149 154.309 49.6501 153.3C50.4293 152.301 51.4666 151.533 52.6501 151.08C54.1821 150.545 55.7979 150.291 57.42 150.33C59.7059 150.207 61.9727 150.805 63.9001 152.04C64.7247 152.573 65.4105 153.294 65.9009 154.144C66.3913 154.995 66.6722 155.949 66.7201 156.93Z" fill="#0D0A03"/>
<path d="M88.7402 162.42V160.83C88.7726 159.316 88.5182 157.809 87.9902 156.39C87.578 155.194 86.9074 154.103 86.0259 153.196C85.1444 152.289 84.0738 151.587 82.8902 151.14C81.6166 150.699 80.2779 150.476 78.9302 150.48C77.0725 150.424 75.2352 150.88 73.6202 151.8C72.1236 152.658 70.9052 153.929 70.1102 155.46C69.262 157.164 68.84 159.047 68.8802 160.95C68.835 162.882 69.2569 164.796 70.1102 166.53C70.9225 168.043 72.1509 169.292 73.6502 170.13C75.3344 171.005 77.2129 171.439 79.1102 171.39C80.7075 171.421 82.2961 171.146 83.7903 170.58C85.0469 170.092 86.1682 169.31 87.0602 168.3C87.8799 167.296 88.4274 166.097 88.6502 164.82L82.6502 164.64C82.4911 165.073 82.2345 165.463 81.9002 165.78C81.5581 166.105 81.1483 166.351 80.7003 166.5C80.1945 166.651 79.668 166.722 79.1402 166.71C78.3985 166.723 77.6656 166.548 77.0102 166.2C76.4151 165.871 75.9339 165.369 75.6302 164.76C75.293 164.091 75.128 163.349 75.1502 162.6V162.42H88.7402ZM75.7502 156.93C76.0853 156.376 76.5615 155.92 77.1302 155.61C77.7207 155.294 78.3804 155.129 79.0502 155.13C79.7084 155.116 80.3592 155.27 80.9402 155.58C81.4828 155.877 81.9379 156.312 82.2602 156.84C82.5593 157.405 82.7236 158.031 82.7402 158.67H75.2402C75.2535 158.055 75.4294 157.455 75.7502 156.93Z" fill="#0D0A03"/>
<path d="M103.08 170.7L101.79 171.03C101.138 171.167 100.476 171.247 99.8102 171.27C98.4861 171.389 97.1521 171.205 95.9102 170.73C94.8949 170.358 94.0304 169.662 93.4502 168.75C92.8449 167.716 92.5627 166.525 92.6402 165.33V155.49H89.9702V150.75H92.6402V145.89H99.0602V150.75H102.72V155.49H99.0602V164.49C99.0596 164.821 99.1312 165.149 99.2701 165.45C99.3862 165.677 99.577 165.857 99.8102 165.96C100.108 166.008 100.412 166.008 100.71 165.96H101.49H102.12L103.08 170.7Z" fill="#0D0A03"/>
<path d="M108 0H18C8.05887 0 0 8.05887 0 18V108C0 117.941 8.05887 126 18 126H108C117.941 126 126 117.941 126 108V18C126 8.05887 117.941 0 108 0Z" fill="url(#paint0_radial_67_115)"/>
<path d="M57 33H27C24.6131 33 22.3239 33.9482 20.6361 35.636C18.9483 37.3239 18 39.6131 18 42V84C18.0034 85.9049 18.6112 87.7596 19.7357 89.2971C20.8603 90.8346 22.4438 91.9757 24.2582 92.556C26.0725 93.1363 28.0242 93.126 29.8324 92.5265C31.6405 91.927 33.2117 90.7693 34.32 89.22L64.32 47.22C65.4242 45.7046 66.0131 43.875 66 42C66 39.6131 65.0518 37.3239 63.364 35.636C61.6762 33.9482 59.3869 33 57 33ZM33 54C31.8133 54 30.6533 53.6481 29.6666 52.9888C28.6799 52.3295 27.9109 51.3925 27.4568 50.2961C27.0026 49.1997 26.8838 47.9933 27.1154 46.8295C27.3469 45.6656 27.9182 44.5965 28.7574 43.7574C29.5965 42.9182 30.6656 42.3468 31.8295 42.1153C32.9934 41.8838 34.1998 42.0026 35.2961 42.4567C36.3925 42.9109 37.3296 43.6799 37.9889 44.6666C38.6482 45.6533 39 46.8133 39 48C39 49.5913 38.3679 51.1174 37.2426 52.2426C36.1174 53.3679 34.5913 54 33 54Z" fill="#0D0A03"/>
<path d="M108 42V84C108.004 86.2459 107.167 88.4119 105.655 90.0727C104.143 91.7334 102.065 92.7688 99.8286 92.9756C97.5922 93.1823 95.3594 92.5454 93.5686 91.1899C91.7778 89.8345 90.5585 87.8585 90.1502 85.65C90.0543 85.1051 90.0041 84.5532 90.0001 84V77.16C89.9841 75.2602 89.3674 73.4142 88.2382 71.8863C87.109 70.3585 85.5251 69.2272 83.7137 68.6545C81.9022 68.0817 79.956 68.0969 78.1537 68.6979C76.3513 69.2988 74.7854 70.4547 73.6801 72L68.9402 78.63L61.5302 89.13C60.6888 90.3432 59.5618 91.3308 58.2486 92.0057C56.9355 92.6806 55.4764 93.0221 54.0001 93C52.3486 92.9979 50.7296 92.5414 49.3202 91.6805C47.9109 90.8196 46.7655 89.5876 46.0097 88.1192C45.2538 86.6508 44.9166 85.0028 45.0348 83.3555C45.1531 81.7083 45.7223 80.1253 46.6801 78.78L76.6801 36.78C77.5112 35.6127 78.6091 34.6607 79.8823 34.0033C81.1555 33.3458 82.5672 33.0018 84.0001 33H99.0001C101.387 33 103.676 33.9482 105.364 35.636C107.052 37.3239 108 39.6131 108 42Z" fill="#FFFDFA"/>
<path d="M79.5 90C83.6421 90 87 86.6421 87 82.5C87 78.3579 83.6421 75 79.5 75C75.3579 75 72 78.3579 72 82.5C72 86.6421 75.3579 90 79.5 90Z" fill="#0D0A03"/>
</g>
<defs>
<radialGradient id="paint0_radial_67_115" cx="0" cy="0" r="1" gradientUnits="userSpaceOnUse" gradientTransform="translate(63 63) scale(63)">
<stop offset="0.473958" stop-color="#FFC640"/>
<stop offset="1" stop-color="#F2AF13"/>
</radialGradient>
<clipPath id="clip0_67_115">
<rect width="126" height="207" fill="white"/>
</clipPath>
</defs>
</svg>
