<svg width="420" height="420" viewBox="0 0 420 420" fill="none" xmlns="http://www.w3.org/2000/svg">
<path d="M360.003 0H59.9967C26.8615 0 0 26.8615 0 59.9967V360.003C0 393.139 26.8615 420 59.9967 420H360.003C393.139 420 420 393.139 420 360.003V59.9967C420 26.8615 393.139 0 360.003 0Z" fill="url(#paint0_radial_14_79)"/>
<path d="M291.287 121.692V199.412C291.287 203.025 291.014 206.558 290.467 210C286.945 232.476 272.424 251.27 252.593 260.73C243.737 264.97 233.832 267.33 223.369 267.33H196.653C192.607 267.33 188.652 266.976 184.811 266.304C179.785 265.415 176.172 260.97 176.172 255.864V220.235C181.438 225.432 188.675 228.635 196.653 228.635H223.369C235.439 228.635 245.822 221.283 250.279 210.809C250.393 210.547 250.495 210.273 250.598 210C251.886 206.717 252.581 203.15 252.581 199.412V121.692C252.581 105.553 239.497 92.4683 223.358 92.4683H196.642C180.503 92.4683 167.419 105.553 167.419 121.692V145.672C151.382 151.952 137.83 163.236 128.724 177.608V121.692C128.724 84.1823 159.133 53.7622 196.653 53.7622H223.369C260.879 53.7622 291.299 84.1709 291.299 121.692H291.287Z" fill="#160100"/>
<path d="M291.287 242.392V298.308C291.287 335.818 260.879 366.238 223.358 366.238H196.642C159.133 366.238 128.712 335.829 128.712 298.308V220.577C128.712 216.987 128.986 213.453 129.533 210C133.044 187.547 147.575 168.729 167.407 159.258C176.263 155.03 186.168 152.67 196.63 152.67H223.346C227.415 152.67 231.416 153.035 235.291 153.719C240.306 154.608 243.919 159.053 243.919 164.148V199.856C238.642 194.613 231.359 191.365 223.346 191.365H196.63C185.529 191.365 175.853 197.577 170.929 206.717C170.348 207.766 169.835 208.86 169.39 210C168.102 213.282 167.407 216.838 167.407 220.577V298.308C167.407 314.447 180.492 327.532 196.63 327.532H223.346C239.485 327.532 252.57 314.447 252.57 298.308V274.328C268.606 268.048 282.158 256.764 291.264 242.392H291.287Z" fill="#FFFDFA"/>
<defs>
<radialGradient id="paint0_radial_14_79" cx="0" cy="0" r="1" gradientUnits="userSpaceOnUse" gradientTransform="translate(210 210) scale(210 210)">
<stop offset="0.473958" stop-color="#FFC640"/>
<stop offset="1" stop-color="#F2AF13"/>
</radialGradient>
</defs>
</svg>
