<svg width="553" height="132" viewBox="0 0 553 132" fill="none" xmlns="http://www.w3.org/2000/svg">
<path d="M113.144 0H18.8561C8.44217 0 0 8.44217 0 18.8561V113.144C0 123.558 8.44217 132 18.8561 132H113.144C123.558 132 132 123.558 132 113.144V18.8561C132 8.44217 123.558 0 113.144 0Z" fill="url(#paint0_radial_14_112)"/>
<path d="M91.5476 38.2459V62.6722C91.5476 63.8077 91.4617 64.9182 91.2897 66C90.1829 73.0638 85.6193 78.9707 79.3864 81.9438C76.6032 83.2764 73.4903 84.0179 70.202 84.0179H61.8056C60.5339 84.0179 59.2909 83.9068 58.0838 83.6955C56.5041 83.4161 55.3685 82.0191 55.3685 80.4143V69.2167C57.0235 70.8501 59.2981 71.8567 61.8056 71.8567H70.202C73.9954 71.8567 77.2587 69.5462 78.6593 66.2543C78.6951 66.1719 78.7273 66.0859 78.7596 66C79.1644 64.9683 79.3829 63.8471 79.3829 62.6722V38.2459C79.3829 33.1737 75.2706 29.0614 70.1984 29.0614H61.802C56.7297 29.0614 52.6175 33.1737 52.6175 38.2459V45.7826C47.5775 47.7564 43.3184 51.3026 40.4563 55.8197V38.2459C40.4563 26.4573 50.0133 16.8967 61.8056 16.8967H70.202C81.9906 16.8967 91.5512 26.4537 91.5512 38.2459H91.5476Z" fill="#160100"/>
<path d="M91.5473 76.1803V93.7541C91.5473 105.543 81.9903 115.103 70.1981 115.103H61.8016C50.013 115.103 40.4524 105.546 40.4524 93.7541V69.3242C40.4524 68.1958 40.5384 67.0854 40.7103 66C41.8136 58.9433 46.3808 53.0293 52.6136 50.0526C55.3969 48.7236 58.5097 47.9821 61.7981 47.9821H70.1945C71.4733 47.9821 72.7306 48.0967 73.9485 48.3117C75.5246 48.5911 76.6602 49.9881 76.6602 51.5893V62.812C75.0016 61.1642 72.7127 60.1433 70.1945 60.1433H61.7981C58.3091 60.1433 55.2679 62.0955 53.7205 64.9684C53.5378 65.2979 53.3766 65.6418 53.2369 66C52.8321 67.0317 52.6136 68.1493 52.6136 69.3242V93.7541C52.6136 98.8263 56.7258 102.939 61.7981 102.939H70.1945C75.2667 102.939 79.379 98.8263 79.379 93.7541V86.2173C84.419 84.2436 88.6781 80.6973 91.5402 76.1803H91.5473Z" fill="#FFFDFA"/>
<path d="M172.669 100.98H157.143L180.809 32.4031H199.477L223.111 100.98H207.586L190.426 48.086H189.891L172.669 100.98ZM171.694 74.0146H208.403V85.3288H171.694V74.0146Z" fill="#0D0A03"/>
<path d="M272.675 64.2086L259.632 65.0257C259.412 63.8943 258.941 62.8886 258.186 62.0086C257.463 61.0971 256.489 60.3743 255.295 59.84C254.101 59.3057 252.686 59.0228 251.021 59.0228C248.821 59.0228 246.935 59.4943 245.426 60.4057C243.918 61.3171 243.163 62.5743 243.163 64.1143C243.163 65.34 243.666 66.3771 244.641 67.2257C245.615 68.0743 247.312 68.7657 249.701 69.2686L259.003 71.1543C264.001 72.1914 267.741 73.8257 270.192 76.12C272.643 78.3828 273.869 81.4 273.869 85.0771C273.869 88.44 272.895 91.3943 270.915 93.94C268.935 96.4857 266.232 98.4657 262.806 99.88C259.381 101.294 255.421 102.017 250.958 102.017C244.138 102.017 238.732 100.603 234.709 97.7428C230.686 94.8828 228.329 91.0171 227.638 86.1143L241.655 85.3914C242.063 87.4657 243.101 89.0371 244.735 90.1371C246.369 91.2371 248.443 91.7714 250.989 91.7714C253.535 91.7714 255.515 91.3 257.023 90.3257C258.563 89.3514 259.318 88.0943 259.349 86.5543C259.349 85.2657 258.783 84.1971 257.715 83.3486C256.646 82.5 254.981 81.8714 252.749 81.4314L243.855 79.6714C238.826 78.6657 235.086 76.9371 232.666 74.4543C230.215 71.9714 228.989 68.8286 228.989 64.9943C228.989 61.6943 229.901 58.8343 231.692 56.4457C233.483 54.0571 236.029 52.2028 239.298 50.9143C242.566 49.6257 246.401 48.9657 250.801 48.9657C257.306 48.9657 262.398 50.3486 266.138 53.0828C269.878 55.8171 272.046 59.5571 272.675 64.3028V64.2086Z" fill="#0D0A03"/>
<path d="M328.587 54.5602C328.115 52.9259 327.455 51.4802 326.607 50.2231C325.758 48.9659 324.721 47.8973 323.495 47.0173C322.27 46.1373 320.887 45.4459 319.347 45.0059C317.807 44.5345 316.078 44.3145 314.192 44.3145C310.672 44.3145 307.624 45.1945 304.984 46.9231C302.344 48.6516 300.27 51.1973 298.792 54.4973C297.315 57.7973 296.592 61.8516 296.592 66.6288C296.592 71.4059 297.315 75.4602 298.761 78.8231C300.207 82.1859 302.281 84.7316 304.921 86.4602C307.561 88.2202 310.704 89.1002 314.318 89.1002C317.587 89.1002 320.415 88.5031 322.741 87.3402C325.067 86.1773 326.858 84.5116 328.084 82.3745C329.31 80.2373 329.938 77.6916 329.938 74.7688L332.892 75.2088H315.23V64.3031H343.924V72.9459C343.924 78.9802 342.635 84.1345 340.121 88.4716C337.575 92.7773 334.087 96.1088 329.624 98.4345C325.161 100.76 320.038 101.923 314.287 101.923C307.875 101.923 302.218 100.509 297.347 97.6488C292.475 94.7888 288.704 90.7345 285.97 85.4859C283.267 80.2373 281.915 73.9831 281.915 66.7545C281.915 61.1916 282.732 56.2259 284.335 51.8573C285.938 47.4888 288.232 43.7802 291.155 40.7631C294.078 37.7145 297.472 35.4202 301.37 33.8173C305.267 32.2459 309.478 31.4288 314.004 31.4288C317.901 31.4288 321.515 31.9945 324.847 33.1259C328.178 34.2573 331.164 35.8288 333.772 37.9031C336.381 39.9459 338.487 42.3973 340.152 45.2259C341.818 48.0545 342.855 51.1659 343.327 54.5602H328.587Z" fill="#0D0A03"/>
<path d="M387.546 79.0744V49.563H401.814V100.98H388.112V91.6458H387.577C386.414 94.663 384.497 97.083 381.794 98.9058C379.092 100.729 375.823 101.64 371.957 101.64C368.532 101.64 365.483 100.854 362.874 99.283C360.266 97.7116 358.223 95.5116 356.777 92.6201C355.332 89.7287 354.577 86.303 354.546 82.2801V49.563H368.814V79.7658C368.814 82.8144 369.663 85.203 371.266 86.963C372.869 88.723 375.037 89.603 377.74 89.603C379.469 89.603 381.072 89.1944 382.549 88.4087C384.057 87.623 385.252 86.4287 386.194 84.8887C387.137 83.3487 387.577 81.4001 387.546 79.1058V79.0744Z" fill="#0D0A03"/>
<path d="M427.868 101.954C424.6 101.954 421.677 101.388 419.1 100.226C416.523 99.0628 414.511 97.3656 413.034 95.1028C411.557 92.8399 410.803 90.0113 410.803 86.6171C410.803 83.7571 411.337 81.3685 412.374 79.4199C413.411 77.4713 414.857 75.8999 416.648 74.7371C418.471 73.5428 420.514 72.6628 422.84 72.0656C425.166 71.4685 427.586 71.0285 430.131 70.7771C433.117 70.4628 435.537 70.1799 437.36 69.8971C439.183 69.6142 440.503 69.2056 441.351 68.6399C442.2 68.0742 442.577 67.2571 442.577 66.1571V65.9685C442.577 63.8628 441.917 62.1971 440.597 61.0342C439.277 59.8713 437.391 59.3056 434.971 59.3056C432.394 59.3056 430.351 59.8713 428.843 61.0028C427.334 62.1342 426.328 63.5485 425.826 65.2456L412.626 64.1771C413.286 61.0656 414.606 58.3313 416.586 56.0685C418.534 53.7742 421.08 52.0142 424.191 50.7885C427.303 49.5628 430.917 48.9342 435.034 48.9342C437.894 48.9342 440.628 49.2799 443.268 49.9399C445.877 50.5999 448.234 51.6371 450.277 53.0513C452.32 54.4656 453.923 56.2571 455.117 58.4571C456.311 60.6571 456.877 63.2971 456.877 66.3456V101.043H443.363V93.9085H442.954C442.137 95.5113 441.037 96.9256 439.654 98.1513C438.271 99.3771 436.606 100.32 434.657 101.011C432.708 101.703 430.477 102.017 427.931 102.017L427.868 101.954ZM431.954 92.1171C434.06 92.1171 435.914 91.7085 437.517 90.8599C439.12 90.0113 440.377 88.8799 441.288 87.4656C442.2 86.0199 442.671 84.4171 442.671 82.6256V77.1571C442.231 77.4399 441.603 77.7228 440.848 77.9428C440.094 78.1628 439.214 78.3828 438.24 78.5713C437.266 78.7599 436.323 78.9171 435.348 79.0742C434.406 79.2313 433.526 79.3571 432.74 79.4513C431.074 79.7028 429.597 80.0799 428.34 80.6142C427.083 81.1485 426.108 81.8713 425.417 82.7828C424.726 83.6942 424.38 84.7942 424.38 86.1456C424.38 88.0942 425.103 89.5713 426.517 90.5771C427.931 91.5828 429.723 92.0856 431.923 92.0856L431.954 92.1171Z" fill="#0D0A03"/>
<path d="M467.908 100.98V49.5631H481.737V58.5202H482.271C483.214 55.3145 484.785 52.9259 486.985 51.2602C489.185 49.6259 491.731 48.8088 494.622 48.8088C495.345 48.8088 496.1 48.8402 496.948 48.9345C497.765 49.0288 498.488 49.1545 499.117 49.3116V61.9773C498.457 61.7888 497.514 61.6002 496.351 61.4431C495.157 61.2859 494.088 61.2231 493.114 61.2231C491.008 61.2231 489.154 61.6631 487.52 62.5745C485.885 63.4859 484.565 64.7431 483.622 66.3459C482.68 67.9488 482.208 69.8031 482.208 71.9088V101.012H467.94L467.908 100.98Z" fill="#0D0A03"/>
<path d="M522.971 101.829C519.074 101.829 515.523 100.823 512.38 98.8117C509.237 96.8003 506.723 93.8146 504.9 89.886C503.046 85.9574 502.134 81.1174 502.134 75.366C502.134 69.6146 503.077 64.5546 504.963 60.6574C506.849 56.7603 509.394 53.806 512.537 51.8574C515.68 49.9089 519.169 48.9346 522.94 48.9346C525.831 48.9346 528.22 49.4374 530.169 50.3803C532.086 51.3546 533.657 52.5489 534.851 53.9946C536.046 55.4403 536.957 56.8546 537.586 58.2374H538.026V32.4031H552.263V100.98H538.214V92.746H537.617C536.957 94.1917 536.014 95.5746 534.789 96.9888C533.563 98.3717 531.991 99.5346 530.074 100.446C528.126 101.357 525.8 101.829 523.034 101.829H522.971ZM527.497 90.4831C529.791 90.4831 531.74 89.8546 533.343 88.5974C534.946 87.3403 536.171 85.5803 537.02 83.286C537.869 80.9917 538.309 78.3517 538.309 75.2717C538.309 72.1917 537.9 69.5517 537.051 67.2889C536.203 65.026 534.977 63.2974 533.374 62.0717C531.771 60.846 529.823 60.2174 527.497 60.2174C525.171 60.2174 523.191 60.846 521.589 62.1346C519.986 63.4231 518.76 65.1831 517.943 67.4146C517.126 69.6774 516.717 72.286 516.717 75.2403C516.717 78.1946 517.126 80.866 517.974 83.1603C518.823 85.4546 520.017 87.246 521.62 88.5031C523.223 89.7917 525.171 90.4203 527.529 90.4203L527.497 90.4831Z" fill="#0D0A03"/>
<defs>
<radialGradient id="paint0_radial_14_112" cx="0" cy="0" r="1" gradientUnits="userSpaceOnUse" gradientTransform="translate(66 66) scale(66 66)">
<stop offset="0.473958" stop-color="#FFC640"/>
<stop offset="1" stop-color="#F2AF13"/>
</radialGradient>
</defs>
</svg>
