<svg width="420" height="420" viewBox="0 0 420 420" fill="none" xmlns="http://www.w3.org/2000/svg">
<path d="M210 420C325.98 420 420 325.98 420 210C420 94.0202 325.98 0 210 0C94.0202 0 0 94.0202 0 210C0 325.98 94.0202 420 210 420Z" fill="url(#paint0_radial_2_136)"/>
<path d="M295.231 117.388V198.895C295.231 202.674 294.944 206.387 294.369 210C290.678 233.56 275.451 253.273 254.654 263.196C245.372 267.65 234.974 270.125 224.012 270.125H195.999C191.756 270.125 187.612 269.76 183.579 269.042C178.308 268.114 174.518 263.44 174.518 258.091V220.73C180.043 226.178 187.634 229.537 195.999 229.537H224.012C236.676 229.537 247.56 221.824 252.234 210.84C252.356 210.564 252.455 210.277 252.577 209.989C253.925 206.542 254.654 202.807 254.654 198.884V117.399C254.654 100.47 240.93 86.7562 224.012 86.7562H195.999C179.07 86.7562 165.357 100.481 165.357 117.399V142.549C148.538 149.135 134.328 160.97 124.78 176.032V117.399C124.78 78.0596 156.671 46.1685 196.01 46.1685H224.023C263.362 46.1685 295.253 78.0596 295.253 117.399L295.231 117.388Z" fill="#160100"/>
<path d="M295.231 243.969V302.602C295.231 341.941 263.34 373.832 224.001 373.832H195.988C156.649 373.832 124.758 341.941 124.758 302.602V221.084C124.758 217.315 125.045 213.614 125.62 210C129.3 186.452 144.538 166.727 165.335 156.782C174.617 152.34 185.015 149.864 195.977 149.864H223.99C228.266 149.864 232.454 150.24 236.521 150.958C241.781 151.887 245.571 156.55 245.571 161.898V199.348C240.035 193.845 232.399 190.441 224.001 190.441H195.988C184.352 190.441 174.208 196.961 169.037 206.541C168.418 207.646 167.887 208.796 167.423 209.989C166.075 213.437 165.346 217.161 165.346 221.073V302.591C165.346 319.52 179.07 333.233 195.988 333.233H224.001C240.93 333.233 254.643 319.509 254.643 302.591V277.44C271.462 270.854 285.672 259.019 295.22 243.958L295.231 243.969Z" fill="#FFFDFA"/>
<defs>
<radialGradient id="paint0_radial_2_136" cx="0" cy="0" r="1" gradientUnits="userSpaceOnUse" gradientTransform="translate(210 210) scale(210)">
<stop stop-color="#FFC640"/>
<stop offset="0.29" stop-color="#FDC33B"/>
<stop offset="0.6" stop-color="#FABD2F"/>
<stop offset="0.91" stop-color="#F4B21A"/>
<stop offset="1" stop-color="#F2AF13"/>
</radialGradient>
</defs>
</svg>
