<?xml version="1.0" encoding="UTF-8"?><svg id="Layer_2" xmlns="http://www.w3.org/2000/svg" viewBox="0 0 5826.78 900"><defs><style>.cls-1{fill:#f9f7f4;}.cls-2{fill:#363535;}.cls-3{fill:#fbab30;}</style></defs><g id="Layer_1-2"><rect class="cls-3" x="0" width="1620.3" height="900" rx="60" ry="60"/><rect class="cls-2" x="273.4" y="180.3" width="180" height="180"/><path class="cls-2" d="M455.9,362.8h-185v-185h185v185ZM275.9,357.8h175v-175h-175v175Z"/><rect class="cls-1" x="453.4" y="180.3" width="180" height="180"/><path class="cls-2" d="M635.9,362.8h-185v-185h185v185ZM455.9,357.8h175v-175h-175v175h0Z"/><rect class="cls-1" x="633.4" y="180.3" width="180" height="180"/><path class="cls-2" d="M815.9,362.8h-185v-185h185v185ZM635.9,357.8h175v-175h-175v175Z"/><rect class="cls-1" x="273.4" y="360.3" width="180" height="180"/><path class="cls-2" d="M455.9,542.8h-185v-185h185v185ZM275.9,537.8h175v-175h-175v175Z"/><rect class="cls-1" x="453.4" y="360.3" width="180" height="180"/><path class="cls-2" d="M635.9,542.8h-185v-185h185v185ZM455.9,537.8h175v-175h-175v175h0Z"/><rect class="cls-1" x="633.4" y="360.3" width="180" height="180"/><path class="cls-2" d="M815.9,542.8h-185v-185h185v185ZM635.9,537.8h175v-175h-175v175Z"/><rect class="cls-1" x="273.4" y="540.3" width="180" height="180"/><path class="cls-2" d="M455.9,722.8h-185v-185h185v185ZM275.9,717.8h175v-175h-175v175Z"/><rect class="cls-1" x="453.4" y="540.3" width="180" height="180"/><path class="cls-2" d="M635.9,722.8h-185v-185h185v185ZM455.9,717.8h175v-175h-175v175h0Z"/><rect class="cls-1" x="633.4" y="540.3" width="180" height="180"/><path class="cls-2" d="M815.9,722.8h-185v-185h185v185ZM635.9,717.8h175v-175h-175v175Z"/><rect class="cls-2" x="813.05" y="180.3" width="180" height="180"/><path class="cls-1" d="M995.55,362.8h-185v-185h185v185ZM815.55,357.8h175v-175h-175v175Z"/><rect class="cls-2" x="993.05" y="180.3" width="180" height="180"/><path class="cls-1" d="M1175.55,362.8h-185v-185h185v185ZM995.55,357.8h175v-175h-175v175h0Z"/><rect class="cls-2" x="1173.05" y="180.3" width="180" height="180"/><path class="cls-1" d="M1355.55,362.8h-185v-185h185v185ZM1175.55,357.8h175v-175h-175v175h0Z"/><rect class="cls-2" x="813.05" y="360.3" width="180" height="180"/><path class="cls-1" d="M995.55,542.8h-185v-185h185v185ZM815.55,537.8h175v-175h-175v175Z"/><rect class="cls-2" x="993.05" y="360.3" width="180" height="180"/><path class="cls-1" d="M1175.55,542.8h-185v-185h185v185ZM995.55,537.8h175v-175h-175v175h0Z"/><rect class="cls-2" x="1173.05" y="360.3" width="180" height="180"/><path class="cls-1" d="M1355.55,542.8h-185v-185h185v185ZM1175.55,537.8h175v-175h-175v175h0Z"/><rect class="cls-2" x="813.05" y="540.3" width="180" height="180"/><path class="cls-1" d="M995.55,722.8h-185v-185h185v185ZM815.55,717.8h175v-175h-175v175Z"/><rect class="cls-1" x="993.05" y="540.3" width="180" height="180"/><path class="cls-1" d="M1175.55,722.8h-185v-185h185v185ZM995.55,717.8h175v-175h-175v175h0Z"/><rect class="cls-2" x="1173.05" y="540.3" width="180" height="180"/><path class="cls-1" d="M1355.55,722.8h-185v-185h185v185ZM1175.55,717.8h175v-175h-175v175h0Z"/><rect class="cls-2" x="810.5" y="717.8" width="5" height="5"/><rect class="cls-2" x="810.5" y="537.8" width="5" height="5"/><rect class="cls-2" x="810.5" y="357.8" width="5" height="5"/><rect class="cls-2" x="810.5" y="177.8" width="5" height="5"/><path class="cls-1" d="M1794.18,676.37V228.37h129.92l97.92,401.92h10.24l97.92-401.92h129.92v448h-67.2v-399.36h-10.24l-97.28,399.36h-116.48l-97.28-399.36h-10.24v399.36h-67.2Z"/><path class="cls-1" d="M2434.18,685.33c-22.62,0-42.78-3.84-60.48-11.52-17.71-7.68-31.79-18.98-42.24-33.92-10.46-14.93-15.68-33.06-15.68-54.4s5.22-39.78,15.68-54.08c10.45-14.29,24.74-25.06,42.88-32.32,18.13-7.25,38.72-10.88,61.76-10.88h96v-20.48c0-18.34-5.55-33.06-16.64-44.16-11.1-11.09-28.16-16.64-51.2-16.64s-39.9,5.34-51.84,16c-11.95,10.67-19.84,24.54-23.68,41.6l-61.44-19.84c5.12-17.06,13.33-32.53,24.64-46.4,11.3-13.86,26.34-25.06,45.12-33.6,18.77-8.53,41.38-12.8,67.84-12.8,40.96,0,73.17,10.46,96.64,31.36,23.46,20.91,35.2,50.56,35.2,88.96v129.92c0,12.8,5.97,19.2,17.92,19.2h26.88v55.04h-49.28c-14.94,0-27.1-3.84-36.48-11.52-9.39-7.68-14.08-18.13-14.08-31.36v-1.92h-9.6c-3.42,6.4-8.54,13.87-15.36,22.4-6.83,8.54-16.86,15.9-30.08,22.08-13.23,6.18-30.72,9.28-52.48,9.28ZM2443.78,630.93c26.45,0,47.78-7.57,64-22.72,16.21-15.14,24.32-35.94,24.32-62.4v-6.4h-92.16c-17.5,0-31.58,3.74-42.24,11.2-10.67,7.47-16,18.46-16,32.96s5.54,26.03,16.64,34.56c11.09,8.54,26.24,12.8,45.44,12.8Z"/><path class="cls-1" d="M2686.33,676.37v-315.52h64.64v47.36h10.24c5.97-12.8,16.64-24.74,32-35.84,15.36-11.09,38.18-16.64,68.48-16.64,23.89,0,45.12,5.34,63.68,16,18.56,10.67,33.17,25.71,43.84,45.12,10.66,19.42,16,42.78,16,70.08v189.44h-65.92v-184.32c0-27.3-6.83-47.46-20.48-60.48-13.66-13.01-32.43-19.52-56.32-19.52-27.31,0-49.18,8.96-65.6,26.88-16.43,17.92-24.64,43.95-24.64,78.08v159.36h-65.92Z"/><path class="cls-1" d="M3179.13,676.37c-19.2,0-34.46-5.76-45.76-17.28-11.31-11.52-16.96-26.88-16.96-46.08v-196.48h-87.04v-55.68h87.04v-104.32h65.92v104.32h94.08v55.68h-94.08v184.96c0,12.8,5.97,19.2,17.92,19.2h65.92v55.68h-87.04Z"/><path class="cls-1" d="M3334.64,676.37V228.37h65.92v448h-65.92Z"/><path class="cls-1" d="M3623.92,685.33c-32,0-59.95-6.72-83.84-20.16-23.9-13.44-42.56-32.42-56-56.96-13.44-24.53-20.16-53.01-20.16-85.44v-7.68c0-32.85,6.61-61.54,19.84-86.08,13.22-24.53,31.68-43.52,55.36-56.96,23.68-13.44,51.09-20.16,82.24-20.16s56.85,6.72,79.68,20.16c22.82,13.44,40.64,32.11,53.44,56,12.8,23.9,19.2,51.84,19.2,83.84v24.96h-242.56c.85,27.74,10.13,49.82,27.84,66.24,17.7,16.43,39.78,24.64,66.24,24.64,24.74,0,43.41-5.54,56-16.64,12.58-11.09,22.29-23.89,29.12-38.4l54.4,28.16c-5.98,11.95-14.62,24.54-25.92,37.76-11.31,13.23-26.14,24.32-44.48,33.28-18.35,8.96-41.82,13.44-70.4,13.44ZM3531.76,486.29h174.72c-1.71-23.89-10.24-42.56-25.6-56-15.36-13.44-35.42-20.16-60.16-20.16s-44.91,6.72-60.48,20.16c-15.58,13.44-25.07,32.11-28.48,56Z"/><path class="cls-1" d="M3815.28,676.37v-61.44h60.16v-325.12h-60.16v-61.44h227.2c26.88,0,50.34,4.59,70.4,13.76,20.05,9.18,35.73,22.19,47.04,39.04,11.3,16.86,16.96,36.8,16.96,59.84v6.4c0,20.48-3.84,37.34-11.52,50.56-7.68,13.23-16.96,23.47-27.84,30.72-10.88,7.26-21.23,12.38-31.04,15.36v10.24c9.81,2.56,20.37,7.58,31.68,15.04,11.3,7.47,20.9,17.82,28.8,31.04,7.89,13.23,11.84,30.51,11.84,51.84v6.4c0,24.75-5.76,45.87-17.28,63.36-11.52,17.5-27.42,30.94-47.68,40.32-20.27,9.39-43.63,14.08-70.08,14.08h-228.48ZM3945.2,419.09h90.24c21.76,0,39.25-5.44,52.48-16.32,13.22-10.88,19.84-25.7,19.84-44.48v-6.4c0-18.77-6.51-33.6-19.52-44.48-13.02-10.88-30.62-16.32-52.8-16.32h-90.24v128ZM3945.2,613.65h90.24c23.04,0,41.17-5.54,54.4-16.64,13.22-11.09,19.84-26.45,19.84-46.08v-5.76c0-19.62-6.51-34.98-19.52-46.08-13.02-11.09-31.26-16.64-54.72-16.64h-90.24v131.2Z"/><path class="cls-1" d="M4359.92,682.13c-23.9,0-45.23-5.34-64-16-18.78-10.66-33.5-25.81-44.16-45.44-10.67-19.62-16-43.09-16-70.4v-189.44h65.92v184.96c0,27.31,6.82,47.47,20.48,60.48,13.65,13.02,32.64,19.52,56.96,19.52,26.88,0,48.53-9.06,64.96-27.2,16.42-18.13,24.64-44.26,24.64-78.4v-159.36h65.92v315.52h-64.64v-47.36h-10.24c-5.98,12.8-16.64,24.86-32,36.16s-37.98,16.96-67.84,16.96Z"/><path class="cls-1" d="M4645.99,317.97c-12.8,0-23.58-4.16-32.32-12.48-8.75-8.32-13.12-19.09-13.12-32.32s4.37-24,13.12-32.32c8.74-8.32,19.52-12.48,32.32-12.48s24.1,4.16,32.64,12.48c8.53,8.32,12.8,19.1,12.8,32.32s-4.27,24-12.8,32.32c-8.54,8.32-19.42,12.48-32.64,12.48ZM4612.71,676.37v-315.52h65.92v315.52h-65.92Z"/><path class="cls-1" d="M4757.35,676.37V228.37h65.92v448h-65.92Z"/><path class="cls-1" d="M5032.55,685.33c-26.03,0-50.14-6.4-72.32-19.2-22.19-12.8-40-31.25-53.44-55.36-13.44-24.1-20.16-53.22-20.16-87.36v-9.6c0-33.7,6.61-62.72,19.84-87.04,13.22-24.32,30.93-42.88,53.12-55.68,22.18-12.8,46.5-19.2,72.96-19.2,20.48,0,37.65,2.56,51.52,7.68,13.86,5.12,25.28,11.63,34.24,19.52,8.96,7.9,15.78,16.11,20.48,24.64h10.24v-175.36h65.92v448h-64.64v-44.8h-10.24c-8.11,13.66-20.38,26.03-36.8,37.12-16.43,11.09-40,16.64-70.72,16.64ZM5051.11,627.73c28.58,0,52.16-9.17,70.72-27.52,18.56-18.34,27.84-44.58,27.84-78.72v-5.76c0-33.7-9.18-59.73-27.52-78.08-18.35-18.34-42.03-27.52-71.04-27.52s-51.52,9.18-70.08,27.52c-18.56,18.35-27.84,44.38-27.84,78.08v5.76c0,34.14,9.28,60.38,27.84,78.72,18.56,18.35,41.92,27.52,70.08,27.52Z"/><path class="cls-1" d="M5437.66,685.33c-32,0-59.95-6.72-83.84-20.16-23.9-13.44-42.56-32.42-56-56.96-13.44-24.53-20.16-53.01-20.16-85.44v-7.68c0-32.85,6.61-61.54,19.84-86.08,13.22-24.53,31.68-43.52,55.36-56.96,23.68-13.44,51.09-20.16,82.24-20.16s56.85,6.72,79.68,20.16c22.82,13.44,40.64,32.11,53.44,56,12.8,23.9,19.2,51.84,19.2,83.84v24.96h-242.56c.85,27.74,10.13,49.82,27.84,66.24,17.7,16.43,39.78,24.64,66.24,24.64,24.74,0,43.41-5.54,56-16.64,12.58-11.09,22.29-23.89,29.12-38.4l54.4,28.16c-5.98,11.95-14.62,24.54-25.92,37.76-11.31,13.23-26.14,24.32-44.48,33.28-18.35,8.96-41.82,13.44-70.4,13.44ZM5345.5,486.29h174.72c-1.71-23.89-10.24-42.56-25.6-56-15.36-13.44-35.42-20.16-60.16-20.16s-44.91,6.72-60.48,20.16c-15.58,13.44-25.07,32.11-28.48,56Z"/><path class="cls-1" d="M5647.58,676.37v-315.52h64.64v37.12h10.24c5.12-13.22,13.33-22.93,24.64-29.12,11.3-6.18,25.28-9.28,41.92-9.28h37.76v59.52h-40.32c-21.34,0-38.83,5.87-52.48,17.6-13.66,11.74-20.48,29.76-20.48,54.08v185.6h-65.92Z"/></g></svg>