<?xml version="1.0" encoding="UTF-8"?><svg id="Layer_2" xmlns="http://www.w3.org/2000/svg" viewBox="0 0 793.47 325.79"><defs><style>.cls-1{fill:#fff;}.cls-2{fill:#c8c8c8;}</style></defs><g id="Layer_1-2"><g><g><path class="cls-1" d="M277.22,173.98c-1.26,0-2.32-.43-3.18-1.29-.86-.86-1.29-1.92-1.29-3.18v-58.22c0-1.32,.43-2.39,1.29-3.22,.86-.83,1.92-1.25,3.18-1.25,1.72,0,3.04,.8,3.96,2.41l26.92,53.92h-2.75l26.23-53.92c.92-1.6,2.24-2.41,3.96-2.41,1.26,0,2.32,.42,3.18,1.25,.86,.83,1.29,1.91,1.29,3.22v58.22c0,1.26-.44,2.32-1.33,3.18s-1.93,1.29-3.14,1.29-2.32-.43-3.18-1.29c-.86-.86-1.29-1.92-1.29-3.18v-45.84l1.72-.43-22.53,45.92c-.98,1.49-2.27,2.24-3.87,2.24-1.89,0-3.27-.89-4.13-2.67l-22.27-44.63,1.72-.43v45.84c0,1.26-.43,2.32-1.29,3.18s-1.92,1.29-3.18,1.29Z"/><path class="cls-1" d="M375.95,174.32c-4.19,0-7.94-1.04-11.27-3.14-3.33-2.09-5.95-4.93-7.87-8.51-1.92-3.58-2.88-7.64-2.88-12.17s1.04-8.6,3.14-12.21c2.09-3.61,4.93-6.46,8.51-8.56,3.58-2.09,7.61-3.14,12.08-3.14s8.48,1.05,12.04,3.14c3.55,2.09,6.38,4.95,8.47,8.56,2.09,3.61,3.14,7.68,3.14,12.21h-3.35c0,4.53-.96,8.59-2.88,12.17-1.92,3.58-4.54,6.42-7.87,8.51-3.33,2.09-7.08,3.14-11.27,3.14Zm1.72-7.74c2.92,0,5.53-.7,7.83-2.11,2.29-1.4,4.1-3.32,5.42-5.76,1.32-2.44,1.98-5.17,1.98-8.21s-.66-5.86-1.98-8.3c-1.32-2.44-3.12-4.36-5.42-5.76-2.29-1.4-4.9-2.11-7.83-2.11s-5.46,.7-7.78,2.11c-2.32,1.41-4.16,3.33-5.5,5.76-1.35,2.44-2.02,5.2-2.02,8.3s.67,5.78,2.02,8.21c1.35,2.44,3.18,4.36,5.5,5.76,2.32,1.41,4.92,2.11,7.78,2.11Zm19.26,7.48c-1.26,0-2.31-.42-3.14-1.25-.83-.83-1.25-1.88-1.25-3.14v-13.16l1.63-9.12,7.14,3.1v19.18c0,1.26-.42,2.31-1.25,3.14-.83,.83-1.88,1.25-3.14,1.25Z"/><path class="cls-1" d="M418.77,174.07c-1.26,0-2.31-.42-3.14-1.25-.83-.83-1.25-1.88-1.25-3.14v-38.36c0-1.32,.42-2.38,1.25-3.18,.83-.8,1.88-1.2,3.14-1.2s2.38,.4,3.18,1.2c.8,.8,1.2,1.86,1.2,3.18v38.36c0,1.26-.4,2.31-1.2,3.14-.8,.83-1.86,1.25-3.18,1.25Zm35.35,0c-1.26,0-2.31-.42-3.14-1.25-.83-.83-1.25-1.88-1.25-3.14v-21.16c0-3.27-.6-5.93-1.81-8-1.2-2.06-2.83-3.6-4.86-4.6-2.04-1-4.37-1.5-7.01-1.5-2.41,0-4.59,.49-6.54,1.46-1.95,.98-3.5,2.28-4.64,3.91-1.15,1.63-1.72,3.51-1.72,5.63h-5.42c0-3.61,.87-6.84,2.62-9.67,1.75-2.84,4.14-5.09,7.18-6.75,3.04-1.66,6.45-2.49,10.23-2.49s7.5,.85,10.62,2.54c3.12,1.69,5.59,4.17,7.4,7.44,1.81,3.27,2.71,7.28,2.71,12.04v21.16c0,1.26-.42,2.31-1.25,3.14s-1.88,1.25-3.14,1.25Z"/><path class="cls-1" d="M471.06,136.06c-1.2,0-2.18-.34-2.92-1.03-.75-.69-1.12-1.55-1.12-2.58,0-1.15,.37-2.06,1.12-2.75,.74-.69,1.72-1.03,2.92-1.03h19.87c1.2,0,2.18,.34,2.92,1.03,.75,.69,1.12,1.61,1.12,2.75,0,1.03-.37,1.89-1.12,2.58s-1.72,1.03-2.92,1.03h-19.87Zm19.09,37.93c-2.87,0-5.45-.73-7.74-2.19-2.29-1.46-4.1-3.45-5.42-5.98-1.32-2.52-1.98-5.36-1.98-8.51v-41.02c0-1.26,.4-2.29,1.2-3.1s1.83-1.2,3.1-1.2,2.29,.4,3.1,1.2c.8,.8,1.2,1.83,1.2,3.1v41.02c0,2.29,.63,4.21,1.89,5.76,1.26,1.55,2.81,2.32,4.64,2.32h2.92c1.03,0,1.91,.4,2.62,1.2,.72,.8,1.07,1.84,1.07,3.1s-.47,2.29-1.42,3.1c-.95,.8-2.16,1.2-3.65,1.2h-1.55Z"/><path class="cls-1" d="M518.7,173.98c-2.52,0-4.76-.69-6.71-2.06-1.95-1.38-3.47-3.25-4.56-5.63-1.09-2.38-1.63-5.12-1.63-8.21v-46.96c0-1.26,.4-2.29,1.2-3.1,.8-.8,1.83-1.2,3.1-1.2s2.29,.4,3.1,1.2c.8,.8,1.2,1.84,1.2,3.1v46.96c0,2.12,.4,3.87,1.2,5.25,.8,1.38,1.83,2.06,3.1,2.06h2.15c1.15,0,2.08,.4,2.79,1.2,.72,.8,1.08,1.84,1.08,3.1s-.55,2.29-1.63,3.1c-1.09,.8-2.49,1.2-4.21,1.2h-.17Z"/><path class="cls-1" d="M552.84,174.32c-4.76,0-8.99-1.02-12.68-3.05-3.7-2.03-6.59-4.84-8.69-8.43-2.09-3.58-3.14-7.7-3.14-12.34s.99-8.84,2.97-12.43c1.98-3.58,4.72-6.39,8.21-8.43,3.5-2.03,7.51-3.05,12.04-3.05s8.31,.99,11.52,2.97c3.21,1.98,5.66,4.7,7.35,8.17,1.69,3.47,2.54,7.47,2.54,12,0,1.09-.37,1.99-1.12,2.71-.75,.72-1.69,1.08-2.84,1.08h-34.66v-6.88h34.4l-3.53,2.41c-.06-2.87-.63-5.43-1.72-7.7-1.09-2.26-2.64-4.06-4.64-5.38-2.01-1.32-4.44-1.98-7.31-1.98-3.27,0-6.06,.72-8.38,2.15-2.32,1.43-4.08,3.4-5.29,5.89s-1.81,5.32-1.81,8.47,.72,5.96,2.15,8.43c1.43,2.47,3.41,4.42,5.93,5.85,2.52,1.43,5.42,2.15,8.69,2.15,1.78,0,3.6-.33,5.46-.99,1.86-.66,3.37-1.42,4.52-2.28,.86-.63,1.79-.96,2.79-.99,1-.03,1.88,.27,2.62,.9,.97,.86,1.49,1.81,1.55,2.84,.06,1.03-.4,1.92-1.38,2.67-1.95,1.55-4.37,2.81-7.27,3.78-2.9,.98-5.66,1.46-8.3,1.46Z"/><path class="cls-1" d="M589.39,173.98c-1.26,0-2.31-.43-3.14-1.29s-1.25-1.92-1.25-3.18v-58.22c0-1.26,.43-2.32,1.29-3.18,.86-.86,1.89-1.29,3.1-1.29s2.32,.43,3.18,1.29,1.29,1.92,1.29,3.18v53.75h31.13c1.26,0,2.32,.43,3.18,1.29,.86,.86,1.29,1.92,1.29,3.18s-.43,2.32-1.29,3.18c-.86,.86-1.92,1.29-3.18,1.29h-35.6Z"/><path class="cls-1" d="M658.97,174.32c-4.19,0-7.94-1.04-11.27-3.14-3.33-2.09-5.95-4.93-7.87-8.51-1.92-3.58-2.88-7.64-2.88-12.17s1.04-8.6,3.14-12.21c2.09-3.61,4.93-6.46,8.51-8.56,3.58-2.09,7.61-3.14,12.08-3.14s8.48,1.05,12.04,3.14c3.55,2.09,6.38,4.95,8.47,8.56,2.09,3.61,3.14,7.68,3.14,12.21h-3.35c0,4.53-.96,8.59-2.88,12.17-1.92,3.58-4.54,6.42-7.87,8.51-3.33,2.09-7.08,3.14-11.27,3.14Zm1.72-7.74c2.92,0,5.53-.7,7.83-2.11,2.29-1.4,4.1-3.32,5.42-5.76,1.32-2.44,1.98-5.17,1.98-8.21s-.66-5.86-1.98-8.3c-1.32-2.44-3.12-4.36-5.42-5.76-2.29-1.4-4.9-2.11-7.83-2.11s-5.46,.7-7.78,2.11c-2.32,1.41-4.16,3.33-5.5,5.76-1.35,2.44-2.02,5.2-2.02,8.3s.67,5.78,2.02,8.21c1.35,2.44,3.18,4.36,5.5,5.76,2.32,1.41,4.92,2.11,7.78,2.11Zm19.26,7.48c-1.26,0-2.31-.42-3.14-1.25-.83-.83-1.25-1.88-1.25-3.14v-13.16l1.63-9.12,7.14,3.1v19.18c0,1.26-.42,2.31-1.25,3.14-.83,.83-1.88,1.25-3.14,1.25Z"/><path class="cls-1" d="M721.06,174.32c-4.47,0-8.49-1.04-12.04-3.14-3.55-2.09-6.36-4.95-8.43-8.56-2.06-3.61-3.12-7.68-3.18-12.21v-39.22c0-1.32,.42-2.38,1.25-3.18,.83-.8,1.88-1.2,3.14-1.2s2.38,.4,3.18,1.2c.8,.8,1.2,1.86,1.2,3.18v23.22c2.01-2.41,4.43-4.31,7.27-5.72,2.84-1.4,5.95-2.11,9.33-2.11,4.18,0,7.94,1.05,11.27,3.14,3.32,2.09,5.95,4.93,7.87,8.51,1.92,3.58,2.88,7.64,2.88,12.17s-1.05,8.6-3.14,12.21c-2.09,3.61-4.92,6.46-8.47,8.56-3.56,2.09-7.6,3.14-12.13,3.14Zm0-7.74c2.92,0,5.53-.7,7.83-2.11,2.29-1.4,4.11-3.34,5.46-5.8,1.35-2.46,2.02-5.22,2.02-8.26s-.67-5.85-2.02-8.26c-1.35-2.41-3.17-4.31-5.46-5.72-2.29-1.4-4.9-2.11-7.83-2.11s-5.46,.7-7.78,2.11c-2.32,1.41-4.14,3.31-5.46,5.72-1.32,2.41-1.98,5.16-1.98,8.26s.66,5.79,1.98,8.26c1.32,2.47,3.14,4.4,5.46,5.8,2.32,1.41,4.92,2.11,7.78,2.11Z"/><path class="cls-1" d="M774.98,174.32c-4.01,0-7.73-.62-11.14-1.85-3.41-1.23-6.06-2.79-7.96-4.69-.86-.92-1.22-1.96-1.08-3.14,.14-1.17,.7-2.13,1.68-2.88,1.15-.92,2.28-1.3,3.4-1.16,1.12,.14,2.08,.65,2.88,1.5,.97,1.09,2.54,2.11,4.69,3.05,2.15,.95,4.54,1.42,7.18,1.42,3.32,0,5.86-.54,7.61-1.63,1.75-1.09,2.65-2.49,2.71-4.21,.06-1.72-.76-3.21-2.45-4.47-1.69-1.26-4.77-2.29-9.25-3.1-5.79-1.15-9.99-2.87-12.6-5.16-2.61-2.29-3.91-5.1-3.91-8.43,0-2.92,.86-5.34,2.58-7.27,1.72-1.92,3.93-3.35,6.62-4.3,2.69-.95,5.5-1.42,8.43-1.42,3.78,0,7.14,.6,10.06,1.81,2.92,1.2,5.25,2.87,6.97,4.99,.8,.92,1.17,1.88,1.12,2.88-.06,1-.55,1.85-1.46,2.54-.92,.63-2.01,.83-3.27,.6-1.26-.23-2.32-.74-3.18-1.55-1.43-1.38-2.98-2.32-4.64-2.84-1.66-.52-3.58-.77-5.76-.77-2.52,0-4.66,.43-6.41,1.29-1.75,.86-2.62,2.12-2.62,3.78,0,1.03,.27,1.96,.82,2.79,.54,.83,1.62,1.58,3.22,2.24,1.6,.66,3.96,1.3,7.05,1.93,4.3,.86,7.7,1.95,10.19,3.27,2.49,1.32,4.29,2.85,5.38,4.6,1.09,1.75,1.63,3.77,1.63,6.06,0,2.64-.7,5.02-2.11,7.14-1.41,2.12-3.47,3.81-6.19,5.07-2.72,1.26-6.12,1.89-10.19,1.89Z"/></g><g><path class="cls-2" d="M226.35,28.2c4.03,1.79,7.75,4.24,10.95,7.3,10.26,9.83,14.45,25.6,10.22,39.16-5.6,17.93-23.37,28.98-40.54,36.62-17.17,7.64-35.88,14.04-48.18,28.24-4.79,5.53-8.49,12.48-8.2,19.78s5.56,14.69,12.82,15.54c6.96,.81,13.08-4.1,19.41-7.1,14.77-7.01,34.14-2.86,44.41,9.87s10.07,32.88-.77,45.12-31.19,14.76-44.45,5.18c-7.3-5.28-12.83-13.77-21.63-15.7-10.12-2.21-19.53,5.22-27.47,11.85-13.46,11.24-28.43,21.95-45.77,24.57-20.63,3.13-42.67-6.75-54.06-24.24-20.02-30.72-3-76.04,32.8-85,11.85-2.96,24.45-1.76,36.27-4.85,19.36-5.07,34.13-21.09,43.74-38.64,7.15-13.06,12.07-27.27,19.52-40.17,7.44-12.9,18.11-24.85,32.31-29.34,9.33-2.95,19.72-2.19,28.64,1.79Z"/><path class="cls-2" d="M46.22,29.59C55.22,5.48,81.19-6.04,105.8,3.16c22.82,8.54,34.6,35.35,25.88,58.88-8.77,23.66-35.44,35.8-59.22,26.82-23.15-8.74-36.22-35.82-26.24-59.27Z"/><path class="cls-2" d="M181.15,245.15c21.58,8.37,32.43,32.75,24.09,54.15-8.16,20.93-32.56,31.82-53.54,23.9-21.13-7.98-32.42-32.93-24.33-53.8,8.26-21.3,32.83-32.38,53.78-24.25Z"/><path class="cls-2" d="M23.51,91.17c9.58,3.61,13.9,13.06,10.35,22.59-3.4,9.11-13.37,13.84-22.31,10.58-8.94-3.26-13.88-14.1-10.44-22.91,3.55-9.1,13.46-13.64,22.41-10.26Z"/></g></g></g></svg>