<svg xmlns="http://www.w3.org/2000/svg" viewBox="0 0 7.19 7.23"><defs><style>.cls-1{fill:#f2af13;}</style></defs><g id="Layer_2" data-name="Layer 2"><g id="Layer_1-2" data-name="Layer 1"><path class="cls-1" d="M5.37,7.23,5,7.16a5.29,5.29,0,0,1-1.39-.57A7.11,7.11,0,0,1,1.75,5.15,7.26,7.26,0,0,1,.22,2.78a3.21,3.21,0,0,1-.22-1A1.2,1.2,0,0,1,.34.83C.54.62.73.41,1,.22a.7.7,0,0,1,1,0c.34.32.67.66,1,1a.67.67,0,0,1,0,.92c-.17.2-.36.37-.54.55l-.06.06A5.23,5.23,0,0,0,4.44,4.83l.42-.44a1.08,1.08,0,0,1,.39-.28A.66.66,0,0,1,6,4.23c.35.35.71.7,1,1.06a.7.7,0,0,1,0,.92,9.49,9.49,0,0,1-.7.72,1,1,0,0,1-.62.28l0,0Z"/></g></g></svg>