<svg width="14" height="13" viewBox="0 0 14 13" fill="none" xmlns="http://www.w3.org/2000/svg">
<path fill-rule="evenodd" clip-rule="evenodd" d="M13.1346 6.61187C13.1346 3.23437 10.3998 0.499512 7.00737 0.499512C3.62988 0.499512 0.89502 3.23437 0.89502 6.61187C0.89502 10.0043 3.62988 12.7391 7.00737 12.7391C10.3998 12.7391 13.1346 10.0043 13.1346 6.61187ZM10.1159 7.12L4.82541 4.05625L4.61614 4.17581V3.62289L5.37833 3.18953L10.6688 6.23836V6.98563L10.1159 7.31445L10.1159 7.12ZM5.3783 11.0355L11.5356 7.4785V5.74489L5.3783 2.20284L3.74932 3.12942V10.1086C4.30224 10.4225 4.82532 10.7214 5.3783 11.0352V11.0355ZM12.2827 6.61187C12.2827 3.71245 9.92148 1.35123 7.00715 1.35123C4.10773 1.35123 1.74651 3.71245 1.74651 6.61187C1.74651 9.5262 4.10773 11.8874 7.00715 11.8874C9.92148 11.8874 12.2827 9.5262 12.2827 6.61187V6.61187Z" fill="#8D9CB5"/>
</svg>
