<svg width="222" height="34" viewBox="0 0 222 34" fill="none" xmlns="http://www.w3.org/2000/svg">
<path d="M0.732308 21.6769C0.732308 20.1774 1.01128 18.861 1.56923 17.7277C2.14462 16.5944 2.92051 15.7226 3.89692 15.1123C4.87333 14.502 5.96308 14.1969 7.16616 14.1969C8.19487 14.1969 9.09282 14.4062 9.86 14.8246C10.6446 15.2431 11.2462 15.7923 11.6646 16.4723V14.4062H16.1369V29H11.6646V26.9338C11.2287 27.6138 10.6185 28.1631 9.83385 28.5815C9.06667 29 8.16872 29.2092 7.14 29.2092C5.95436 29.2092 4.87333 28.9041 3.89692 28.2938C2.92051 27.6662 2.14462 26.7856 1.56923 25.6523C1.01128 24.5015 0.732308 23.1764 0.732308 21.6769ZM11.6646 21.7031C11.6646 20.5872 11.3508 19.7067 10.7231 19.0615C10.1128 18.4164 9.36308 18.0938 8.47385 18.0938C7.58462 18.0938 6.82615 18.4164 6.19846 19.0615C5.58821 19.6892 5.28308 20.561 5.28308 21.6769C5.28308 22.7928 5.58821 23.6821 6.19846 24.3446C6.82615 24.9897 7.58462 25.3123 8.47385 25.3123C9.36308 25.3123 10.1128 24.9897 10.7231 24.3446C11.3508 23.6995 11.6646 22.819 11.6646 21.7031ZM25.3094 29.2092C24.0365 29.2092 22.9032 28.9913 21.9094 28.5554C20.9155 28.1195 20.1309 27.5267 19.5555 26.7769C18.9801 26.0097 18.6576 25.1554 18.5878 24.2138H23.0078C23.0601 24.7195 23.2955 25.1292 23.714 25.4431C24.1324 25.7569 24.6468 25.9138 25.2571 25.9138C25.815 25.9138 26.2422 25.8092 26.5386 25.6C26.8524 25.3733 27.0094 25.0856 27.0094 24.7369C27.0094 24.3185 26.7914 24.0133 26.3555 23.8215C25.9196 23.6123 25.2135 23.3856 24.2371 23.1415C23.1909 22.8974 22.3191 22.6446 21.6217 22.3831C20.9242 22.1041 20.3227 21.6769 19.8171 21.1015C19.3114 20.5087 19.0586 19.7154 19.0586 18.7215C19.0586 17.8846 19.2853 17.1262 19.7386 16.4462C20.2094 15.7487 20.8894 15.1995 21.7786 14.7985C22.6853 14.3974 23.7576 14.1969 24.9955 14.1969C26.8263 14.1969 28.2648 14.6503 29.3109 15.5569C30.3745 16.4636 30.9848 17.6667 31.1417 19.1662H27.0094C26.9396 18.6605 26.713 18.2595 26.3294 17.9631C25.9632 17.6667 25.475 17.5185 24.8648 17.5185C24.3417 17.5185 23.9406 17.6231 23.6617 17.8323C23.3827 18.0241 23.2432 18.2944 23.2432 18.6431C23.2432 19.0615 23.4612 19.3754 23.8971 19.5846C24.3504 19.7938 25.0478 20.0031 25.9894 20.2123C27.0704 20.4913 27.9509 20.7703 28.6309 21.0492C29.3109 21.3108 29.9037 21.7467 30.4094 22.3569C30.9324 22.9497 31.2027 23.7518 31.2201 24.7631C31.2201 25.6174 30.976 26.3846 30.4878 27.0646C30.0171 27.7272 29.3283 28.2503 28.4217 28.6338C27.5324 29.0174 26.495 29.2092 25.3094 29.2092ZM39.8932 29.2092C38.6204 29.2092 37.487 28.9913 36.4932 28.5554C35.4994 28.1195 34.7147 27.5267 34.1394 26.7769C33.564 26.0097 33.2414 25.1554 33.1717 24.2138H37.5917C37.644 24.7195 37.8794 25.1292 38.2978 25.4431C38.7163 25.7569 39.2306 25.9138 39.8409 25.9138C40.3988 25.9138 40.826 25.8092 41.1224 25.6C41.4363 25.3733 41.5932 25.0856 41.5932 24.7369C41.5932 24.3185 41.3753 24.0133 40.9394 23.8215C40.5035 23.6123 39.7973 23.3856 38.8209 23.1415C37.7747 22.8974 36.9029 22.6446 36.2055 22.3831C35.5081 22.1041 34.9065 21.6769 34.4009 21.1015C33.8953 20.5087 33.6424 19.7154 33.6424 18.7215C33.6424 17.8846 33.8691 17.1262 34.3224 16.4462C34.7932 15.7487 35.4732 15.1995 36.3624 14.7985C37.2691 14.3974 38.3414 14.1969 39.5794 14.1969C41.4101 14.1969 42.8486 14.6503 43.8947 15.5569C44.9583 16.4636 45.5686 17.6667 45.7255 19.1662H41.5932C41.5235 18.6605 41.2968 18.2595 40.9132 17.9631C40.547 17.6667 40.0588 17.5185 39.4486 17.5185C38.9255 17.5185 38.5245 17.6231 38.2455 17.8323C37.9665 18.0241 37.827 18.2944 37.827 18.6431C37.827 19.0615 38.045 19.3754 38.4809 19.5846C38.9342 19.7938 39.6317 20.0031 40.5732 20.2123C41.6542 20.4913 42.5347 20.7703 43.2147 21.0492C43.8947 21.3108 44.4876 21.7467 44.9932 22.3569C45.5163 22.9497 45.7865 23.7518 45.804 24.7631C45.804 25.6174 45.5599 26.3846 45.0717 27.0646C44.6009 27.7272 43.9122 28.2503 43.0055 28.6338C42.1163 29.0174 41.0788 29.2092 39.8932 29.2092ZM62.297 21.4677C62.297 21.8862 62.2709 22.3221 62.2186 22.7754H52.097C52.1668 23.6821 52.4545 24.3795 52.9601 24.8677C53.4832 25.3385 54.1196 25.5738 54.8693 25.5738C55.9852 25.5738 56.7611 25.1031 57.197 24.1615H61.957C61.7129 25.1205 61.2683 25.9836 60.6232 26.7508C59.9955 27.5179 59.2022 28.1195 58.2432 28.5554C57.2842 28.9913 56.2119 29.2092 55.0263 29.2092C53.5965 29.2092 52.3237 28.9041 51.2078 28.2938C50.0919 27.6836 49.2201 26.8118 48.5924 25.6785C47.9647 24.5451 47.6509 23.22 47.6509 21.7031C47.6509 20.1862 47.956 18.861 48.5663 17.7277C49.194 16.5944 50.0658 15.7226 51.1817 15.1123C52.2976 14.502 53.5791 14.1969 55.0263 14.1969C56.4386 14.1969 57.694 14.4933 58.7924 15.0862C59.8909 15.679 60.7452 16.5246 61.3555 17.6231C61.9832 18.7215 62.297 20.0031 62.297 21.4677ZM57.7201 20.2908C57.7201 19.5236 57.4586 18.9133 56.9355 18.46C56.4124 18.0067 55.7586 17.78 54.974 17.78C54.2242 17.78 53.5878 17.9979 53.0647 18.4338C52.5591 18.8697 52.2452 19.4887 52.1232 20.2908H57.7201ZM72.7902 25.2077V29H70.5149C68.8933 29 67.6292 28.6077 66.7226 27.8231C65.8159 27.021 65.3626 25.7221 65.3626 23.9262V18.12H63.5841V14.4062H65.3626V10.8492H69.8349V14.4062H72.7641V18.12H69.8349V23.9785C69.8349 24.4144 69.9395 24.7282 70.1487 24.92C70.3579 25.1118 70.7067 25.2077 71.1949 25.2077H72.7902Z" fill="#EFCB30"/>
<path d="M96.0737 10.64V29H91.6014V17.9892L87.4953 29H83.886L79.7537 17.9631V29H75.2814V10.64H80.5645L85.7168 23.3508L90.8168 10.64H96.0737ZM98.4006 21.6769C98.4006 20.1774 98.6796 18.861 99.2375 17.7277C99.8129 16.5944 100.589 15.7226 101.565 15.1123C102.542 14.502 103.631 14.1969 104.834 14.1969C105.863 14.1969 106.761 14.4062 107.528 14.8246C108.313 15.2431 108.914 15.7923 109.333 16.4723V14.4062H113.805V29H109.333V26.9338C108.897 27.6138 108.287 28.1631 107.502 28.5815C106.735 29 105.837 29.2092 104.808 29.2092C103.623 29.2092 102.542 28.9041 101.565 28.2938C100.589 27.6662 99.8129 26.7856 99.2375 25.6523C98.6796 24.5015 98.4006 23.1764 98.4006 21.6769ZM109.333 21.7031C109.333 20.5872 109.019 19.7067 108.391 19.0615C107.781 18.4164 107.031 18.0938 106.142 18.0938C105.253 18.0938 104.494 18.4164 103.867 19.0615C103.256 19.6892 102.951 20.561 102.951 21.6769C102.951 22.7928 103.256 23.6821 103.867 24.3446C104.494 24.9897 105.253 25.3123 106.142 25.3123C107.031 25.3123 107.781 24.9897 108.391 24.3446C109.019 23.6995 109.333 22.819 109.333 21.7031ZM125.933 14.2492C127.642 14.2492 129.002 14.8072 130.013 15.9231C131.042 17.0215 131.556 18.5385 131.556 20.4738V29H127.11V21.0754C127.11 20.099 126.857 19.3405 126.351 18.8C125.846 18.2595 125.166 17.9892 124.311 17.9892C123.457 17.9892 122.777 18.2595 122.271 18.8C121.766 19.3405 121.513 20.099 121.513 21.0754V29H117.041V14.4062H121.513V16.3415C121.966 15.6964 122.577 15.1908 123.344 14.8246C124.111 14.441 124.974 14.2492 125.933 14.2492ZM142.798 25.2077V29H140.522C138.901 29 137.637 28.6077 136.73 27.8231C135.823 27.021 135.37 25.7221 135.37 23.9262V18.12H133.592V14.4062H135.37V10.8492H139.842V14.4062H142.772V18.12H139.842V23.9785C139.842 24.4144 139.947 24.7282 140.156 24.92C140.365 25.1118 140.714 25.2077 141.202 25.2077H142.798ZM149.761 9.64615V29H145.289V9.64615H149.761ZM166.759 21.4677C166.759 21.8862 166.733 22.3221 166.681 22.7754H156.559C156.629 23.6821 156.917 24.3795 157.422 24.8677C157.945 25.3385 158.582 25.5738 159.331 25.5738C160.447 25.5738 161.223 25.1031 161.659 24.1615H166.419C166.175 25.1205 165.73 25.9836 165.085 26.7508C164.458 27.5179 163.664 28.1195 162.705 28.5554C161.746 28.9913 160.674 29.2092 159.488 29.2092C158.059 29.2092 156.786 28.9041 155.67 28.2938C154.554 27.6836 153.682 26.8118 153.055 25.6785C152.427 24.5451 152.113 23.22 152.113 21.7031C152.113 20.1862 152.418 18.861 153.028 17.7277C153.656 16.5944 154.528 15.7226 155.644 15.1123C156.76 14.502 158.041 14.1969 159.488 14.1969C160.901 14.1969 162.156 14.4933 163.255 15.0862C164.353 15.679 165.207 16.5246 165.818 17.6231C166.445 18.7215 166.759 20.0031 166.759 21.4677ZM162.182 20.2908C162.182 19.5236 161.921 18.9133 161.398 18.46C160.875 18.0067 160.221 17.78 159.436 17.78C158.686 17.78 158.05 17.9979 157.527 18.4338C157.021 18.8697 156.707 19.4887 156.585 20.2908H162.182Z" fill="white"/>
<path d="M0 28.334H165.278L170 31.734H4.72222L0 28.334Z" fill="#EFCB30"/>
<path d="M183.392 17C184.712 17 185.87 17.258 186.866 17.774C187.874 18.29 188.648 19.028 189.188 19.988C189.74 20.936 190.016 22.04 190.016 23.3C190.016 24.56 189.74 25.664 189.188 26.612C188.648 27.548 187.874 28.274 186.866 28.79C185.87 29.306 184.712 29.564 183.392 29.564H179V17H183.392ZM183.302 27.422C184.622 27.422 185.642 27.062 186.362 26.342C187.082 25.622 187.442 24.608 187.442 23.3C187.442 21.992 187.082 20.972 186.362 20.24C185.642 19.496 184.622 19.124 183.302 19.124H181.52V27.422H183.302ZM196.33 29.726C195.37 29.726 194.506 29.516 193.738 29.096C192.97 28.664 192.364 28.058 191.92 27.278C191.488 26.498 191.272 25.598 191.272 24.578C191.272 23.558 191.494 22.658 191.938 21.878C192.394 21.098 193.012 20.498 193.792 20.078C194.572 19.646 195.442 19.43 196.402 19.43C197.362 19.43 198.232 19.646 199.012 20.078C199.792 20.498 200.404 21.098 200.848 21.878C201.304 22.658 201.532 23.558 201.532 24.578C201.532 25.598 201.298 26.498 200.83 27.278C200.374 28.058 199.75 28.664 198.958 29.096C198.178 29.516 197.302 29.726 196.33 29.726ZM196.33 27.53C196.786 27.53 197.212 27.422 197.608 27.206C198.016 26.978 198.34 26.642 198.58 26.198C198.82 25.754 198.94 25.214 198.94 24.578C198.94 23.63 198.688 22.904 198.184 22.4C197.692 21.884 197.086 21.626 196.366 21.626C195.646 21.626 195.04 21.884 194.548 22.4C194.068 22.904 193.828 23.63 193.828 24.578C193.828 25.526 194.062 26.258 194.53 26.774C195.01 27.278 195.61 27.53 196.33 27.53ZM202.733 24.578C202.733 23.546 202.943 22.646 203.363 21.878C203.783 21.098 204.365 20.498 205.109 20.078C205.853 19.646 206.705 19.43 207.665 19.43C208.901 19.43 209.921 19.742 210.725 20.366C211.541 20.978 212.087 21.842 212.363 22.958H209.645C209.501 22.526 209.255 22.19 208.907 21.95C208.571 21.698 208.151 21.572 207.647 21.572C206.927 21.572 206.357 21.836 205.937 22.364C205.517 22.88 205.307 23.618 205.307 24.578C205.307 25.526 205.517 26.264 205.937 26.792C206.357 27.308 206.927 27.566 207.647 27.566C208.667 27.566 209.333 27.11 209.645 26.198H212.363C212.087 27.278 211.541 28.136 210.725 28.772C209.909 29.408 208.889 29.726 207.665 29.726C206.705 29.726 205.853 29.516 205.109 29.096C204.365 28.664 203.783 28.064 203.363 27.296C202.943 26.516 202.733 25.61 202.733 24.578ZM218.025 29.726C217.209 29.726 216.477 29.582 215.829 29.294C215.181 28.994 214.665 28.592 214.281 28.088C213.909 27.584 213.705 27.026 213.669 26.414H216.207C216.255 26.798 216.441 27.116 216.765 27.368C217.101 27.62 217.515 27.746 218.007 27.746C218.487 27.746 218.859 27.65 219.123 27.458C219.399 27.266 219.537 27.02 219.537 26.72C219.537 26.396 219.369 26.156 219.033 26C218.709 25.832 218.187 25.652 217.467 25.46C216.723 25.28 216.111 25.094 215.631 24.902C215.163 24.71 214.755 24.416 214.407 24.02C214.071 23.624 213.903 23.09 213.903 22.418C213.903 21.866 214.059 21.362 214.371 20.906C214.695 20.45 215.151 20.09 215.739 19.826C216.339 19.562 217.041 19.43 217.845 19.43C219.033 19.43 219.981 19.73 220.689 20.33C221.397 20.918 221.787 21.716 221.859 22.724H219.447C219.411 22.328 219.243 22.016 218.943 21.788C218.655 21.548 218.265 21.428 217.773 21.428C217.317 21.428 216.963 21.512 216.711 21.68C216.471 21.848 216.351 22.082 216.351 22.382C216.351 22.718 216.519 22.976 216.855 23.156C217.191 23.324 217.713 23.498 218.421 23.678C219.141 23.858 219.735 24.044 220.203 24.236C220.671 24.428 221.073 24.728 221.409 25.136C221.757 25.532 221.937 26.06 221.949 26.72C221.949 27.296 221.787 27.812 221.463 28.268C221.151 28.724 220.695 29.084 220.095 29.348C219.507 29.6 218.817 29.726 218.025 29.726Z" fill="#8D9CB5"/>
</svg>
