<svg width="160" height="30" viewBox="0 0 160 30" fill="none" xmlns="http://www.w3.org/2000/svg">
<rect width="25.9328" height="25.9317" rx="12.9659" fill="#252525"/>
<path d="M19.28 14.7051C19.28 15.6649 19.0597 16.5461 18.6191 17.3485C18.1786 18.1353 17.502 18.7725 16.5894 19.2603C15.6768 19.7481 14.5439 19.992 13.1907 19.992H10.6889V25.9396H6.65295V9.37109H13.1907C14.5124 9.37109 15.6296 9.59925 16.5422 10.0555C17.4548 10.5119 18.1392 11.1412 18.5955 11.9437C19.0518 12.7462 19.28 13.6666 19.28 14.7051ZM12.8839 16.7821C13.6549 16.7821 14.2292 16.6011 14.6068 16.2393C14.9844 15.8774 15.1732 15.366 15.1732 14.7051C15.1732 14.0443 14.9844 13.5329 14.6068 13.171C14.2292 12.8091 13.6549 12.6282 12.8839 12.6282H10.6889V16.7821H12.8839Z" fill="white"/>
<path d="M19.363 5.17383H6.65289V7.84028H19.363V5.17383Z" fill="#E50913"/>
<path d="M36.9044 23.1681C35.6724 23.1681 34.5684 22.9681 33.5924 22.5681C32.6164 22.1681 31.8324 21.5761 31.2404 20.7921C30.6644 20.0081 30.3604 19.0641 30.3284 17.9601H34.6964C34.7604 18.5841 34.9764 19.0641 35.3444 19.4001C35.7124 19.7201 36.1924 19.8801 36.7844 19.8801C37.3924 19.8801 37.8724 19.7441 38.2244 19.4721C38.5764 19.1841 38.7524 18.7921 38.7524 18.2961C38.7524 17.8801 38.6084 17.5361 38.3204 17.2641C38.0484 16.9921 37.7044 16.7681 37.2884 16.5921C36.8884 16.4161 36.3124 16.2161 35.5604 15.9921C34.4724 15.6561 33.5844 15.3201 32.8964 14.9841C32.2084 14.6481 31.6164 14.1521 31.1204 13.4961C30.6244 12.8401 30.3764 11.9841 30.3764 10.9281C30.3764 9.36011 30.9444 8.13611 32.0804 7.25611C33.2164 6.36011 34.6964 5.91211 36.5204 5.91211C38.3764 5.91211 39.8724 6.36011 41.0084 7.25611C42.1444 8.13611 42.7524 9.36811 42.8324 10.9521H38.3924C38.3604 10.4081 38.1604 9.98411 37.7924 9.68011C37.4244 9.36011 36.9524 9.20011 36.3764 9.20011C35.8804 9.20011 35.4804 9.33611 35.1764 9.60811C34.8724 9.86411 34.7204 10.2401 34.7204 10.7361C34.7204 11.2801 34.9764 11.7041 35.4884 12.0081C36.0004 12.3121 36.8004 12.6401 37.8884 12.9921C38.9764 13.3601 39.8564 13.7121 40.5284 14.0481C41.2164 14.3841 41.8084 14.8721 42.3044 15.5121C42.8004 16.1521 43.0484 16.9761 43.0484 17.9841C43.0484 18.9441 42.8004 19.8161 42.3044 20.6001C41.8244 21.3841 41.1204 22.0081 40.1924 22.4721C39.2644 22.9361 38.1684 23.1681 36.9044 23.1681Z" fill="#252525"/>
<path d="M57.694 6.15211V9.44011H53.23V23.0001H49.126V9.44011H44.662V6.15211H57.694Z" fill="#252525"/>
<path d="M70.2417 20.0241H63.9537L62.9457 23.0001H58.6497L64.7457 6.15211H69.4977L75.5937 23.0001H71.2497L70.2417 20.0241ZM69.1857 16.8561L67.0977 10.6881L65.0337 16.8561H69.1857Z" fill="#252525"/>
<path d="M87.217 23.0001L81.553 15.5601V23.0001H77.449V6.15211H81.553V13.5441L87.169 6.15211H91.993L85.465 14.4081L92.233 23.0001H87.217Z" fill="#252525"/>
<path d="M98.2874 9.44011V12.8481H103.783V16.0161H98.2874V19.7121H104.503V23.0001H94.1834V6.15211H104.503V9.44011H98.2874Z" fill="#252525"/>
<path d="M119.634 10.436C120.954 10.436 122.112 10.694 123.108 11.21C124.116 11.726 124.89 12.464 125.43 13.424C125.982 14.372 126.258 15.476 126.258 16.736C126.258 17.996 125.982 19.1 125.43 20.048C124.89 20.984 124.116 21.71 123.108 22.226C122.112 22.742 120.954 23 119.634 23H115.242V10.436H119.634ZM119.544 20.858C120.864 20.858 121.884 20.498 122.604 19.778C123.324 19.058 123.684 18.044 123.684 16.736C123.684 15.428 123.324 14.408 122.604 13.676C121.884 12.932 120.864 12.56 119.544 12.56H117.762V20.858H119.544ZM132.572 23.162C131.612 23.162 130.748 22.952 129.98 22.532C129.212 22.1 128.606 21.494 128.162 20.714C127.73 19.934 127.514 19.034 127.514 18.014C127.514 16.994 127.736 16.094 128.18 15.314C128.636 14.534 129.254 13.934 130.034 13.514C130.814 13.082 131.684 12.866 132.644 12.866C133.604 12.866 134.474 13.082 135.254 13.514C136.034 13.934 136.646 14.534 137.09 15.314C137.546 16.094 137.774 16.994 137.774 18.014C137.774 19.034 137.54 19.934 137.072 20.714C136.616 21.494 135.992 22.1 135.2 22.532C134.42 22.952 133.544 23.162 132.572 23.162ZM132.572 20.966C133.028 20.966 133.454 20.858 133.85 20.642C134.258 20.414 134.582 20.078 134.822 19.634C135.062 19.19 135.182 18.65 135.182 18.014C135.182 17.066 134.93 16.34 134.426 15.836C133.934 15.32 133.328 15.062 132.608 15.062C131.888 15.062 131.282 15.32 130.79 15.836C130.31 16.34 130.07 17.066 130.07 18.014C130.07 18.962 130.304 19.694 130.772 20.21C131.252 20.714 131.852 20.966 132.572 20.966ZM138.975 18.014C138.975 16.982 139.185 16.082 139.605 15.314C140.025 14.534 140.607 13.934 141.351 13.514C142.095 13.082 142.947 12.866 143.907 12.866C145.143 12.866 146.163 13.178 146.967 13.802C147.783 14.414 148.329 15.278 148.605 16.394H145.887C145.743 15.962 145.497 15.626 145.149 15.386C144.813 15.134 144.393 15.008 143.889 15.008C143.169 15.008 142.599 15.272 142.179 15.8C141.759 16.316 141.549 17.054 141.549 18.014C141.549 18.962 141.759 19.7 142.179 20.228C142.599 20.744 143.169 21.002 143.889 21.002C144.909 21.002 145.575 20.546 145.887 19.634H148.605C148.329 20.714 147.783 21.572 146.967 22.208C146.151 22.844 145.131 23.162 143.907 23.162C142.947 23.162 142.095 22.952 141.351 22.532C140.607 22.1 140.025 21.5 139.605 20.732C139.185 19.952 138.975 19.046 138.975 18.014ZM154.267 23.162C153.451 23.162 152.719 23.018 152.071 22.73C151.423 22.43 150.907 22.028 150.523 21.524C150.151 21.02 149.947 20.462 149.911 19.85H152.449C152.497 20.234 152.683 20.552 153.007 20.804C153.343 21.056 153.757 21.182 154.249 21.182C154.729 21.182 155.101 21.086 155.365 20.894C155.641 20.702 155.779 20.456 155.779 20.156C155.779 19.832 155.611 19.592 155.275 19.436C154.951 19.268 154.429 19.088 153.709 18.896C152.965 18.716 152.353 18.53 151.873 18.338C151.405 18.146 150.997 17.852 150.649 17.456C150.313 17.06 150.145 16.526 150.145 15.854C150.145 15.302 150.301 14.798 150.613 14.342C150.937 13.886 151.393 13.526 151.981 13.262C152.581 12.998 153.283 12.866 154.087 12.866C155.275 12.866 156.223 13.166 156.931 13.766C157.639 14.354 158.029 15.152 158.101 16.16H155.689C155.653 15.764 155.485 15.452 155.185 15.224C154.897 14.984 154.507 14.864 154.015 14.864C153.559 14.864 153.205 14.948 152.953 15.116C152.713 15.284 152.593 15.518 152.593 15.818C152.593 16.154 152.761 16.412 153.097 16.592C153.433 16.76 153.955 16.934 154.663 17.114C155.383 17.294 155.977 17.48 156.445 17.672C156.913 17.864 157.315 18.164 157.651 18.572C157.999 18.968 158.179 19.496 158.191 20.156C158.191 20.732 158.029 21.248 157.705 21.704C157.393 22.16 156.937 22.52 156.337 22.784C155.749 23.036 155.059 23.162 154.267 23.162Z" fill="#8D9CB5"/>
</svg>
