<svg width="161" height="30" viewBox="0 0 161 30" fill="none" xmlns="http://www.w3.org/2000/svg">
<rect width="25.9328" height="25.9317" rx="12.9659" fill="white"/>
<path d="M19.2799 14.7051C19.2799 15.6649 19.0596 16.5461 18.619 17.3485C18.1784 18.1353 17.5019 18.7725 16.5892 19.2603C15.6766 19.7481 14.5437 19.992 13.1906 19.992H10.6888V25.9396H6.65283V9.37109H13.1906C14.5123 9.37109 15.6294 9.59925 16.542 10.0555C17.4546 10.5119 18.1391 11.1412 18.5954 11.9437C19.0517 12.7462 19.2799 13.6666 19.2799 14.7051ZM12.8837 16.7821C13.6547 16.7821 14.229 16.6011 14.6067 16.2393C14.9843 15.8774 15.1731 15.366 15.1731 14.7051C15.1731 14.0443 14.9843 13.5329 14.6067 13.171C14.229 12.8091 13.6547 12.6282 12.8837 12.6282H10.6888V16.7821H12.8837Z" fill="#1F1D2B"/>
<path d="M19.3629 5.17383H6.65283V7.84028H19.3629V5.17383Z" fill="#E50913"/>
<path d="M36.9041 23.1681C35.6721 23.1681 34.5681 22.9681 33.5921 22.5681C32.6161 22.1681 31.8321 21.5761 31.2401 20.7921C30.6641 20.0081 30.3601 19.0641 30.3281 17.9601H34.6961C34.7601 18.5841 34.9761 19.0641 35.3441 19.4001C35.7121 19.7201 36.1921 19.8801 36.7841 19.8801C37.3921 19.8801 37.8721 19.7441 38.2241 19.4721C38.5761 19.1841 38.7521 18.7921 38.7521 18.2961C38.7521 17.8801 38.6081 17.5361 38.3201 17.2641C38.0481 16.9921 37.7041 16.7681 37.2881 16.5921C36.8881 16.4161 36.3121 16.2161 35.5601 15.9921C34.4721 15.6561 33.5841 15.3201 32.8961 14.9841C32.2081 14.6481 31.6161 14.1521 31.1201 13.4961C30.6241 12.8401 30.3761 11.9841 30.3761 10.9281C30.3761 9.36011 30.9441 8.13611 32.0801 7.25611C33.2161 6.36011 34.6961 5.91211 36.5201 5.91211C38.3761 5.91211 39.8721 6.36011 41.0081 7.25611C42.1441 8.13611 42.7521 9.36811 42.8321 10.9521H38.3921C38.3601 10.4081 38.1601 9.98411 37.7921 9.68011C37.4241 9.36011 36.9521 9.20011 36.3761 9.20011C35.8801 9.20011 35.4801 9.33611 35.1761 9.60811C34.8721 9.86411 34.7201 10.2401 34.7201 10.7361C34.7201 11.2801 34.9761 11.7041 35.4881 12.0081C36.0001 12.3121 36.8001 12.6401 37.8881 12.9921C38.9761 13.3601 39.8561 13.7121 40.5281 14.0481C41.2161 14.3841 41.8081 14.8721 42.3041 15.5121C42.8001 16.1521 43.0481 16.9761 43.0481 17.9841C43.0481 18.9441 42.8001 19.8161 42.3041 20.6001C41.8241 21.3841 41.1201 22.0081 40.1921 22.4721C39.2641 22.9361 38.1681 23.1681 36.9041 23.1681Z" fill="white"/>
<path d="M57.6938 6.15211V9.44011H53.2298V23.0001H49.1258V9.44011H44.6617V6.15211H57.6938Z" fill="white"/>
<path d="M70.2414 20.0241H63.9534L62.9454 23.0001H58.6494L64.7454 6.15211H69.4974L75.5934 23.0001H71.2494L70.2414 20.0241ZM69.1854 16.8561L67.0974 10.6881L65.0334 16.8561H69.1854Z" fill="white"/>
<path d="M87.2168 23.0001L81.5527 15.5601V23.0001H77.4487V6.15211H81.5527V13.5441L87.1688 6.15211H91.9928L85.4648 14.4081L92.2327 23.0001H87.2168Z" fill="white"/>
<path d="M98.2871 9.44011V12.8481H103.783V16.0161H98.2871V19.7121H104.503V23.0001H94.1831V6.15211H104.503V9.44011H98.2871Z" fill="white"/>
<path d="M120.634 10.436C121.954 10.436 123.112 10.694 124.108 11.21C125.116 11.726 125.89 12.464 126.43 13.424C126.982 14.372 127.258 15.476 127.258 16.736C127.258 17.996 126.982 19.1 126.43 20.048C125.89 20.984 125.116 21.71 124.108 22.226C123.112 22.742 121.954 23 120.634 23H116.242V10.436H120.634ZM120.544 20.858C121.864 20.858 122.884 20.498 123.604 19.778C124.324 19.058 124.684 18.044 124.684 16.736C124.684 15.428 124.324 14.408 123.604 13.676C122.884 12.932 121.864 12.56 120.544 12.56H118.762V20.858H120.544ZM133.572 23.162C132.612 23.162 131.748 22.952 130.98 22.532C130.212 22.1 129.606 21.494 129.162 20.714C128.73 19.934 128.514 19.034 128.514 18.014C128.514 16.994 128.736 16.094 129.18 15.314C129.636 14.534 130.254 13.934 131.034 13.514C131.814 13.082 132.684 12.866 133.644 12.866C134.604 12.866 135.474 13.082 136.254 13.514C137.034 13.934 137.646 14.534 138.09 15.314C138.546 16.094 138.774 16.994 138.774 18.014C138.774 19.034 138.54 19.934 138.072 20.714C137.616 21.494 136.992 22.1 136.2 22.532C135.42 22.952 134.544 23.162 133.572 23.162ZM133.572 20.966C134.028 20.966 134.454 20.858 134.85 20.642C135.258 20.414 135.582 20.078 135.822 19.634C136.062 19.19 136.182 18.65 136.182 18.014C136.182 17.066 135.93 16.34 135.426 15.836C134.934 15.32 134.328 15.062 133.608 15.062C132.888 15.062 132.282 15.32 131.79 15.836C131.31 16.34 131.07 17.066 131.07 18.014C131.07 18.962 131.304 19.694 131.772 20.21C132.252 20.714 132.852 20.966 133.572 20.966ZM139.975 18.014C139.975 16.982 140.185 16.082 140.605 15.314C141.025 14.534 141.607 13.934 142.351 13.514C143.095 13.082 143.947 12.866 144.907 12.866C146.143 12.866 147.163 13.178 147.967 13.802C148.783 14.414 149.329 15.278 149.605 16.394H146.887C146.743 15.962 146.497 15.626 146.149 15.386C145.813 15.134 145.393 15.008 144.889 15.008C144.169 15.008 143.599 15.272 143.179 15.8C142.759 16.316 142.549 17.054 142.549 18.014C142.549 18.962 142.759 19.7 143.179 20.228C143.599 20.744 144.169 21.002 144.889 21.002C145.909 21.002 146.575 20.546 146.887 19.634H149.605C149.329 20.714 148.783 21.572 147.967 22.208C147.151 22.844 146.131 23.162 144.907 23.162C143.947 23.162 143.095 22.952 142.351 22.532C141.607 22.1 141.025 21.5 140.605 20.732C140.185 19.952 139.975 19.046 139.975 18.014ZM155.267 23.162C154.451 23.162 153.719 23.018 153.071 22.73C152.423 22.43 151.907 22.028 151.523 21.524C151.151 21.02 150.947 20.462 150.911 19.85H153.449C153.497 20.234 153.683 20.552 154.007 20.804C154.343 21.056 154.757 21.182 155.249 21.182C155.729 21.182 156.101 21.086 156.365 20.894C156.641 20.702 156.779 20.456 156.779 20.156C156.779 19.832 156.611 19.592 156.275 19.436C155.951 19.268 155.429 19.088 154.709 18.896C153.965 18.716 153.353 18.53 152.873 18.338C152.405 18.146 151.997 17.852 151.649 17.456C151.313 17.06 151.145 16.526 151.145 15.854C151.145 15.302 151.301 14.798 151.613 14.342C151.937 13.886 152.393 13.526 152.981 13.262C153.581 12.998 154.283 12.866 155.087 12.866C156.275 12.866 157.223 13.166 157.931 13.766C158.639 14.354 159.029 15.152 159.101 16.16H156.689C156.653 15.764 156.485 15.452 156.185 15.224C155.897 14.984 155.507 14.864 155.015 14.864C154.559 14.864 154.205 14.948 153.953 15.116C153.713 15.284 153.593 15.518 153.593 15.818C153.593 16.154 153.761 16.412 154.097 16.592C154.433 16.76 154.955 16.934 155.663 17.114C156.383 17.294 156.977 17.48 157.445 17.672C157.913 17.864 158.315 18.164 158.651 18.572C158.999 18.968 159.179 19.496 159.191 20.156C159.191 20.732 159.029 21.248 158.705 21.704C158.393 22.16 157.937 22.52 157.337 22.784C156.749 23.036 156.059 23.162 155.267 23.162Z" fill="#8D9CB5"/>
</svg>
