<svg xmlns="http://www.w3.org/2000/svg" viewBox="0 0 9.62 8.78"><defs><style>.cls-1{fill:none;stroke:#f2af13;stroke-miterlimit:10;stroke-width:0.49px;}.cls-2{fill:#f2af13;}</style></defs><g id="Layer_2" data-name="Layer 2"><g id="Layer_1-2" data-name="Layer 1"><path class="cls-1" d="M3,1.69a2,2,0,0,1,3.77,0"/><circle class="cls-2" cx="4.9" cy="6.32" r="0.69"/><path class="cls-2" d="M9.61,7.78,8.46,2.26a.89.89,0,0,0-.91-.68H2.2a.9.9,0,0,0-.9.66L0,7.77a.86.86,0,0,0,.9,1H8.7A.87.87,0,0,0,9.61,7.78ZM6,4.47l.31-.82a.16.16,0,0,1,.21-.1.17.17,0,0,1,.09.21l-.31.82a.15.15,0,0,1-.15.1h0A.15.15,0,0,1,6,4.47ZM4.74,3.4a.16.16,0,1,1,.32,0v.88a.16.16,0,0,1-.32,0Zm-1.48.18a.17.17,0,0,1,.21.1l.31.82a.15.15,0,0,1-.1.2H3.63a.15.15,0,0,1-.15-.1l-.31-.82A.17.17,0,0,1,3.26,3.58ZM2,4.42a.16.16,0,0,1,.22,0L2.82,5a.17.17,0,0,1,0,.23.16.16,0,0,1-.12,0,.15.15,0,0,1-.11,0L2,4.64A.16.16,0,0,1,2,4.42ZM7.24,6.51A3.6,3.6,0,0,1,4.9,7.7,3.6,3.6,0,0,1,2.56,6.51a.29.29,0,0,1,0-.39A3.6,3.6,0,0,1,4.9,4.93,3.6,3.6,0,0,1,7.24,6.12.27.27,0,0,1,7.24,6.51Zm.52-1.9-.62.63a.16.16,0,0,1-.12,0,.15.15,0,0,1-.11,0,.17.17,0,0,1,0-.23l.62-.62a.17.17,0,0,1,.23,0A.16.16,0,0,1,7.76,4.61Z"/></g></g></svg>