<svg xmlns="http://www.w3.org/2000/svg" viewBox="0 0 10.05 10.05"><defs><style>.cls-1{fill:#f2af13;}</style></defs><g id="Layer_2" data-name="Layer 2"><g id="Layer_1-2" data-name="Layer 1"><circle class="cls-1" cx="3.08" cy="4.05" r="0.39"/><path class="cls-1" d="M5,0a5,5,0,1,0,5,5A5,5,0,0,0,5,0ZM3.16,6.72h0A.57.57,0,0,1,2.69,7a.58.58,0,0,1-.58-.59V3.66a.58.58,0,0,1,.58-.58H4.63a.58.58,0,0,1,.59.58A.55.55,0,0,1,5.11,4h0L3.16,6.72Zm2.9.09a.49.49,0,0,1,0-1,.49.49,0,1,1,0,1Zm1.88-.43A.58.58,0,0,1,7.36,7a.59.59,0,0,1-.58-.48s0-.07,0-.11V5.94a.58.58,0,0,0-1-.34L5.41,6h0l-.49.69h0A.61.61,0,0,1,4.44,7a.58.58,0,0,1-.58-.59A.61.61,0,0,1,4,6.05H4L5.91,3.33h0a.58.58,0,0,1,.47-.24h1a.58.58,0,0,1,.58.58h0Z"/></g></g></svg>