<svg xmlns="http://www.w3.org/2000/svg" viewBox="0 0 9.44 7.79"><defs><style>.cls-1{fill:#f2af13;}.cls-2{fill:none;stroke:#f2af13;stroke-linecap:round;stroke-miterlimit:10;stroke-width:0.23px;}</style></defs><g id="Layer_2" data-name="Layer 2"><g id="Layer_1-2" data-name="Layer 1"><path class="cls-1" d="M9,2.08a2.59,2.59,0,0,0-1.69-.86,2.59,2.59,0,0,0-1.68.86.19.19,0,0,0,0,.28,2.54,2.54,0,0,0,1.68.86A2.54,2.54,0,0,0,9,2.36.19.19,0,0,0,9,2.08Zm-1.69.64a.5.5,0,1,1,.5-.5A.49.49,0,0,1,7.34,2.72Z"/><line class="cls-2" x1="7.34" y1="0.11" x2="7.34" y2="0.75"/><line class="cls-2" x1="6.2" y1="0.35" x2="6.42" y2="0.95"/><line class="cls-2" x1="5.31" y1="0.93" x2="5.76" y2="1.38"/><line class="cls-2" x1="8.44" y1="0.33" x2="8.21" y2="0.93"/><line class="cls-2" x1="9.33" y1="0.91" x2="8.88" y2="1.36"/><rect class="cls-1" y="5.78" width="4.27" height="2.01" rx="0.24"/><rect class="cls-1" y="0.66" width="4.27" height="2.01" rx="0.24"/><path class="cls-1" d="M2.34,3.22H5.56a.23.23,0,0,1,.2.25V5a.22.22,0,0,1-.2.24H2.34A.23.23,0,0,1,2.13,5V3.47A.24.24,0,0,1,2.34,3.22Z"/><path class="cls-1" d="M5,6a.25.25,0,0,1,.25-.24H8.42a.13.13,0,0,1,.12.12V7.67a.12.12,0,0,1-.12.12H5.27A.25.25,0,0,1,5,7.55Z"/><path class="cls-1" d="M1.63,5a.24.24,0,0,1-.24.24H.12A.12.12,0,0,1,0,5.11V3.34a.12.12,0,0,1,.12-.12H1.39a.25.25,0,0,1,.24.25Z"/></g></g></svg>