<svg xmlns="http://www.w3.org/2000/svg" viewBox="0 0 13.51 10.25"><defs><style>.cls-1{fill:#f2af13;}.cls-2{fill:none;stroke:#f2af13;stroke-linecap:round;stroke-miterlimit:10;stroke-width:0.73px;}</style></defs><g id="Layer_2" data-name="Layer 2"><g id="Layer_1-2" data-name="Layer 1"><path class="cls-1" d="M12.21,6.62c-.85-.88-2.93-2.73-5.37-2.73S2.32,5.74,1.47,6.62a.63.63,0,0,0,0,.9c.85.87,2.93,2.73,5.37,2.73s4.52-1.86,5.37-2.73A.63.63,0,0,0,12.21,6.62Zm-5.37,2a1.58,1.58,0,0,1,0-3.15,1.58,1.58,0,1,1,0,3.15Z"/><line class="cls-2" x1="6.84" y1="0.36" x2="6.84" y2="2.38"/><line class="cls-2" x1="3.2" y1="1.13" x2="3.91" y2="3.02"/><line class="cls-2" x1="0.36" y1="2.97" x2="1.79" y2="4.4"/><line class="cls-2" x1="10.31" y1="1.06" x2="9.6" y2="2.95"/><line class="cls-2" x1="13.15" y1="2.9" x2="11.72" y2="4.33"/></g></g></svg>