<svg xmlns="http://www.w3.org/2000/svg" viewBox="0 0 8.33 8.33"><defs><style>.cls-1{fill:#f2af13;}</style></defs><g id="Layer_2" data-name="Layer 2"><g id="Layer_1-2" data-name="Layer 1"><path class="cls-1" d="M4.49,8.33H3.84l0,0a.61.61,0,0,1-.52-.47,1.93,1.93,0,0,1,0-.42.26.26,0,0,0-.11-.24A1.94,1.94,0,0,0,2.77,7a.23.23,0,0,0-.25.09l-.16.15a.67.67,0,0,1-.95,0A4.31,4.31,0,0,1,1,6.92a.68.68,0,0,1,0-1l.17-.16a.23.23,0,0,0,.07-.19.66.66,0,0,0-.15-.41.25.25,0,0,0-.23-.11H.7A.67.67,0,0,1,0,4.46c0-.19,0-.4,0-.6a.64.64,0,0,1,.51-.59,1.8,1.8,0,0,1,.4,0,.23.23,0,0,0,.22-.1,1.73,1.73,0,0,0,.16-.37.24.24,0,0,0-.09-.26l-.15-.14a.67.67,0,0,1,0-1A4,4,0,0,1,1.45,1a.65.65,0,0,1,.8,0,2,2,0,0,1,.26.24.27.27,0,0,0,.31.08,1,1,0,0,0,.27-.11A.26.26,0,0,0,3.24.91V.71A.67.67,0,0,1,3.87,0h.59a.64.64,0,0,1,.6.51,2.73,2.73,0,0,1,0,.41.25.25,0,0,0,.09.2.69.69,0,0,0,.38.17.26.26,0,0,0,.26-.09A.93.93,0,0,1,6,1.07a.67.67,0,0,1,1,0,3.68,3.68,0,0,1,.39.4.63.63,0,0,1,.06.79,1.88,1.88,0,0,1-.27.3.25.25,0,0,0-.07.2.79.79,0,0,0,.15.41.27.27,0,0,0,.24.1h.2a.71.71,0,0,1,.49.19.78.78,0,0,1,.22.41v.65l0,0a.64.64,0,0,1-.48.52,3.11,3.11,0,0,1-.43,0,.25.25,0,0,0-.2.09A.72.72,0,0,0,7,5.57a.22.22,0,0,0,.09.24L7.27,6a.67.67,0,0,1,0,1,4.17,4.17,0,0,1-.43.41.63.63,0,0,1-.76,0,1.6,1.6,0,0,1-.27-.25.31.31,0,0,0-.36-.08l-.23.1a.27.27,0,0,0-.15.27v.2a.71.71,0,0,1-.19.5A.77.77,0,0,1,4.49,8.33Zm-.34-6A1.82,1.82,0,1,0,6,4.15,1.81,1.81,0,0,0,4.15,2.35Z"/><path class="cls-1" d="M4.49,8.33H3.84l0,0a.61.61,0,0,1-.52-.47,1.93,1.93,0,0,1,0-.42.26.26,0,0,0-.11-.24A1.94,1.94,0,0,0,2.77,7a.23.23,0,0,0-.25.09l-.16.15a.67.67,0,0,1-.95,0A4.31,4.31,0,0,1,1,6.92a.68.68,0,0,1,0-1l.17-.16a.23.23,0,0,0,.07-.19.66.66,0,0,0-.15-.41.25.25,0,0,0-.23-.11H.7A.67.67,0,0,1,0,4.46c0-.19,0-.4,0-.6a.64.64,0,0,1,.51-.59,1.8,1.8,0,0,1,.4,0,.23.23,0,0,0,.22-.1,1.73,1.73,0,0,0,.16-.37.24.24,0,0,0-.09-.26l-.15-.14a.67.67,0,0,1,0-1A4,4,0,0,1,1.45,1a.65.65,0,0,1,.8,0,2,2,0,0,1,.26.24.27.27,0,0,0,.31.08,1,1,0,0,0,.27-.11A.26.26,0,0,0,3.24.91V.71A.67.67,0,0,1,3.87,0h.59a.64.64,0,0,1,.6.51,2.73,2.73,0,0,1,0,.41.25.25,0,0,0,.09.2.69.69,0,0,0,.38.17.26.26,0,0,0,.26-.09A.93.93,0,0,1,6,1.07a.67.67,0,0,1,1,0,3.68,3.68,0,0,1,.39.4.63.63,0,0,1,.06.79,1.88,1.88,0,0,1-.27.3.25.25,0,0,0-.07.2.79.79,0,0,0,.15.41.27.27,0,0,0,.24.1h.2a.71.71,0,0,1,.49.19.78.78,0,0,1,.22.41v.65l0,0a.64.64,0,0,1-.48.52,3.11,3.11,0,0,1-.43,0,.25.25,0,0,0-.2.09A.72.72,0,0,0,7,5.57a.22.22,0,0,0,.09.24L7.27,6a.67.67,0,0,1,0,1,4.17,4.17,0,0,1-.43.41.63.63,0,0,1-.76,0,1.6,1.6,0,0,1-.27-.25.31.31,0,0,0-.36-.08l-.23.1a.27.27,0,0,0-.15.27v.2a.71.71,0,0,1-.19.5A.77.77,0,0,1,4.49,8.33Zm-.34-6A1.82,1.82,0,1,0,6,4.15,1.81,1.81,0,0,0,4.15,2.35Z"/></g></g></svg>