<svg xmlns="http://www.w3.org/2000/svg" viewBox="0 0 11.49 7.33"><defs><style>.cls-1{fill:#f2af13;}</style></defs><g id="Layer_2" data-name="Layer 2"><g id="Layer_1-2" data-name="Layer 1"><polygon class="cls-1" points="6.35 4.37 5.76 2.9 5.15 4.37 6.35 4.37"/><path class="cls-1" d="M10.09,0H1.41A1.41,1.41,0,0,0,0,1.41V5.93a1.41,1.41,0,0,0,1.41,1.4h8.68a1.4,1.4,0,0,0,1.4-1.4V1.41A1.4,1.4,0,0,0,10.09,0ZM8,6.14a.51.51,0,0,1-.72.15A.47.47,0,0,1,7,6.05l-.3-.74h-2l-.31.75a.49.49,0,0,1-.21.24A.53.53,0,0,1,4,6.38a.51.51,0,0,1-.44-.25.5.5,0,0,1,0-.5L5.26,1.46a.52.52,0,0,1,1,0L8,5.65A.5.5,0,0,1,8,6.14Z"/></g></g></svg>