<svg xmlns="http://www.w3.org/2000/svg" viewBox="0 0 10.45 9.21"><defs><style>.cls-1{fill:#f2af13;}</style></defs><g id="Layer_2" data-name="Layer 2"><g id="Layer_1-2" data-name="Layer 1"><path class="cls-1" d="M9.33,1a1.76,1.76,0,0,0-1.6-1H1.59a.12.12,0,0,0-.1.19c2.2,3.43.24,5.43-.18,7.53a1.22,1.22,0,0,0,.9,1.49c.52-.19.6-.82.6-1.17a.24.24,0,0,1,.24-.24H9C9,6,10.58,3.9,9.33,1Zm-5.6.38H8.36a.34.34,0,1,1,0,.68H3.73a.34.34,0,0,1,0-.68ZM8,6.68H5.67a.34.34,0,0,1,0-.68H8a.34.34,0,0,1,0,.68Zm.37-1.56H3.73a.34.34,0,1,1,0-.68H8.36a.34.34,0,1,1,0,.68Zm.25-1.5H4a.34.34,0,1,1,0-.68H8.61a.34.34,0,0,1,0,.68Z"/><path class="cls-1" d="M10.37,8H3.22a.22.22,0,0,0-.22.2,1.45,1.45,0,0,1-.42,1H9.4a1.28,1.28,0,0,0,1-1.15A.07.07,0,0,0,10.37,8Z"/><path class="cls-1" d="M2.21,1.44a2.17,2.17,0,0,1,.07.24A.9.9,0,0,0,2.21,1.44Z"/><path class="cls-1" d="M1,.13A1.72,1.72,0,0,0,0,1.61a.14.14,0,0,0,.15.16l1.63-.05a.1.1,0,0,0,.1-.13A5.19,5.19,0,0,0,1.16.18.17.17,0,0,0,1,.13Z"/></g></g></svg>