<svg xmlns="http://www.w3.org/2000/svg" viewBox="0 0 10.01 10.01"><defs><style>.cls-1{fill:#f2af13;}</style></defs><g id="Layer_2" data-name="Layer 2"><g id="Layer_1-2" data-name="Layer 1"><path class="cls-1" d="M5,0a5,5,0,1,0,5,5A5,5,0,0,0,5,0ZM5,8.23a.52.52,0,1,1,.52-.52A.52.52,0,0,1,5,8.23Zm.44-2.94V6.42a.45.45,0,1,1-.89,0V4.9A.45.45,0,0,1,5,4.46a.8.8,0,0,0,.79-.8A.79.79,0,0,0,5,2.87a.78.78,0,0,0-.69.4h0a.87.87,0,0,0-.1.39.45.45,0,1,1-.89,0,1.78,1.78,0,0,1,.22-.84h0A1.69,1.69,0,1,1,5.45,5.29Z"/></g></g></svg>