<svg width="378" height="126" viewBox="0 0 378 126" fill="none" xmlns="http://www.w3.org/2000/svg">
<path d="M108 0H18C8.05887 0 0 8.05887 0 18V108C0 117.941 8.05887 126 18 126H108C117.941 126 126 117.941 126 108V18C126 8.05887 117.941 0 108 0Z" fill="#7F7F7F"/>
<path d="M57 33H27C24.6131 33 22.3239 33.9482 20.636 35.636C18.9482 37.3239 18 39.6131 18 42V84C18.0034 85.9049 18.6112 87.7596 19.7358 89.2971C20.8604 90.8346 22.4438 91.9757 24.2581 92.556C26.0725 93.1363 28.0242 93.126 29.8323 92.5265C31.6405 91.9271 33.2117 90.7693 34.32 89.22L64.32 47.22C65.2779 45.8747 65.8471 44.2917 65.9654 42.6445C66.0836 40.9972 65.7463 39.3492 64.9905 37.8808C64.2346 36.4124 63.0893 35.1804 61.6799 34.3195C60.2706 33.4586 58.6515 33.0021 57 33ZM33 54C31.8133 54 30.6533 53.6481 29.6666 52.9888C28.6799 52.3295 27.9108 51.3925 27.4567 50.2961C27.0026 49.1997 26.8838 47.9933 27.1153 46.8295C27.3468 45.6656 27.9182 44.5965 28.7574 43.7574C29.5965 42.9182 30.6656 42.3468 31.8295 42.1153C32.9933 41.8838 34.1997 42.0026 35.2961 42.4567C36.3925 42.9108 37.3295 43.6799 37.9888 44.6666C38.6481 45.6533 39 46.8133 39 48C39 49.5913 38.3679 51.1174 37.2426 52.2426C36.1174 53.3679 34.5913 54 33 54Z" fill="black"/>
<path d="M108 42V84C108.003 86.2459 107.167 88.4119 105.655 90.0727C104.143 91.7334 102.065 92.7688 99.8283 92.9755C97.5919 93.1823 95.3591 92.5454 93.5683 91.1899C91.7775 89.8345 90.5582 87.8585 90.1499 85.65C90.054 85.1051 90.0038 84.5532 89.9999 84V77.16C89.9839 75.2602 89.3671 73.4142 88.2379 71.8863C87.1086 70.3585 85.5249 69.2272 83.7134 68.6544C81.9019 68.0817 79.9557 68.0969 78.1533 68.6979C76.351 69.2988 74.7851 70.4547 73.6799 72L68.9999 78.57L61.4699 89.13C60.0337 90.9561 57.9471 92.1561 55.6465 92.479C53.3458 92.8019 51.0095 92.2227 49.1261 90.8625C47.2428 89.5023 45.9584 87.4665 45.5416 85.181C45.1248 82.8956 45.6079 80.5374 46.8899 78.6L76.8899 36.6C77.719 35.4943 78.7917 34.5944 80.0247 33.9701C81.2577 33.3458 82.6179 33.0139 83.9999 33H98.9999C101.387 33 103.676 33.9482 105.364 35.636C107.052 37.3239 108 39.6131 108 42Z" fill="white"/>
<path d="M79.5 90C83.6421 90 87 86.6421 87 82.5C87 78.3579 83.6421 75 79.5 75C75.3579 75 72 78.3579 72 82.5C72 86.6421 75.3579 90 79.5 90Z" fill="black"/>
<path d="M175.62 9H160.2L144 57H156.48L159.63 46.92H176.22L179.22 57H191.67L175.62 9ZM162.39 38.1L167.7 21H168L173.37 38.04L162.39 38.1Z" fill="black"/>
<path d="M225.99 31.98L215.49 32.25C215.379 31.5194 215.067 30.8339 214.59 30.27C214.087 29.6574 213.437 29.1825 212.7 28.89C211.847 28.5262 210.926 28.3522 210 28.38C208.832 28.35 207.675 28.6185 206.64 29.16C206.227 29.3498 205.877 29.6544 205.633 30.0374C205.388 30.4203 205.259 30.8656 205.26 31.32C205.248 31.6693 205.318 32.0166 205.464 32.3342C205.609 32.6519 205.827 32.9312 206.1 33.15C206.993 33.7837 208.019 34.2045 209.1 34.38L216.06 35.7C219.031 36.0319 221.853 37.1734 224.22 39C225.094 39.8013 225.784 40.7815 226.245 41.8739C226.706 42.9662 226.926 44.145 226.89 45.33C226.913 47.6663 226.141 49.941 224.7 51.78C223.111 53.705 221.041 55.1748 218.7 56.04C215.96 57.0753 213.049 57.5843 210.12 57.54C205.886 57.7544 201.692 56.6427 198.12 54.36C196.701 53.3992 195.511 52.1377 194.635 50.6652C193.759 49.1927 193.218 47.5453 193.05 45.84L204.36 45.57C204.454 46.1797 204.676 46.7626 205.012 47.2798C205.348 47.797 205.791 48.2368 206.31 48.57C207.469 49.2008 208.761 49.5487 210.08 49.5852C211.399 49.6217 212.708 49.3458 213.9 48.78C214.312 48.578 214.661 48.2673 214.91 47.8813C215.158 47.4953 215.297 47.0488 215.31 46.59C215.298 46.2024 215.194 45.8231 215.007 45.4839C214.819 45.1446 214.552 44.8553 214.23 44.64C213.215 44.0482 212.094 43.661 210.93 43.5L204.63 42.3C201.633 41.9205 198.82 40.6449 196.56 38.64C195.677 37.7533 194.99 36.6924 194.54 35.5251C194.091 34.3577 193.89 33.1095 193.95 31.86C193.87 29.6418 194.547 27.4624 195.87 25.68C197.307 23.8802 199.219 22.5188 201.39 21.75C204.106 20.7963 206.972 20.339 209.85 20.4C213.92 20.1562 217.963 21.2063 221.4 23.4C222.773 24.3812 223.901 25.6658 224.697 27.1538C225.493 28.6418 225.936 30.2933 225.99 31.98Z" fill="black"/>
<path d="M262.62 31.98L252 32.25C251.913 31.5184 251.61 30.8293 251.13 30.27C250.62 29.6647 249.972 29.1913 249.24 28.89C248.388 28.5262 247.467 28.3522 246.54 28.38C245.363 28.3502 244.196 28.6185 243.15 29.16C242.741 29.3512 242.395 29.6569 242.156 30.0402C241.916 30.4235 241.793 30.868 241.8 31.32C241.788 31.6693 241.858 32.0166 242.004 32.3342C242.15 32.6519 242.368 32.9312 242.64 33.15C243.533 33.7837 244.559 34.2045 245.64 34.38L252.6 35.7C255.652 36.0011 258.56 37.1435 261 39C261.874 39.8013 262.565 40.7815 263.025 41.8739C263.486 42.9662 263.706 44.145 263.67 45.33C263.694 47.6663 262.921 49.941 261.48 51.78C259.895 53.7082 257.823 55.1787 255.48 56.04C252.751 57.0779 249.85 57.587 246.93 57.54C242.637 57.7823 238.377 56.6699 234.75 54.36C233.337 53.3932 232.152 52.1302 231.276 50.6588C230.401 49.1875 229.856 47.5431 229.68 45.84L241.02 45.57C241.114 46.1797 241.336 46.7626 241.672 47.2798C242.009 47.797 242.451 48.2368 242.97 48.57C244.169 49.2996 245.558 49.6547 246.96 49.59C248.211 49.6415 249.452 49.3621 250.56 48.78C250.968 48.5729 251.314 48.2609 251.562 47.876C251.81 47.4911 251.951 47.0473 251.97 46.59C251.959 46.2024 251.855 45.8231 251.667 45.4839C251.479 45.1446 251.213 44.8553 250.89 44.64C249.866 44.0445 248.734 43.6571 247.56 43.5L241.29 42.3C238.293 41.9205 235.48 40.6449 233.22 38.64C232.338 37.7533 231.65 36.6924 231.201 35.5251C230.751 34.3577 230.55 33.1095 230.61 31.86C230.53 29.6418 231.207 27.4624 232.53 25.68C233.967 23.8802 235.879 22.5188 238.05 21.75C240.766 20.7963 243.632 20.339 246.51 20.4C250.58 20.1562 254.623 21.2063 258.06 23.4C259.423 24.3892 260.542 25.6762 261.332 27.163C262.122 28.6498 262.563 30.2972 262.62 31.98Z" fill="black"/>
<path d="M301.74 41.76V39C301.784 36.3116 301.337 33.6377 300.42 31.11C299.655 28.9502 298.426 26.9841 296.82 25.35C295.279 23.7732 293.402 22.5633 291.33 21.81C289.079 20.9991 286.703 20.5928 284.31 20.61C281.007 20.5239 277.742 21.3325 274.86 22.95C272.203 24.4818 270.038 26.7402 268.62 29.46C267.149 32.4231 266.398 35.6919 266.43 39C266.347 42.4288 267.098 45.8264 268.62 48.9C270.029 51.6229 272.224 53.8596 274.92 55.32C277.916 56.8808 281.263 57.6453 284.64 57.54C287.477 57.5947 290.297 57.1059 292.95 56.1C295.187 55.2518 297.176 53.8599 298.74 52.05C300.266 50.3009 301.301 48.179 301.74 45.9L291 45.72C290.715 46.4871 290.252 47.1758 289.65 47.73C289.039 48.2979 288.312 48.7276 287.52 48.99C286.627 49.2665 285.695 49.3982 284.76 49.38C283.443 49.4173 282.139 49.1069 280.98 48.48C279.923 47.8726 279.06 46.9781 278.49 45.9C277.923 44.6816 277.665 43.3419 277.74 42V41.7L301.74 41.76ZM278.67 31.98C279.26 31 280.099 30.1929 281.1 29.64C282.152 29.0789 283.328 28.7901 284.52 28.8C285.727 28.7691 286.922 29.0371 288 29.58C288.945 30.1398 289.738 30.9227 290.31 31.86C290.82 32.8611 291.057 33.9782 291 35.1H277.74C277.778 33.9976 278.098 32.9234 278.67 31.98Z" fill="black"/>
<path d="M327.27 56.46C326.73 56.64 325.95 56.82 324.96 57.06C323.794 57.3066 322.61 57.4571 321.42 57.51C319.078 57.6783 316.727 57.3512 314.52 56.55C312.704 55.8943 311.162 54.6476 310.14 53.01C309.081 51.1938 308.57 49.1099 308.67 47.01V29.43H303.9V21H308.67V12.36H320.1V21H326.61V29.43H320.1V45.66C320.071 46.2514 320.195 46.8403 320.46 47.37C320.68 47.7797 321.027 48.1063 321.45 48.3C321.963 48.4666 322.5 48.5477 323.04 48.54C323.499 48.5819 323.961 48.5819 324.42 48.54C324.795 48.4855 325.166 48.4053 325.53 48.3L327.27 56.46Z" fill="black"/>
<path d="M144 69H158.37L170.55 98.73H171L183.3 69H197.67V117H186.39V87.51H186L174.45 116.7H167.22L155.7 87.36H155.31V117H144V69Z" fill="black"/>
<path d="M302.46 116.49C301.92 116.64 301.14 116.85 300.15 117.06C298.987 117.323 297.802 117.474 296.61 117.51C294.268 117.69 291.914 117.363 289.71 116.55C287.913 115.877 286.379 114.647 285.33 113.04C284.281 111.22 283.771 109.139 283.86 107.04V89.43H279V81H283.77V72.36H295.23V81H301.74V89.43H295.32V105.69C295.305 106.277 295.417 106.861 295.65 107.4C295.867 107.816 296.23 108.137 296.67 108.3C297.167 108.492 297.697 108.583 298.23 108.57C298.69 108.597 299.15 108.597 299.61 108.57L300.75 108.33L302.46 116.49Z" fill="black"/>
<path d="M230.76 83.67C229.218 82.6103 227.502 81.8285 225.69 81.36C223.631 80.7777 221.499 80.4947 219.36 80.52C216.527 80.4562 213.71 80.9665 211.08 82.02C208.959 82.8785 207.105 84.2868 205.71 86.1C204.374 87.8442 203.534 89.9174 203.28 92.1L213.84 92.46C214.06 91.3733 214.681 90.4093 215.58 89.76C216.676 89.0523 217.967 88.7061 219.27 88.77C220.461 88.7077 221.637 89.0573 222.6 89.76C223.014 90.0855 223.342 90.5069 223.556 90.9878C223.771 91.4687 223.865 91.9946 223.83 92.52C223.851 92.8535 223.784 93.1866 223.637 93.4865C223.49 93.7864 223.267 94.0427 222.99 94.23C222.149 94.7137 221.222 95.0295 220.26 95.16C219.03 95.37 217.26 95.55 215.31 95.76C213.567 95.8887 211.839 96.18 210.15 96.63C208.63 97.0498 207.191 97.7189 205.89 98.61C204.615 99.4504 203.581 100.608 202.89 101.97C202.147 103.543 201.787 105.271 201.84 107.01C201.743 109.118 202.275 111.206 203.37 113.01C204.399 114.57 205.858 115.8 207.57 116.55C209.471 117.337 211.513 117.725 213.57 117.69C215.101 117.707 216.626 117.505 218.1 117.09C219.388 116.706 220.584 116.064 221.615 115.202C222.647 114.341 223.492 113.279 224.1 112.08H224.4V117H235.17V92.52C235.199 90.7863 234.802 89.072 234.012 87.5285C233.222 85.9851 232.064 84.6599 230.64 83.67H230.76ZM223.92 104.19C223.927 105.257 223.613 106.302 223.02 107.19C222.428 108.079 221.61 108.793 220.65 109.26C219.616 109.774 218.474 110.032 217.32 110.01C216.167 110.065 215.028 109.738 214.08 109.08C213.643 108.78 213.293 108.369 213.066 107.889C212.84 107.41 212.744 106.878 212.79 106.35C212.782 105.635 212.991 104.934 213.39 104.34C213.826 103.727 214.415 103.241 215.1 102.93C215.981 102.548 216.909 102.286 217.86 102.15L219.54 101.91L221.22 101.55L222.75 101.16L223.92 100.71V104.19Z" fill="black"/>
<path d="M274.14 87C275.23 89.1963 275.756 91.6296 275.67 94.08V117H264.21V96.3C264.331 94.6051 263.794 92.9287 262.71 91.62C262.161 91.0558 261.495 90.6184 260.759 90.3386C260.023 90.0587 259.235 89.9432 258.45 90C257.341 89.9835 256.246 90.2521 255.27 90.78C254.355 91.2958 253.622 92.0816 253.17 93.03C252.639 94.1229 252.372 95.3251 252.39 96.54V117H240.96V81H252V87.6H252.39C253.137 85.4733 254.573 83.6571 256.47 82.44C258.512 81.1184 260.908 80.4488 263.34 80.52C265.655 80.4788 267.937 81.07 269.94 82.23C271.755 83.3996 273.21 85.0512 274.14 87Z" fill="black"/>
<path d="M318.57 69H307.11V117H318.57V69Z" fill="black"/>
<path d="M358.41 101.76V99C358.461 96.3234 358.024 93.66 357.12 91.14C356.356 88.9711 355.127 86.9952 353.52 85.35C351.966 83.7532 350.082 82.5144 348 81.72C345.738 80.9116 343.352 80.5055 340.95 80.52C337.647 80.4369 334.383 81.2453 331.5 82.86C328.843 84.3963 326.687 86.6673 325.29 89.4C323.787 92.3732 323.035 95.6692 323.1 99C323.015 102.442 323.777 105.852 325.32 108.93C326.719 111.643 328.904 113.87 331.59 115.32C334.586 116.884 337.932 117.658 341.31 117.57C344.147 117.625 346.967 117.136 349.62 116.13C351.856 115.265 353.852 113.876 355.44 112.08C356.974 110.325 358.01 108.191 358.44 105.9L347.94 105.6C347.645 106.371 347.184 107.067 346.59 107.64C345.977 108.199 345.25 108.618 344.46 108.87C343.568 109.153 342.636 109.294 341.7 109.29C340.371 109.318 339.057 108.997 337.89 108.36C336.832 107.777 335.975 106.888 335.43 105.81C334.831 104.61 334.532 103.281 334.56 101.94V101.64L358.41 101.76ZM335.34 91.98C335.939 91.0069 336.775 90.2018 337.77 89.64C338.823 89.0812 339.998 88.7926 341.19 88.8C342.371 88.7755 343.538 89.0544 344.58 89.61C345.537 90.1412 346.334 90.9179 346.89 91.86C347.447 92.8501 347.746 93.9642 347.76 95.1H334.44C334.458 93.9986 334.769 92.9218 335.34 91.98Z" fill="black"/>
</svg>
