<?xml version="1.0" encoding="UTF-8"?><svg id="Layer_2" xmlns="http://www.w3.org/2000/svg" viewBox="0 0 492.03 492.03"><defs><style>.cls-1{fill:#ffc640;}</style></defs><g id="Layer_1-2"><g><rect width="492.03" height="492.03" rx="56.7" ry="56.7"/><g><path class="cls-1" d="M347.79,111.32c4.03,1.79,7.75,4.24,10.95,7.3,10.26,9.83,14.45,25.6,10.22,39.16-5.6,17.93-23.37,28.98-40.54,36.62-17.17,7.64-35.88,14.04-48.18,28.24-4.79,5.53-8.49,12.48-8.2,19.78s5.56,14.69,12.82,15.54c6.96,.81,13.08-4.1,19.41-7.1,14.77-7.01,34.14-2.86,44.41,9.87s10.07,32.88-.77,45.12c-10.84,12.24-31.19,14.76-44.45,5.18-7.3-5.28-12.83-13.77-21.63-15.7-10.12-2.21-19.53,5.22-27.47,11.85-13.46,11.24-28.43,21.95-45.77,24.57-20.63,3.13-42.67-6.75-54.06-24.24-20.02-30.72-3-76.04,32.8-85,11.85-2.96,24.45-1.76,36.27-4.85,19.36-5.07,34.13-21.09,43.74-38.64,7.15-13.06,12.07-27.27,19.52-40.17,7.44-12.9,18.11-24.85,32.31-29.34,9.33-2.95,19.72-2.19,28.64,1.79Z"/><path class="cls-1" d="M167.66,112.72c9-24.11,34.98-35.64,59.58-26.43,22.82,8.54,34.6,35.35,25.88,58.88-8.77,23.66-35.44,35.8-59.22,26.82-23.15-8.74-36.22-35.82-26.24-59.27Z"/><path class="cls-1" d="M302.6,328.27c21.58,8.37,32.43,32.75,24.09,54.15-8.16,20.93-32.56,31.82-53.54,23.9-21.13-7.98-32.42-32.93-24.33-53.8,8.26-21.3,32.83-32.38,53.78-24.25Z"/><path class="cls-1" d="M144.95,174.3c9.58,3.61,13.9,13.06,10.35,22.59-3.4,9.11-13.37,13.84-22.31,10.58-8.94-3.26-13.88-14.1-10.44-22.91,3.55-9.1,13.46-13.64,22.41-10.26Z"/></g></g></g></svg>