<svg width="372" height="56" viewBox="0 0 372 56" fill="none" xmlns="http://www.w3.org/2000/svg">
<path d="M48 0H8C3.58172 0 0 3.58172 0 8V48C0 52.4183 3.58172 56 8 56H48C52.4183 56 56 52.4183 56 48V8C56 3.58172 52.4183 0 48 0Z" fill="url(#paint0_radial_6864_76848)"/>
<path d="M25.3333 14.667H12C10.9391 14.667 9.92172 15.0884 9.17157 15.8386C8.42143 16.5887 8 17.6061 8 18.667V37.3337C8.00152 38.1803 8.27163 39.0046 8.77145 39.6879C9.27127 40.3713 9.97502 40.8784 10.7814 41.1363C11.5878 41.3943 12.4552 41.3897 13.2588 41.1232C14.0624 40.8568 14.7608 40.3423 15.2533 39.6537L28.5867 20.987C29.0124 20.3891 29.2654 19.6855 29.3179 18.9534C29.3705 18.2213 29.2206 17.4888 28.8847 16.8362C28.5487 16.1836 28.0397 15.636 27.4133 15.2534C26.7869 14.8708 26.0673 14.6679 25.3333 14.667ZM14.6667 24.0003C14.1392 24.0003 13.6237 23.8439 13.1851 23.5509C12.7466 23.2579 12.4048 22.8414 12.203 22.3541C12.0012 21.8669 11.9483 21.3307 12.0512 20.8134C12.1541 20.2961 12.4081 19.821 12.781 19.448C13.154 19.0751 13.6291 18.8211 14.1464 18.7182C14.6637 18.6153 15.1999 18.6681 15.6872 18.87C16.1744 19.0718 16.5909 19.4136 16.8839 19.8521C17.1769 20.2907 17.3333 20.8062 17.3333 21.3337C17.3333 22.0409 17.0524 22.7192 16.5523 23.2193C16.0522 23.7194 15.3739 24.0003 14.6667 24.0003Z" fill="#0D0A03"/>
<path d="M35.3333 39.9992C37.1743 39.9992 38.6667 38.5068 38.6667 36.6659C38.6667 34.8249 37.1743 33.3325 35.3333 33.3325C33.4924 33.3325 32 34.8249 32 36.6659C32 38.5068 33.4924 39.9992 35.3333 39.9992Z" fill="#0D0A03"/>
<path d="M48 18.667V37.3337C48.0015 38.3318 47.6297 39.2945 46.9577 40.0326C46.2858 40.7707 45.3621 41.2309 44.3681 41.3228C43.3742 41.4147 42.3818 41.1316 41.5859 40.5292C40.79 39.9268 40.2481 39.0485 40.0666 38.067C40.024 37.8248 40.0017 37.5795 39.9999 37.3337V34.2937C39.9928 33.4493 39.7187 32.6289 39.2168 31.9498C38.715 31.2708 38.0111 30.768 37.206 30.5134C36.4009 30.2589 35.5359 30.2656 34.7348 30.5327C33.9338 30.7998 33.2378 31.3135 32.7466 32.0003L30.6666 34.9203L27.3199 39.6137C26.6817 40.4253 25.7543 40.9586 24.7318 41.1021C23.7093 41.2456 22.6709 40.9882 21.8338 40.3837C20.9968 39.7791 20.4259 38.8743 20.2407 37.8586C20.0555 36.8428 20.2702 35.7947 20.8399 34.9337L34.1733 16.267C34.5418 15.7756 35.0185 15.3756 35.5665 15.0982C36.1145 14.8207 36.7191 14.6732 37.3333 14.667H43.9999C45.0608 14.667 46.0782 15.0884 46.8284 15.8386C47.5785 16.5887 48 17.6061 48 18.667Z" fill="#FFFDFA"/>
<path d="M74.5284 13.9091H82.1136L90.125 33.4545H90.4659L98.4773 13.9091H106.062V43H100.097V24.0653H99.8551L92.3267 42.858H88.2642L80.7358 23.9943H80.4943V43H74.5284V13.9091ZM117.238 43.4119C115.846 43.4119 114.605 43.1705 113.516 42.6875C112.427 42.1951 111.566 41.4706 110.931 40.5142C110.306 39.5483 109.994 38.3456 109.994 36.9062C109.994 35.6941 110.216 34.6761 110.661 33.8523C111.106 33.0284 111.712 32.3655 112.479 31.8636C113.246 31.3617 114.118 30.983 115.093 30.7273C116.078 30.4716 117.11 30.2917 118.19 30.1875C119.459 30.0549 120.481 29.9318 121.258 29.8182C122.034 29.6951 122.598 29.5152 122.948 29.2784C123.299 29.0417 123.474 28.6913 123.474 28.2273V28.142C123.474 27.2424 123.19 26.5464 122.621 26.054C122.063 25.5616 121.267 25.3153 120.235 25.3153C119.146 25.3153 118.28 25.5568 117.636 26.0398C116.992 26.5133 116.566 27.1098 116.357 27.8295L110.761 27.375C111.045 26.0492 111.603 24.9034 112.437 23.9375C113.27 22.9621 114.345 22.214 115.661 21.6932C116.987 21.1629 118.521 20.8977 120.263 20.8977C121.476 20.8977 122.636 21.0398 123.744 21.3239C124.861 21.608 125.851 22.0483 126.712 22.6449C127.584 23.2415 128.27 24.0085 128.772 24.946C129.274 25.8741 129.525 26.9867 129.525 28.2841V43H123.786V39.9744H123.616C123.265 40.6562 122.797 41.2576 122.21 41.7784C121.622 42.2898 120.917 42.6922 120.093 42.9858C119.269 43.2699 118.317 43.4119 117.238 43.4119ZM118.971 39.2358C119.861 39.2358 120.647 39.0606 121.329 38.7102C122.011 38.3504 122.546 37.8674 122.934 37.2614C123.322 36.6553 123.516 35.9687 123.516 35.2017V32.8864C123.327 33.0095 123.067 33.1231 122.735 33.2273C122.413 33.322 122.049 33.4119 121.641 33.4972C121.234 33.5729 120.827 33.6439 120.42 33.7102C120.013 33.767 119.643 33.8191 119.312 33.8665C118.602 33.9706 117.981 34.1364 117.451 34.3636C116.921 34.5909 116.509 34.8987 116.215 35.2869C115.922 35.6657 115.775 36.1392 115.775 36.7074C115.775 37.5312 116.073 38.161 116.67 38.5966C117.276 39.0227 118.043 39.2358 118.971 39.2358ZM140.271 30.3864V43H134.219V21.1818H139.987V25.0312H140.242C140.725 23.7623 141.535 22.7585 142.671 22.0199C143.808 21.2718 145.185 20.8977 146.805 20.8977C148.32 20.8977 149.641 21.2292 150.768 21.892C151.895 22.5549 152.771 23.5019 153.396 24.733C154.021 25.9545 154.333 27.4129 154.333 29.108V43H148.282V30.1875C148.291 28.8523 147.951 27.8106 147.259 27.0625C146.568 26.3049 145.616 25.9261 144.404 25.9261C143.59 25.9261 142.87 26.1013 142.245 26.4517C141.629 26.8021 141.147 27.3134 140.796 27.9858C140.455 28.6487 140.28 29.4489 140.271 30.3864ZM170.707 21.1818V25.7273H157.568V21.1818H170.707ZM160.551 15.9545H166.602V36.2955C166.602 36.8542 166.688 37.2898 166.858 37.6023C167.028 37.9053 167.265 38.1184 167.568 38.2415C167.881 38.3646 168.241 38.4261 168.648 38.4261C168.932 38.4261 169.216 38.4025 169.5 38.3551C169.784 38.2983 170.002 38.2557 170.153 38.2273L171.105 42.7301C170.802 42.8248 170.376 42.9337 169.827 43.0568C169.277 43.1894 168.61 43.2699 167.824 43.2983C166.366 43.3551 165.087 43.161 163.989 42.7159C162.9 42.2708 162.052 41.5795 161.446 40.642C160.84 39.7045 160.542 38.5208 160.551 37.0909V15.9545ZM181.169 13.9091V43H175.118V13.9091H181.169ZM195.96 43.4261C193.715 43.4261 191.783 42.9716 190.164 42.0625C188.554 41.1439 187.314 39.8466 186.442 38.1705C185.571 36.4848 185.136 34.4915 185.136 32.1903C185.136 29.946 185.571 27.9763 186.442 26.2812C187.314 24.5862 188.54 23.2652 190.121 22.3182C191.712 21.3712 193.578 20.8977 195.718 20.8977C197.157 20.8977 198.497 21.1297 199.738 21.5938C200.988 22.0483 202.077 22.7348 203.005 23.6534C203.942 24.572 204.672 25.7273 205.192 27.1193C205.713 28.5019 205.974 30.1212 205.974 31.9773V33.6392H187.55V29.8892H200.278C200.278 29.018 200.088 28.2462 199.71 27.5739C199.331 26.9015 198.805 26.3759 198.133 25.9972C197.47 25.6089 196.698 25.4148 195.817 25.4148C194.899 25.4148 194.085 25.6278 193.374 26.054C192.674 26.4706 192.124 27.0341 191.727 27.7443C191.329 28.4451 191.125 29.2263 191.116 30.0881V33.6534C191.116 34.733 191.315 35.6657 191.712 36.4517C192.12 37.2377 192.692 37.8438 193.431 38.2699C194.17 38.696 195.046 38.9091 196.059 38.9091C196.731 38.9091 197.347 38.8144 197.906 38.625C198.464 38.4356 198.942 38.1515 199.34 37.7727C199.738 37.3939 200.041 36.9299 200.249 36.3807L205.846 36.75C205.562 38.0947 204.979 39.2689 204.099 40.2727C203.228 41.267 202.101 42.0436 200.718 42.6023C199.345 43.1515 197.759 43.4261 195.96 43.4261ZM210.036 43V13.9091H229.638V18.9801H216.187V25.9119H228.63V30.983H216.187V37.929H229.695V43H210.036ZM239.472 21.1818L243.477 28.8097L247.582 21.1818H253.79L247.469 32.0909L253.96 43H247.781L243.477 35.4574L239.244 43H232.994L239.472 32.0909L233.222 21.1818H239.472ZM257.384 51.1818V21.1818H263.349V24.8466H263.619C263.884 24.2595 264.268 23.6629 264.77 23.0568C265.281 22.4413 265.944 21.9299 266.759 21.5227C267.582 21.1061 268.605 20.8977 269.827 20.8977C271.418 20.8977 272.885 21.3144 274.23 22.1477C275.575 22.9716 276.65 24.2169 277.455 25.8835C278.259 27.5407 278.662 29.6193 278.662 32.1193C278.662 34.553 278.269 36.608 277.483 38.2841C276.706 39.9508 275.646 41.215 274.301 42.0767C272.966 42.929 271.47 43.3551 269.812 43.3551C268.638 43.3551 267.639 43.161 266.815 42.7727C266.001 42.3845 265.333 41.8968 264.812 41.3097C264.292 40.7131 263.894 40.1117 263.619 39.5057H263.435V51.1818H257.384ZM263.307 32.0909C263.307 33.3883 263.487 34.5199 263.847 35.4858C264.206 36.4517 264.727 37.2045 265.409 37.7443C266.091 38.2746 266.92 38.5398 267.895 38.5398C268.88 38.5398 269.713 38.2699 270.395 37.7301C271.077 37.1809 271.593 36.4233 271.943 35.4574C272.303 34.482 272.483 33.3598 272.483 32.0909C272.483 30.8314 272.308 29.7235 271.957 28.767C271.607 27.8106 271.091 27.0625 270.409 26.5227C269.727 25.983 268.889 25.7131 267.895 25.7131C266.91 25.7131 266.077 25.9735 265.395 26.4943C264.723 27.0152 264.206 27.7538 263.847 28.7102C263.487 29.6667 263.307 30.7936 263.307 32.0909ZM288.747 13.9091V43H282.696V13.9091H288.747ZM303.452 43.4261C301.246 43.4261 299.338 42.9574 297.728 42.0199C296.128 41.0729 294.892 39.7566 294.021 38.071C293.149 36.3759 292.714 34.411 292.714 32.1761C292.714 29.9223 293.149 27.9527 294.021 26.267C294.892 24.572 296.128 23.2557 297.728 22.3182C299.338 21.3712 301.246 20.8977 303.452 20.8977C305.659 20.8977 307.562 21.3712 309.163 22.3182C310.772 23.2557 312.013 24.572 312.884 26.267C313.755 27.9527 314.191 29.9223 314.191 32.1761C314.191 34.411 313.755 36.3759 312.884 38.071C312.013 39.7566 310.772 41.0729 309.163 42.0199C307.562 42.9574 305.659 43.4261 303.452 43.4261ZM303.481 38.7386C304.485 38.7386 305.323 38.4545 305.995 37.8864C306.667 37.3087 307.174 36.5227 307.515 35.5284C307.865 34.5341 308.04 33.4025 308.04 32.1335C308.04 30.8646 307.865 29.733 307.515 28.7386C307.174 27.7443 306.667 26.9583 305.995 26.3807C305.323 25.803 304.485 25.5142 303.481 25.5142C302.468 25.5142 301.615 25.803 300.924 26.3807C300.242 26.9583 299.726 27.7443 299.376 28.7386C299.035 29.733 298.864 30.8646 298.864 32.1335C298.864 33.4025 299.035 34.5341 299.376 35.5284C299.726 36.5227 300.242 37.3087 300.924 37.8864C301.615 38.4545 302.468 38.7386 303.481 38.7386ZM318.126 43V21.1818H323.992V24.9886H324.219C324.617 23.6345 325.285 22.6117 326.222 21.9205C327.16 21.2197 328.239 20.8693 329.461 20.8693C329.764 20.8693 330.091 20.8883 330.441 20.9261C330.791 20.964 331.099 21.0161 331.364 21.0824V26.4517C331.08 26.3665 330.687 26.2907 330.185 26.2244C329.683 26.1581 329.224 26.125 328.808 26.125C327.917 26.125 327.122 26.3191 326.421 26.7074C325.73 27.0862 325.181 27.6165 324.773 28.2983C324.376 28.9801 324.177 29.7661 324.177 30.6562V43H318.126ZM343.42 43.4261C341.176 43.4261 339.244 42.9716 337.625 42.0625C336.015 41.1439 334.775 39.8466 333.903 38.1705C333.032 36.4848 332.597 34.4915 332.597 32.1903C332.597 29.946 333.032 27.9763 333.903 26.2812C334.775 24.5862 336.001 23.2652 337.582 22.3182C339.173 21.3712 341.039 20.8977 343.179 20.8977C344.618 20.8977 345.958 21.1297 347.199 21.5938C348.449 22.0483 349.538 22.7348 350.466 23.6534C351.403 24.572 352.133 25.7273 352.653 27.1193C353.174 28.5019 353.435 30.1212 353.435 31.9773V33.6392H335.011V29.8892H347.739C347.739 29.018 347.549 28.2462 347.17 27.5739C346.792 26.9015 346.266 26.3759 345.594 25.9972C344.931 25.6089 344.159 25.4148 343.278 25.4148C342.36 25.4148 341.545 25.6278 340.835 26.054C340.134 26.4706 339.585 27.0341 339.188 27.7443C338.79 28.4451 338.586 29.2263 338.577 30.0881V33.6534C338.577 34.733 338.776 35.6657 339.173 36.4517C339.58 37.2377 340.153 37.8438 340.892 38.2699C341.631 38.696 342.507 38.9091 343.52 38.9091C344.192 38.9091 344.808 38.8144 345.366 38.625C345.925 38.4356 346.403 38.1515 346.801 37.7727C347.199 37.3939 347.502 36.9299 347.71 36.3807L353.307 36.75C353.023 38.0947 352.44 39.2689 351.56 40.2727C350.688 41.267 349.562 42.0436 348.179 42.6023C346.806 43.1515 345.22 43.4261 343.42 43.4261ZM357.384 43V21.1818H363.25V24.9886H363.477C363.875 23.6345 364.543 22.6117 365.48 21.9205C366.418 21.2197 367.497 20.8693 368.719 20.8693C369.022 20.8693 369.348 20.8883 369.699 20.9261C370.049 20.964 370.357 21.0161 370.622 21.0824V26.4517C370.338 26.3665 369.945 26.2907 369.443 26.2244C368.941 26.1581 368.482 26.125 368.065 26.125C367.175 26.125 366.38 26.3191 365.679 26.7074C364.988 27.0862 364.438 27.6165 364.031 28.2983C363.634 28.9801 363.435 29.7661 363.435 30.6562V43H357.384Z" fill="#252525"/>
<defs>
<radialGradient id="paint0_radial_6864_76848" cx="0" cy="0" r="1" gradientUnits="userSpaceOnUse" gradientTransform="translate(28 28) scale(28 28)">
<stop offset="0.473958" stop-color="#FFC640"/>
<stop offset="1" stop-color="#F2AF13"/>
</radialGradient>
</defs>
</svg>
