<?xml version="1.0" encoding="UTF-8"?><svg id="Layer_2" xmlns="http://www.w3.org/2000/svg" viewBox="0 0 512 512"><defs><style>.cls-1{fill:#fff;}.cls-2{fill:#363535;}</style></defs><g id="Layer_1-2"><rect class="cls-1" width="512" height="512"/><rect x="55.77" y="156.31" width="66.76" height="66.46"/><path d="M123.47,223.69H54.85v-68.3h68.62v68.3ZM56.7,221.85h64.91v-64.61H56.7v64.61Z"/><rect class="cls-1" x="122.54" y="156.31" width="66.76" height="66.46"/><path d="M190.23,223.69h-68.62v-68.3h68.62v68.3ZM123.47,221.85h64.91v-64.61h-64.91v64.61Z"/><rect class="cls-1" x="189.3" y="156.31" width="66.76" height="66.46"/><path d="M256.99,223.69h-68.62v-68.3h68.62v68.3ZM190.23,221.85h64.91v-64.61h-64.91s0,64.61,0,64.61Z"/><rect class="cls-1" x="55.77" y="222.77" width="66.76" height="66.46"/><path d="M123.47,290.15H54.85v-68.3h68.62v68.3ZM56.7,288.31h64.91v-64.61H56.7v64.61Z"/><rect class="cls-1" x="122.54" y="222.77" width="66.76" height="66.46"/><path d="M190.23,290.15h-68.62v-68.3h68.62v68.3ZM123.47,288.31h64.91v-64.61h-64.91v64.61Z"/><rect class="cls-1" x="189.3" y="222.77" width="66.76" height="66.46"/><path d="M256.99,290.15h-68.62v-68.3h68.62v68.3ZM190.23,288.31h64.91v-64.61h-64.91s0,64.61,0,64.61Z"/><rect class="cls-1" x="55.77" y="289.23" width="66.76" height="66.46"/><path d="M123.47,356.61H54.85v-68.3h68.62v68.3ZM56.7,354.76h64.91v-64.61H56.7v64.61Z"/><rect class="cls-1" x="122.54" y="289.23" width="66.76" height="66.46"/><path d="M190.23,356.61h-68.62v-68.3h68.62v68.3ZM123.47,354.76h64.91v-64.61h-64.91v64.61Z"/><rect class="cls-1" x="189.3" y="289.23" width="66.76" height="66.46"/><path d="M256.99,356.61h-68.62v-68.3h68.62v68.3ZM190.23,354.76h64.91v-64.61h-64.91s0,64.61,0,64.61Z"/><rect x="255.94" y="156.31" width="66.76" height="66.46"/><path class="cls-1" d="M323.63,223.69h-68.62v-68.3h68.62v68.3ZM256.86,221.85h64.91v-64.61h-64.91v64.61Z"/><rect x="322.7" y="156.31" width="66.76" height="66.46"/><path class="cls-1" d="M390.39,223.69h-68.62v-68.3h68.62v68.3ZM323.63,221.85h64.91v-64.61h-64.91v64.61Z"/><rect x="389.46" y="156.31" width="66.76" height="66.46"/><path class="cls-1" d="M457.15,223.69h-68.62v-68.3h68.62v68.3ZM390.39,221.85h64.91v-64.61h-64.91v64.61h0Z"/><rect x="255.94" y="222.77" width="66.76" height="66.46"/><path class="cls-1" d="M323.63,290.15h-68.62v-68.3h68.62v68.3ZM256.86,288.31h64.91v-64.61h-64.91v64.61Z"/><rect x="322.7" y="222.77" width="66.76" height="66.46"/><rect x="389.46" y="222.77" width="66.76" height="66.46"/><path class="cls-1" d="M457.15,290.15h-68.62v-68.3h68.62v68.3ZM390.39,288.31h64.91v-64.61h-64.91v64.61h0Z"/><rect x="255.94" y="289.23" width="66.76" height="66.46"/><rect class="cls-1" x="322.7" y="289.23" width="66.76" height="66.46"/><path d="M390.39,356.61h-68.62v-68.3h68.62v68.3ZM323.63,354.76h64.91v-64.61h-64.91v64.61Z"/><path class="cls-1" d="M323.63,356.61h-68.62v-68.3h68.62v68.3ZM256.86,354.76h64.91v-64.61h-64.91v64.61Z"/><rect x="389.46" y="289.23" width="66.76" height="66.46"/><path class="cls-1" d="M457.15,356.61h-68.62v-68.3h68.62v68.3ZM390.39,354.76h64.91v-64.61h-64.91v64.61h0Z"/><rect x="254.99" y="288.31" width="1.85" height="1.85"/><rect class="cls-2" x="254.99" y="221.85" width="1.85" height="1.85"/><rect class="cls-2" x="254.99" y="155.39" width="1.85" height="1.85"/><path class="cls-1" d="M390.39,290.15h-68.62v-68.3h68.62v68.3ZM323.63,288.31h64.91v-64.61h-64.91v64.61Z"/><rect x="254.99" y="354.76" width="1.85" height="1.85"/><rect class="cls-2" x="321.77" y="354.76" width="1.85" height="1.85"/><rect class="cls-2" x="388.53" y="354.76" width="1.85" height="1.85"/></g></svg>