<svg width="126" height="207" viewBox="0 0 126 207" fill="none" xmlns="http://www.w3.org/2000/svg">
<g clip-path="url(#clip0_197_393)">
<path d="M0 180H8.10004L14.94 196.71H15.27L22.11 180H30.21V207H23.85V190.41H23.61L17.1301 206.82H13.08L6.60004 190.32H6.35999V207H0V180Z" fill="white"/>
<path d="M73.2002 190.11C73.8275 191.343 74.127 192.717 74.0701 194.1V207H67.5302V195.36C67.6037 194.404 67.3024 193.457 66.6902 192.72C66.3842 192.397 66.0101 192.145 65.595 191.985C65.1799 191.824 64.7342 191.757 64.2902 191.79C63.6747 191.783 63.0667 191.927 62.5201 192.21C62.0044 192.502 61.5869 192.941 61.3201 193.47C61.0275 194.088 60.8837 194.766 60.9002 195.45V207H54.4502V186.75H60.4502V190.47H60.6902C61.0838 189.238 61.8887 188.179 62.9702 187.47C64.1222 186.729 65.4709 186.353 66.8401 186.39C68.1355 186.36 69.4135 186.693 70.5302 187.35C71.6882 187.966 72.6225 188.932 73.2002 190.11Z" fill="white"/>
<path d="M98.1897 180H91.7397V207H98.1897V180Z" fill="white"/>
<path d="M17.7902 144H9.12012L0.120117 171H7.14011L8.9101 165.33H18.2401L20.0402 171H27.0301L17.7902 144ZM10.3501 160.35L13.3501 150.78H13.5301L16.5301 160.35H10.3501Z" fill="white"/>
<path d="M46.1399 156.93L40.1399 157.08C40.0872 156.672 39.9209 156.288 39.6599 155.97C39.3725 155.622 39.0007 155.353 38.5799 155.19C38.1096 154.976 37.5963 154.873 37.0799 154.89C36.4118 154.872 35.7503 155.027 35.1599 155.34C34.9291 155.45 34.7355 155.625 34.6023 155.844C34.4692 156.062 34.4023 156.314 34.4099 156.57C34.4028 156.766 34.4427 156.961 34.5262 157.138C34.6097 157.316 34.7344 157.471 34.8899 157.59C35.4128 157.965 36.0214 158.202 36.6599 158.28L40.5599 159.03C42.2085 159.242 43.766 159.907 45.0599 160.95C45.555 161.4 45.9457 161.952 46.2048 162.569C46.4639 163.186 46.5851 163.852 46.5599 164.52C46.5792 165.826 46.1445 167.099 45.3299 168.12C44.4572 169.206 43.3064 170.036 41.9999 170.52C40.4616 171.121 38.8211 171.416 37.1699 171.39C34.7668 171.524 32.3829 170.894 30.3599 169.59C29.5365 169.061 28.8406 168.356 28.3219 167.526C27.8032 166.696 27.4747 165.762 27.3599 164.79L33.7499 164.64C33.8006 164.981 33.9231 165.306 34.1093 165.596C34.2955 165.886 34.5412 166.132 34.8299 166.32C35.505 166.736 36.2874 166.945 37.0799 166.92C37.79 166.939 38.4928 166.774 39.1199 166.44C39.3496 166.325 39.5436 166.15 39.681 165.934C39.8185 165.717 39.8942 165.467 39.8999 165.21C39.9011 164.994 39.8465 164.781 39.7414 164.591C39.6363 164.402 39.4842 164.243 39.2999 164.13C38.7377 163.772 38.1018 163.547 37.4399 163.47L33.8999 162.78C32.2167 162.58 30.6355 161.868 29.3699 160.74C28.8741 160.242 28.4874 159.645 28.2344 158.99C27.9813 158.334 27.8674 157.632 27.8999 156.93C27.8382 155.679 28.2207 154.446 28.9799 153.45C29.7559 152.447 30.7942 151.679 31.9799 151.23C33.5119 150.695 35.1277 150.441 36.7499 150.48C39.0357 150.357 41.3025 150.955 43.2299 152.19C44.0453 152.705 44.7318 153.4 45.2364 154.222C45.7409 155.043 46.05 155.97 46.1399 156.93Z" fill="white"/>
<path d="M66.7201 156.93L60.7201 157.08C60.6572 156.67 60.4805 156.285 60.21 155.97C59.9276 155.63 59.5674 155.362 59.16 155.19C58.6888 154.979 58.1762 154.877 57.66 154.89C56.9919 154.872 56.3305 155.027 55.74 155.34C55.5104 155.455 55.3164 155.63 55.1789 155.847C55.0415 156.063 54.9658 156.313 54.96 156.57C54.9655 156.767 55.0139 156.96 55.102 157.137C55.1901 157.313 55.3158 157.468 55.4701 157.59C55.9897 157.971 56.5999 158.208 57.24 158.28L61.14 159.03C62.7853 159.254 64.3398 159.917 65.64 160.95C66.1351 161.4 66.5259 161.952 66.785 162.569C67.0441 163.186 67.1652 163.852 67.14 164.52C67.1593 165.826 66.7246 167.099 65.91 168.12C65.0373 169.206 63.8865 170.036 62.58 170.52C61.0418 171.121 59.4012 171.416 57.75 171.39C55.3379 171.52 52.9457 170.891 50.91 169.59C50.1173 169.042 49.4524 168.33 48.9605 167.501C48.4686 166.673 48.1615 165.748 48.0601 164.79L54.42 164.64C54.4761 164.983 54.6039 165.309 54.7952 165.599C54.9865 165.888 55.237 166.134 55.53 166.32C56.2051 166.736 56.9875 166.945 57.78 166.92C58.481 166.944 59.1754 166.778 59.7901 166.44C60.0233 166.327 60.2216 166.153 60.3642 165.936C60.5068 165.72 60.5882 165.469 60.6 165.21C60.5952 164.991 60.5348 164.778 60.4246 164.589C60.3144 164.4 60.158 164.242 59.9701 164.13C59.4103 163.767 58.7731 163.541 58.11 163.47L54.6 162.78C52.9168 162.58 51.3356 161.868 50.07 160.74C49.5703 160.243 49.179 159.648 48.9208 158.992C48.6627 158.336 48.5432 157.634 48.57 156.93C48.5351 155.682 48.9149 154.459 49.6501 153.45C50.4293 152.451 51.4666 151.683 52.6501 151.23C54.1821 150.695 55.7979 150.441 57.42 150.48C59.7059 150.357 61.9727 150.955 63.9001 152.19C64.7051 152.708 65.3788 153.405 65.8682 154.228C66.3575 155.051 66.6492 155.976 66.7201 156.93Z" fill="white"/>
<path d="M88.7402 162.42V160.83C88.7726 159.316 88.5182 157.809 87.9902 156.39C87.578 155.194 86.9074 154.103 86.0259 153.196C85.1444 152.289 84.0738 151.587 82.8902 151.14C81.6166 150.699 80.2779 150.476 78.9302 150.48C77.0725 150.424 75.2352 150.88 73.6202 151.8C72.1236 152.658 70.9052 153.929 70.1102 155.46C69.262 157.164 68.84 159.047 68.8802 160.95C68.835 162.882 69.2569 164.796 70.1102 166.53C70.9225 168.043 72.1509 169.292 73.6502 170.13C75.3344 171.005 77.2129 171.439 79.1102 171.39C80.7075 171.421 82.2961 171.146 83.7903 170.58C85.0469 170.092 86.1682 169.311 87.0602 168.3C87.8799 167.296 88.4274 166.097 88.6502 164.82L82.6502 164.64C82.4911 165.073 82.2345 165.463 81.9002 165.78C81.5581 166.105 81.1483 166.351 80.7003 166.5C80.1945 166.651 79.668 166.722 79.1402 166.71C78.3985 166.723 77.6656 166.548 77.0102 166.2C76.4151 165.871 75.9339 165.369 75.6302 164.76C75.293 164.091 75.128 163.349 75.1502 162.6V162.42H88.7402ZM75.7502 156.93C76.0853 156.376 76.5615 155.92 77.1302 155.61C77.7207 155.294 78.3804 155.129 79.0502 155.13C79.7084 155.116 80.3592 155.27 80.9402 155.58C81.4828 155.877 81.9379 156.312 82.2602 156.84C82.5593 157.405 82.7236 158.031 82.7402 158.67H75.2402C75.2535 158.055 75.4294 157.455 75.7502 156.93Z" fill="white"/>
<path d="M103.08 170.7L101.79 171.03C101.138 171.167 100.476 171.247 99.8102 171.27C98.4861 171.389 97.1521 171.205 95.9102 170.73C94.8949 170.358 94.0304 169.662 93.4502 168.75C92.8449 167.716 92.5627 166.525 92.6402 165.33V155.49H89.9702V150.75H92.6402V145.89H99.0602V150.75H102.72V155.49H99.0602V164.49C99.0596 164.821 99.1312 165.149 99.2701 165.45C99.3862 165.677 99.577 165.857 99.8102 165.96C100.108 166.008 100.412 166.008 100.71 165.96H101.49H102.12L103.08 170.7Z" fill="white"/>
<path d="M89.1302 206.7L87.8402 207.03C87.1891 207.176 86.5267 207.267 85.8602 207.3C84.5369 207.39 83.2093 207.206 81.9602 206.76C80.9449 206.388 80.0803 205.692 79.5002 204.78C78.9033 203.743 78.6218 202.554 78.6902 201.36V191.49H75.9902V186.75H78.6902V181.89H85.1102V186.75H88.7702V191.49H85.1102V200.49C85.1055 200.822 85.1774 201.15 85.3202 201.45C85.4363 201.677 85.6269 201.857 85.8602 201.96C86.1581 202.01 86.4623 202.01 86.7602 201.96H87.5403L88.1702 201.81L89.1302 206.7Z" fill="white"/>
<path d="M48.8102 188.25C47.9476 187.648 46.9814 187.211 45.9601 186.96C44.8003 186.625 43.5973 186.463 42.3901 186.48C40.7998 186.449 39.2192 186.735 37.7402 187.32C36.5527 187.81 35.5172 188.607 34.7402 189.63C33.989 190.581 33.5211 191.725 33.3901 192.93L39.3901 193.14C39.4392 192.834 39.5495 192.54 39.7144 192.277C39.8794 192.014 40.0956 191.787 40.3502 191.61C40.9677 191.217 41.6887 191.019 42.4202 191.04C43.0964 191.011 43.7625 191.212 44.3102 191.61C44.5452 191.793 44.7313 192.031 44.8517 192.303C44.9721 192.575 45.0231 192.873 45.0001 193.17C45.0139 193.358 44.9766 193.547 44.8921 193.716C44.8076 193.885 44.6791 194.028 44.5201 194.13C44.0512 194.405 43.5301 194.578 42.9902 194.64C42.2902 194.76 41.3602 194.88 40.2002 195C39.1861 195.054 38.1805 195.215 37.2002 195.48C36.3466 195.721 35.5365 196.096 34.8001 196.59C34.0996 197.071 33.5321 197.721 33.1502 198.48C32.7292 199.37 32.5237 200.346 32.5501 201.33C32.5087 202.501 32.8112 203.659 33.4202 204.66C34.0044 205.533 34.827 206.22 35.7902 206.64C36.8762 207.078 38.0394 207.292 39.2101 207.27C40.0712 207.277 40.9293 207.166 41.7602 206.94C42.4785 206.72 43.1428 206.352 43.7101 205.86C44.2809 205.377 44.75 204.786 45.0901 204.12H45.2701V207H51.2701V193.23C51.2816 192.255 51.0554 191.292 50.6111 190.425C50.1668 189.557 49.5178 188.81 48.7202 188.25H48.8102ZM44.9702 199.8C44.9837 200.419 44.8055 201.026 44.4601 201.54C44.1217 202.043 43.6558 202.447 43.1101 202.71C42.5312 202.993 41.8944 203.137 41.2501 203.13C40.5976 203.154 39.9551 202.964 39.4202 202.59C39.182 202.415 38.9914 202.184 38.8656 201.917C38.7399 201.649 38.683 201.355 38.7002 201.06C38.6983 200.656 38.8128 200.26 39.0301 199.92C39.2885 199.592 39.6164 199.326 39.9902 199.14C40.4906 198.929 41.0142 198.778 41.5501 198.69H42.5102L43.4402 198.48L44.2801 198.27L44.9702 198V199.8Z" fill="white"/>
<path d="M120.6 198.42V196.83C120.625 195.319 120.381 193.816 119.88 192.39C119.449 191.179 118.764 190.074 117.87 189.15C117.019 188.288 115.998 187.613 114.87 187.17C113.612 186.706 112.281 186.472 110.94 186.48C109.075 186.439 107.232 186.895 105.6 187.8C104.115 188.663 102.907 189.933 102.12 191.46C101.248 193.156 100.814 195.043 100.86 196.95C100.808 198.886 101.241 200.804 102.12 202.53C102.901 204.066 104.138 205.323 105.66 206.13C107.343 207.009 109.223 207.443 111.12 207.39C112.718 207.421 114.306 207.146 115.8 206.58C117.057 206.092 118.178 205.311 119.07 204.3C119.894 203.299 120.443 202.099 120.66 200.82L114.66 200.67C114.493 201.099 114.238 201.487 113.91 201.81C113.562 202.12 113.153 202.355 112.71 202.5C112.206 202.66 111.679 202.741 111.15 202.74C110.404 202.758 109.667 202.571 109.02 202.2C108.419 201.879 107.936 201.374 107.64 200.76C107.289 200.095 107.113 199.352 107.13 198.6V198.42H120.6ZM107.64 192.93C107.964 192.377 108.43 191.921 108.99 191.61C109.591 191.294 110.261 191.129 110.94 191.13C111.598 191.116 112.249 191.271 112.83 191.58C113.366 191.89 113.81 192.335 114.12 192.87C114.446 193.415 114.622 194.036 114.63 194.67H107.13C107.143 194.055 107.319 193.455 107.64 192.93Z" fill="white"/>
<path d="M108 0H18C8.05887 0 0 8.05887 0 18V108C0 117.941 8.05887 126 18 126H108C117.941 126 126 117.941 126 108V18C126 8.05887 117.941 0 108 0Z" fill="white"/>
<path d="M57 33H27C24.6131 33 22.3239 33.9482 20.6361 35.636C18.9483 37.3239 18 39.6131 18 42V84C18.0034 85.9049 18.6112 87.7596 19.7357 89.2971C20.8603 90.8346 22.4438 91.9757 24.2582 92.556C26.0725 93.1363 28.0242 93.126 29.8324 92.5265C31.6405 91.927 33.2117 90.7693 34.32 89.22L64.32 47.22C65.4242 45.7046 66.0131 43.875 66 42C66 39.6131 65.0518 37.3239 63.364 35.636C61.6762 33.9482 59.3869 33 57 33ZM33 54C31.8133 54 30.6533 53.6481 29.6666 52.9888C28.6799 52.3295 27.9109 51.3925 27.4568 50.2961C27.0026 49.1997 26.8838 47.9933 27.1154 46.8295C27.3469 45.6656 27.9182 44.5965 28.7574 43.7574C29.5965 42.9182 30.6656 42.3468 31.8295 42.1153C32.9934 41.8838 34.1998 42.0026 35.2961 42.4567C36.3925 42.9108 37.3296 43.6799 37.9889 44.6666C38.6482 45.6533 39 46.8133 39 48C39 49.5913 38.3679 51.1174 37.2426 52.2426C36.1174 53.3679 34.5913 54 33 54Z" fill="black"/>
<path d="M108 42V84C108.004 86.2459 107.167 88.412 105.655 90.0727C104.143 91.7334 102.065 92.7688 99.8286 92.9756C97.5922 93.1823 95.3594 92.5453 93.5686 91.1899C91.7778 89.8345 90.5585 87.8585 90.1502 85.65C90.0543 85.1051 90.0041 84.5532 90.0002 84V77.16C89.9967 75.2551 89.389 73.4004 88.2644 71.8629C87.1398 70.3253 85.5564 69.1843 83.7421 68.604C81.9277 68.0237 79.976 68.034 78.1679 68.6335C76.3598 69.233 74.7884 70.3907 73.6802 71.94L68.9402 78.57L61.5302 89.13C60.6953 90.2725 59.6028 91.202 58.3414 91.8431C57.08 92.4843 55.6852 92.819 54.2701 92.82C52.6187 92.8179 50.9996 92.3614 49.5902 91.5005C48.1809 90.6396 47.0356 89.4076 46.2797 87.9392C45.5238 86.4708 45.1866 84.8228 45.3048 83.1755C45.4231 81.5283 45.9924 79.9453 46.9502 78.6L76.9502 36.6C77.7813 35.4327 78.8791 34.4808 80.1523 33.8233C81.4255 33.1658 82.8372 32.8218 84.2702 32.82H99.2701C101.657 32.82 103.946 33.7682 105.634 35.456C107.322 37.1439 108.27 39.4331 108.27 41.82L108 42Z" fill="black"/>
<path d="M79.5 90C83.6421 90 87 86.6421 87 82.5C87 78.3579 83.6421 75 79.5 75C75.3579 75 72 78.3579 72 82.5C72 86.6421 75.3579 90 79.5 90Z" fill="black"/>
</g>
<defs>
<clipPath id="clip0_197_393">
<rect width="126" height="207" fill="white"/>
</clipPath>
</defs>
</svg>
