<svg width="420" height="420" viewBox="0 0 420 420" fill="none" xmlns="http://www.w3.org/2000/svg">
<g clip-path="url(#clip0_1264_625)">
<circle cx="210" cy="210" r="210" fill="url(#paint0_radial_1264_625)"/>
<path opacity="0.95" d="M360 140V280C360.011 287.486 357.223 294.706 352.183 300.242C347.143 305.778 340.216 309.229 332.761 309.918C325.306 310.608 317.864 308.485 311.894 303.966C305.925 299.448 301.861 292.862 300.5 285.5C300.18 283.684 300.013 281.844 300 280V257.2C299.946 250.867 297.89 244.714 294.126 239.621C290.362 234.528 285.083 230.757 279.045 228.848C273.006 226.939 266.519 226.99 260.511 228.993C254.503 230.996 249.284 234.849 245.6 240L230 261.9L204.9 297.1C200.112 303.187 193.157 307.187 185.488 308.263C177.819 309.34 170.032 307.409 163.754 302.875C157.476 298.341 153.195 291.555 151.805 283.937C150.416 276.319 152.026 268.458 156.3 262V262L256.3 122C259.063 118.314 262.639 115.315 266.749 113.234C270.859 111.153 275.393 110.046 280 110H330C337.956 110 345.587 113.161 351.213 118.787C356.839 124.413 360 132.044 360 140V140Z" fill="#FFFDFA"/>
<path opacity="0.95" d="M265 300C278.807 300 290 288.807 290 275C290 261.193 278.807 250 265 250C251.193 250 240 261.193 240 275C240 288.807 251.193 300 265 300Z" fill="#0D0A03"/>
<path opacity="0.95" d="M190 110H90C82.0435 110 74.4129 113.161 68.7868 118.787C63.1607 124.413 60 132.044 60 140V280C60.0114 286.35 62.0372 292.532 65.7859 297.657C69.5345 302.782 74.8126 306.586 80.8605 308.52C86.9084 310.454 93.414 310.42 99.4411 308.422C105.468 306.424 110.706 302.564 114.4 297.4V297.4L214.4 157.4C217.593 152.916 219.49 147.639 219.885 142.148C220.279 136.657 219.154 131.164 216.635 126.269C214.115 121.375 210.298 117.268 205.6 114.398C200.902 111.529 195.505 110.007 190 110ZM110 180C106.044 180 102.178 178.827 98.8886 176.629C95.5996 174.432 93.0362 171.308 91.5224 167.654C90.0087 163.999 89.6126 159.978 90.3843 156.098C91.156 152.219 93.0608 148.655 95.8579 145.858C98.6549 143.061 102.219 141.156 106.098 140.384C109.978 139.613 113.999 140.009 117.654 141.522C121.308 143.036 124.432 145.6 126.629 148.889C128.827 152.178 130 156.044 130 160C130 165.304 127.893 170.391 124.142 174.142C120.391 177.893 115.304 180 110 180Z" fill="#0D0A03"/>
</g>
<defs>
<radialGradient id="paint0_radial_1264_625" cx="0" cy="0" r="1" gradientUnits="userSpaceOnUse" gradientTransform="translate(210 210) scale(210 210)">
<stop offset="0.473958" stop-color="#FFC640"/>
<stop offset="1" stop-color="#F2AF13"/>
</radialGradient>
<clipPath id="clip0_1264_625">
<rect width="420" height="420" fill="white"/>
</clipPath>
</defs>
</svg>
