<?xml version="1.0" encoding="UTF-8"?><svg id="Layer_2" xmlns="http://www.w3.org/2000/svg" viewBox="0 0 5349.35 900"><defs><style>.cls-1{fill:#f9f7f4;}.cls-2{fill:#363535;}.cls-3{fill:#fbab30;}</style></defs><g id="Layer_1-2"><rect class="cls-3" x="0" width="1620.3" height="900" rx="60" ry="60"/><rect class="cls-2" x="273.4" y="180.3" width="180" height="180"/><path class="cls-2" d="M455.9,362.8h-185v-185h185v185ZM275.9,357.8h175v-175h-175v175Z"/><rect class="cls-1" x="453.4" y="180.3" width="180" height="180"/><path class="cls-2" d="M635.9,362.8h-185v-185h185v185ZM455.9,357.8h175v-175h-175v175h0Z"/><rect class="cls-1" x="633.4" y="180.3" width="180" height="180"/><path class="cls-2" d="M815.9,362.8h-185v-185h185v185ZM635.9,357.8h175v-175h-175v175Z"/><rect class="cls-1" x="273.4" y="360.3" width="180" height="180"/><path class="cls-2" d="M455.9,542.8h-185v-185h185v185ZM275.9,537.8h175v-175h-175v175Z"/><rect class="cls-1" x="453.4" y="360.3" width="180" height="180"/><path class="cls-2" d="M635.9,542.8h-185v-185h185v185ZM455.9,537.8h175v-175h-175v175h0Z"/><rect class="cls-1" x="633.4" y="360.3" width="180" height="180"/><path class="cls-2" d="M815.9,542.8h-185v-185h185v185ZM635.9,537.8h175v-175h-175v175Z"/><rect class="cls-1" x="273.4" y="540.3" width="180" height="180"/><path class="cls-2" d="M455.9,722.8h-185v-185h185v185ZM275.9,717.8h175v-175h-175v175Z"/><rect class="cls-1" x="453.4" y="540.3" width="180" height="180"/><path class="cls-2" d="M635.9,722.8h-185v-185h185v185ZM455.9,717.8h175v-175h-175v175h0Z"/><rect class="cls-1" x="633.4" y="540.3" width="180" height="180"/><path class="cls-2" d="M815.9,722.8h-185v-185h185v185ZM635.9,717.8h175v-175h-175v175Z"/><rect class="cls-2" x="813.05" y="180.3" width="180" height="180"/><path class="cls-1" d="M995.55,362.8h-185v-185h185v185ZM815.55,357.8h175v-175h-175v175Z"/><rect class="cls-2" x="993.05" y="180.3" width="180" height="180"/><path class="cls-1" d="M1175.55,362.8h-185v-185h185v185ZM995.55,357.8h175v-175h-175v175h0Z"/><rect class="cls-2" x="1173.05" y="180.3" width="180" height="180"/><path class="cls-1" d="M1355.55,362.8h-185v-185h185v185ZM1175.55,357.8h175v-175h-175v175h0Z"/><rect class="cls-2" x="813.05" y="360.3" width="180" height="180"/><path class="cls-1" d="M995.55,542.8h-185v-185h185v185ZM815.55,537.8h175v-175h-175v175Z"/><rect class="cls-2" x="993.05" y="360.3" width="180" height="180"/><path class="cls-1" d="M1175.55,542.8h-185v-185h185v185ZM995.55,537.8h175v-175h-175v175h0Z"/><rect class="cls-2" x="1173.05" y="360.3" width="180" height="180"/><path class="cls-1" d="M1355.55,542.8h-185v-185h185v185ZM1175.55,537.8h175v-175h-175v175h0Z"/><rect class="cls-2" x="813.05" y="540.3" width="180" height="180"/><path class="cls-1" d="M995.55,722.8h-185v-185h185v185ZM815.55,717.8h175v-175h-175v175Z"/><rect class="cls-1" x="993.05" y="540.3" width="180" height="180"/><path class="cls-1" d="M1175.55,722.8h-185v-185h185v185ZM995.55,717.8h175v-175h-175v175h0Z"/><rect class="cls-2" x="1173.05" y="540.3" width="180" height="180"/><path class="cls-1" d="M1355.55,722.8h-185v-185h185v185ZM1175.55,717.8h175v-175h-175v175h0Z"/><rect class="cls-2" x="810.5" y="717.8" width="5" height="5"/><rect class="cls-2" x="810.5" y="537.8" width="5" height="5"/><rect class="cls-2" x="810.5" y="357.8" width="5" height="5"/><rect class="cls-2" x="810.5" y="177.8" width="5" height="5"/><path class="cls-1" d="M1794.18,675.93V227.93h129.92l97.92,401.92h10.24l97.92-401.92h129.92v448h-67.2v-399.36h-10.24l-97.28,399.36h-116.48l-97.28-399.36h-10.24v399.36h-67.2Z"/><path class="cls-1" d="M2434.17,684.89c-22.62,0-42.78-3.84-60.48-11.52-17.71-7.68-31.79-18.98-42.24-33.92-10.46-14.93-15.68-33.06-15.68-54.4s5.22-39.78,15.68-54.08c10.45-14.29,24.74-25.06,42.88-32.32,18.13-7.25,38.72-10.88,61.76-10.88h96v-20.48c0-18.34-5.55-33.06-16.64-44.16-11.1-11.09-28.16-16.64-51.2-16.64s-39.9,5.34-51.84,16c-11.95,10.67-19.84,24.54-23.68,41.6l-61.44-19.84c5.12-17.06,13.33-32.53,24.64-46.4,11.3-13.86,26.34-25.06,45.12-33.6,18.77-8.53,41.38-12.8,67.84-12.8,40.96,0,73.17,10.46,96.64,31.36,23.46,20.91,35.2,50.56,35.2,88.96v129.92c0,12.8,5.97,19.2,17.92,19.2h26.88v55.04h-49.28c-14.94,0-27.1-3.84-36.48-11.52-9.39-7.68-14.08-18.13-14.08-31.36v-1.92h-9.6c-3.42,6.4-8.54,13.87-15.36,22.4-6.83,8.54-16.86,15.9-30.08,22.08-13.23,6.18-30.72,9.28-52.48,9.28ZM2443.77,630.49c26.45,0,47.78-7.57,64-22.72,16.21-15.14,24.32-35.94,24.32-62.4v-6.4h-92.16c-17.5,0-31.58,3.74-42.24,11.2-10.67,7.47-16,18.46-16,32.96s5.54,26.03,16.64,34.56c11.09,8.54,26.24,12.8,45.44,12.8Z"/><path class="cls-1" d="M2686.33,675.93v-315.52h64.64v47.36h10.24c5.97-12.8,16.64-24.74,32-35.84,15.36-11.09,38.18-16.64,68.48-16.64,23.89,0,45.12,5.34,63.68,16,18.56,10.67,33.17,25.71,43.84,45.12,10.66,19.42,16,42.78,16,70.08v189.44h-65.92v-184.32c0-27.3-6.83-47.46-20.48-60.48-13.66-13.01-32.43-19.52-56.32-19.52-27.31,0-49.18,8.96-65.6,26.88-16.43,17.92-24.64,43.95-24.64,78.08v159.36h-65.92Z"/><path class="cls-1" d="M3179.13,675.93c-19.2,0-34.46-5.76-45.76-17.28-11.31-11.52-16.96-26.88-16.96-46.08v-196.48h-87.04v-55.68h87.04v-104.32h65.92v104.32h94.08v55.68h-94.08v184.96c0,12.8,5.97,19.2,17.92,19.2h65.92v55.68h-87.04Z"/><path class="cls-1" d="M3334.64,675.93V227.93h65.92v448h-65.92Z"/><path class="cls-1" d="M3623.92,684.89c-32,0-59.95-6.72-83.84-20.16-23.9-13.44-42.56-32.42-56-56.96-13.44-24.53-20.16-53.01-20.16-85.44v-7.68c0-32.85,6.61-61.54,19.84-86.08,13.22-24.53,31.68-43.52,55.36-56.96,23.68-13.44,51.09-20.16,82.24-20.16s56.85,6.72,79.68,20.16c22.82,13.44,40.64,32.11,53.44,56,12.8,23.9,19.2,51.84,19.2,83.84v24.96h-242.56c.85,27.74,10.13,49.82,27.84,66.24,17.7,16.43,39.78,24.64,66.24,24.64,24.74,0,43.41-5.54,56-16.64,12.58-11.09,22.29-23.89,29.12-38.4l54.4,28.16c-5.98,11.95-14.62,24.54-25.92,37.76-11.31,13.23-26.14,24.32-44.48,33.28-18.35,8.96-41.82,13.44-70.4,13.44ZM3531.76,485.85h174.72c-1.71-23.89-10.24-42.56-25.6-56-15.36-13.44-35.42-20.16-60.16-20.16s-44.91,6.72-60.48,20.16c-15.58,13.44-25.07,32.11-28.48,56Z"/><path class="cls-1" d="M3831.92,675.93V227.93h177.92c27.3,0,51.73,5.44,73.28,16.32,21.54,10.88,38.4,26.24,50.56,46.08,12.16,19.84,18.24,43.63,18.24,71.36v8.32c0,27.74-6.3,51.63-18.88,71.68-12.59,20.06-29.55,35.42-50.88,46.08-21.34,10.67-45.44,16-72.32,16h-108.8v172.16h-69.12ZM3901.04,441.05h101.76c24.32,0,43.73-6.4,58.24-19.2,14.5-12.8,21.76-30.29,21.76-52.48v-6.4c0-22.61-7.26-40.32-21.76-53.12-14.51-12.8-33.92-19.2-58.24-19.2h-101.76v150.4Z"/><path class="cls-1" d="M4200.56,675.93V227.93h65.92v448h-65.92Z"/><path class="cls-1" d="M4443.11,684.89c-22.62,0-42.78-3.84-60.48-11.52-17.71-7.68-31.79-18.98-42.24-33.92-10.46-14.93-15.68-33.06-15.68-54.4s5.22-39.78,15.68-54.08c10.45-14.29,24.74-25.06,42.88-32.32,18.13-7.25,38.72-10.88,61.76-10.88h96v-20.48c0-18.34-5.55-33.06-16.64-44.16-11.1-11.09-28.16-16.64-51.2-16.64s-39.9,5.34-51.84,16c-11.95,10.67-19.84,24.54-23.68,41.6l-61.44-19.84c5.12-17.06,13.33-32.53,24.64-46.4,11.3-13.86,26.34-25.06,45.12-33.6,18.77-8.53,41.38-12.8,67.84-12.8,40.96,0,73.17,10.46,96.64,31.36,23.46,20.91,35.2,50.56,35.2,88.96v129.92c0,12.8,5.97,19.2,17.92,19.2h26.88v55.04h-49.28c-14.94,0-27.1-3.84-36.48-11.52-9.39-7.68-14.08-18.13-14.08-31.36v-1.92h-9.6c-3.42,6.4-8.54,13.87-15.36,22.4-6.83,8.54-16.86,15.9-30.08,22.08-13.23,6.18-30.72,9.28-52.48,9.28ZM4452.72,630.49c26.45,0,47.78-7.57,64-22.72,16.21-15.14,24.32-35.94,24.32-62.4v-6.4h-92.16c-17.5,0-31.58,3.74-42.24,11.2-10.67,7.47-16,18.46-16,32.96s5.54,26.03,16.64,34.56c11.09,8.54,26.24,12.8,45.44,12.8Z"/><path class="cls-1" d="M4841.83,684.89c-30.3,0-57.71-6.4-82.24-19.2-24.54-12.8-43.95-31.36-58.24-55.68-14.3-24.32-21.44-53.54-21.44-87.68v-8.32c0-34.13,7.14-63.25,21.44-87.36,14.29-24.1,33.7-42.66,58.24-55.68,24.53-13.01,51.94-19.52,82.24-19.52s56.1,5.55,77.44,16.64c21.33,11.1,38.5,25.82,51.52,44.16,13.01,18.35,21.44,38.62,25.28,60.8l-64,13.44c-2.14-14.08-6.62-26.88-13.44-38.4-6.83-11.52-16.43-20.69-28.8-27.52-12.38-6.82-27.95-10.24-46.72-10.24s-34.88,4.16-49.6,12.48c-14.72,8.32-26.35,20.27-34.88,35.84-8.54,15.58-12.8,34.46-12.8,56.64v5.76c0,22.19,4.26,41.18,12.8,56.96,8.53,15.79,20.16,27.74,34.88,35.84,14.72,8.11,31.25,12.16,49.6,12.16,27.73,0,48.85-7.14,63.36-21.44,14.5-14.29,23.68-32.53,27.52-54.72l64,14.72c-5.12,21.76-14.19,41.82-27.2,60.16-13.02,18.35-30.19,32.96-51.52,43.84-21.34,10.88-47.15,16.32-77.44,16.32Z"/><path class="cls-1" d="M5199.59,684.89c-32,0-59.95-6.72-83.84-20.16-23.9-13.44-42.56-32.42-56-56.96-13.44-24.53-20.16-53.01-20.16-85.44v-7.68c0-32.85,6.61-61.54,19.84-86.08,13.22-24.53,31.68-43.52,55.36-56.96,23.68-13.44,51.09-20.16,82.24-20.16s56.85,6.72,79.68,20.16c22.82,13.44,40.64,32.11,53.44,56,12.8,23.9,19.2,51.84,19.2,83.84v24.96h-242.56c.85,27.74,10.13,49.82,27.84,66.24,17.7,16.43,39.78,24.64,66.24,24.64,24.74,0,43.41-5.54,56-16.64,12.58-11.09,22.29-23.89,29.12-38.4l54.4,28.16c-5.98,11.95-14.62,24.54-25.92,37.76-11.31,13.23-26.14,24.32-44.48,33.28-18.35,8.96-41.82,13.44-70.4,13.44ZM5107.43,485.85h174.72c-1.71-23.89-10.24-42.56-25.6-56-15.36-13.44-35.42-20.16-60.16-20.16s-44.91,6.72-60.48,20.16c-15.58,13.44-25.07,32.11-28.48,56Z"/></g></svg>