<?xml version="1.0" encoding="UTF-8"?><svg id="Layer_2" xmlns="http://www.w3.org/2000/svg" viewBox="0 0 6205.01 900"><defs><style>.cls-1{fill:#f9f7f4;}.cls-2{fill:#363535;}.cls-3{fill:#fbab30;}</style></defs><g id="Layer_1-2"><rect class="cls-3" width="1620.3" height="900" rx="60" ry="60"/><rect class="cls-2" x="273.4" y="180.3" width="180" height="180"/><path class="cls-2" d="M455.9,362.8h-185v-185h185v185ZM275.9,357.8h175v-175h-175v175Z"/><rect class="cls-1" x="453.4" y="180.3" width="180" height="180"/><path class="cls-2" d="M635.9,362.8h-185v-185h185v185ZM455.9,357.8h175v-175h-175v175Z"/><rect class="cls-1" x="633.4" y="180.3" width="180" height="180"/><path class="cls-2" d="M815.9,362.8h-185v-185h185v185ZM635.9,357.8h175v-175h-175s0,175,0,175Z"/><rect class="cls-1" x="273.4" y="360.3" width="180" height="180"/><path class="cls-2" d="M455.9,542.8h-185v-185h185v185ZM275.9,537.8h175v-175h-175v175Z"/><rect class="cls-1" x="453.4" y="360.3" width="180" height="180"/><path class="cls-2" d="M635.9,542.8h-185v-185h185v185ZM455.9,537.8h175v-175h-175v175Z"/><rect class="cls-1" x="633.4" y="360.3" width="180" height="180"/><path class="cls-2" d="M815.9,542.8h-185v-185h185v185ZM635.9,537.8h175v-175h-175s0,175,0,175Z"/><rect class="cls-1" x="273.4" y="540.3" width="180" height="180"/><path class="cls-2" d="M455.9,722.8h-185v-185h185v185ZM275.9,717.8h175v-175h-175v175Z"/><rect class="cls-1" x="453.4" y="540.3" width="180" height="180"/><path class="cls-2" d="M635.9,722.8h-185v-185h185v185ZM455.9,717.8h175v-175h-175v175Z"/><rect class="cls-1" x="633.4" y="540.3" width="180" height="180"/><path class="cls-2" d="M815.9,722.8h-185v-185h185v185ZM635.9,717.8h175v-175h-175s0,175,0,175Z"/><rect class="cls-2" x="813.05" y="180.3" width="180" height="180"/><path class="cls-1" d="M995.55,362.8h-185v-185h185v185ZM815.55,357.8h175v-175h-175v175Z"/><rect class="cls-2" x="993.05" y="180.3" width="180" height="180"/><path class="cls-1" d="M1175.55,362.8h-185v-185h185v185ZM995.55,357.8h175v-175h-175v175Z"/><rect class="cls-2" x="1173.05" y="180.3" width="180" height="180"/><path class="cls-1" d="M1355.55,362.8h-185v-185h185v185ZM1175.55,357.8h175v-175h-175v175h0Z"/><rect class="cls-2" x="813.05" y="360.3" width="180" height="180"/><path class="cls-1" d="M995.55,542.8h-185v-185h185v185ZM815.55,537.8h175v-175h-175v175Z"/><rect class="cls-2" x="993.05" y="360.3" width="180" height="180"/><path class="cls-1" d="M1175.55,542.8h-185v-185h185v185ZM995.55,537.8h175v-175h-175v175Z"/><rect class="cls-2" x="1173.05" y="360.3" width="180" height="180"/><path class="cls-1" d="M1355.55,542.8h-185v-185h185v185ZM1175.55,537.8h175v-175h-175v175h0Z"/><rect class="cls-2" x="813.05" y="540.3" width="180" height="180"/><path class="cls-1" d="M995.55,722.8h-185v-185h185v185ZM815.55,717.8h175v-175h-175v175Z"/><rect class="cls-1" x="993.05" y="540.3" width="180" height="180"/><path class="cls-1" d="M1175.55,722.8h-185v-185h185v185ZM995.55,717.8h175v-175h-175v175Z"/><rect class="cls-2" x="1173.05" y="540.3" width="180" height="180"/><path class="cls-1" d="M1355.55,722.8h-185v-185h185v185ZM1175.55,717.8h175v-175h-175v175h0Z"/><rect class="cls-2" x="810.5" y="717.8" width="5" height="5"/><rect class="cls-2" x="810.5" y="537.8" width="5" height="5"/><rect class="cls-2" x="810.5" y="357.8" width="5" height="5"/><rect class="cls-2" x="810.5" y="177.8" width="5" height="5"/><path class="cls-2" d="M1794.18,676.41V228.41h129.92l97.92,401.92h10.24l97.92-401.92h129.92v448h-67.2v-399.36h-10.24l-97.28,399.36h-116.48l-97.28-399.36h-10.24v399.36h-67.2Z"/><path class="cls-2" d="M2434.18,685.37c-22.62,0-42.78-3.84-60.48-11.52-17.71-7.68-31.79-18.98-42.24-33.92-10.46-14.93-15.68-33.06-15.68-54.4s5.22-39.78,15.68-54.08c10.45-14.29,24.74-25.06,42.88-32.32,18.13-7.25,38.72-10.88,61.76-10.88h96v-20.48c0-18.34-5.55-33.06-16.64-44.16-11.1-11.09-28.16-16.64-51.2-16.64s-39.9,5.34-51.84,16c-11.95,10.67-19.84,24.54-23.68,41.6l-61.44-19.84c5.12-17.06,13.33-32.53,24.64-46.4,11.3-13.86,26.34-25.06,45.12-33.6,18.77-8.53,41.38-12.8,67.84-12.8,40.96,0,73.17,10.46,96.64,31.36,23.46,20.91,35.2,50.56,35.2,88.96v129.92c0,12.8,5.97,19.2,17.92,19.2h26.88v55.04h-49.28c-14.94,0-27.1-3.84-36.48-11.52-9.39-7.68-14.08-18.13-14.08-31.36v-1.92h-9.6c-3.42,6.4-8.54,13.87-15.36,22.4-6.83,8.54-16.86,15.9-30.08,22.08-13.23,6.18-30.72,9.28-52.48,9.28ZM2443.78,630.96c26.45,0,47.78-7.57,64-22.72,16.21-15.14,24.32-35.94,24.32-62.4v-6.4h-92.16c-17.5,0-31.58,3.74-42.24,11.2-10.67,7.47-16,18.46-16,32.96s5.54,26.03,16.64,34.56c11.09,8.54,26.24,12.8,45.44,12.8Z"/><path class="cls-2" d="M2686.34,676.41v-315.52h64.64v47.36h10.24c5.97-12.8,16.64-24.74,32-35.84,15.36-11.09,38.18-16.64,68.48-16.64,23.89,0,45.12,5.34,63.68,16,18.56,10.67,33.17,25.71,43.84,45.12,10.66,19.42,16,42.78,16,70.08v189.44h-65.92v-184.32c0-27.3-6.83-47.46-20.48-60.48-13.66-13.01-32.43-19.52-56.32-19.52-27.31,0-49.18,8.96-65.6,26.88-16.43,17.92-24.64,43.95-24.64,78.08v159.36h-65.92Z"/><path class="cls-2" d="M3179.13,676.41c-19.2,0-34.46-5.76-45.76-17.28-11.31-11.52-16.96-26.88-16.96-46.08v-196.48h-87.04v-55.68h87.04v-104.32h65.92v104.32h94.08v55.68h-94.08v184.96c0,12.8,5.97,19.2,17.92,19.2h65.92v55.68h-87.04Z"/><path class="cls-2" d="M3334.65,676.41V228.41h65.92v448h-65.92Z"/><path class="cls-2" d="M3623.92,685.37c-32,0-59.95-6.72-83.84-20.16-23.9-13.44-42.56-32.42-56-56.96-13.44-24.53-20.16-53.01-20.16-85.44v-7.68c0-32.85,6.61-61.54,19.84-86.08,13.22-24.53,31.68-43.52,55.36-56.96,23.68-13.44,51.09-20.16,82.24-20.16s56.85,6.72,79.68,20.16c22.82,13.44,40.64,32.11,53.44,56,12.8,23.9,19.2,51.84,19.2,83.84v24.96h-242.56c.85,27.74,10.13,49.82,27.84,66.24,17.7,16.43,39.78,24.64,66.24,24.64,24.74,0,43.41-5.54,56-16.64,12.58-11.09,22.29-23.89,29.12-38.4l54.4,28.16c-5.98,11.95-14.62,24.54-25.92,37.76-11.31,13.23-26.14,24.32-44.48,33.28-18.35,8.96-41.82,13.44-70.4,13.44ZM3531.76,486.33h174.72c-1.71-23.89-10.24-42.56-25.6-56-15.36-13.44-35.42-20.16-60.16-20.16s-44.91,6.72-60.48,20.16c-15.58,13.44-25.07,32.11-28.48,56Z"/><path class="cls-2" d="M3831.92,676.41V228.41h282.24v62.72h-213.12v128.64h195.2v62.72h-195.2v131.2h216.32v62.72h-285.44Z"/><path class="cls-2" d="M4145.52,676.41l120.32-159.36-117.76-156.16h77.44l82.56,113.28h10.24l82.56-113.28h78.08l-118.4,156.16,120.32,159.36h-78.72l-83.84-115.84h-10.24l-83.84,115.84h-78.72Z"/><path class="cls-2" d="M4532.71,804.41v-443.52h64.64v45.44h10.24c8.1-14.08,20.37-26.66,36.8-37.76,16.42-11.09,40-16.64,70.72-16.64,26.45,0,50.66,6.4,72.64,19.2,21.97,12.8,39.68,31.26,53.12,55.36,13.44,24.11,20.16,53.23,20.16,87.36v9.6c0,34.14-6.62,63.26-19.84,87.36-13.23,24.11-30.94,42.56-53.12,55.36-22.19,12.8-46.51,19.2-72.96,19.2-20.48,0-37.76-2.56-51.84-7.68s-25.39-11.62-33.92-19.52c-8.54-7.89-15.36-16.1-20.48-24.64h-10.24v170.88h-65.92ZM4695.91,627.77c29.01,0,52.69-9.17,71.04-27.52,18.34-18.34,27.52-44.58,27.52-78.72v-5.76c0-33.7-9.28-59.73-27.84-78.08-18.56-18.34-42.14-27.52-70.72-27.52s-51.52,9.18-70.08,27.52c-18.56,18.35-27.84,44.38-27.84,78.08v5.76c0,34.14,9.28,60.38,27.84,78.72,18.56,18.35,41.92,27.52,70.08,27.52Z"/><path class="cls-2" d="M4923.74,676.41V228.41h65.92v448h-65.92Z"/><path class="cls-2" d="M5216.22,685.37c-31.58,0-59.63-6.51-84.16-19.52-24.54-13.01-43.84-31.68-57.92-56-14.08-24.32-21.12-53.12-21.12-86.4v-9.6c0-33.28,7.04-61.97,21.12-86.08,14.08-24.1,33.38-42.77,57.92-56,24.53-13.22,52.58-19.84,84.16-19.84s59.73,6.62,84.48,19.84c24.74,13.23,44.16,31.9,58.24,56,14.08,24.11,21.12,52.8,21.12,86.08v9.6c0,33.28-7.04,62.08-21.12,86.4-14.08,24.32-33.5,42.99-58.24,56-24.75,13.01-52.91,19.52-84.48,19.52ZM5216.22,626.49c29.01,0,52.58-9.28,70.72-27.84,18.13-18.56,27.2-44.26,27.2-77.12v-5.76c0-32.85-8.96-58.56-26.88-77.12-17.92-18.56-41.6-27.84-71.04-27.84s-51.95,9.28-70.08,27.84c-18.14,18.56-27.2,44.27-27.2,77.12v5.76c0,32.86,9.06,58.56,27.2,77.12,18.13,18.56,41.49,27.84,70.08,27.84Z"/><path class="cls-2" d="M5442.78,676.41v-315.52h64.64v37.12h10.24c5.12-13.22,13.33-22.93,24.64-29.12,11.3-6.18,25.28-9.28,41.92-9.28h37.76v59.52h-40.32c-21.34,0-38.83,5.87-52.48,17.6-13.66,11.74-20.48,29.76-20.48,54.08v185.6h-65.92Z"/><path class="cls-2" d="M5815.89,685.37c-32,0-59.95-6.72-83.84-20.16-23.9-13.44-42.56-32.42-56-56.96-13.44-24.53-20.16-53.01-20.16-85.44v-7.68c0-32.85,6.61-61.54,19.84-86.08,13.22-24.53,31.68-43.52,55.36-56.96,23.68-13.44,51.09-20.16,82.24-20.16s56.85,6.72,79.68,20.16c22.82,13.44,40.64,32.11,53.44,56,12.8,23.9,19.2,51.84,19.2,83.84v24.96h-242.56c.85,27.74,10.13,49.82,27.84,66.24,17.7,16.43,39.78,24.64,66.24,24.64,24.74,0,43.41-5.54,56-16.64,12.58-11.09,22.29-23.89,29.12-38.4l54.4,28.16c-5.98,11.95-14.62,24.54-25.92,37.76-11.31,13.23-26.14,24.32-44.48,33.28-18.35,8.96-41.82,13.44-70.4,13.44ZM5723.73,486.33h174.72c-1.71-23.89-10.24-42.56-25.6-56-15.36-13.44-35.42-20.16-60.16-20.16s-44.91,6.72-60.48,20.16c-15.58,13.44-25.07,32.11-28.48,56Z"/><path class="cls-2" d="M6025.81,676.41v-315.52h64.64v37.12h10.24c5.12-13.22,13.33-22.93,24.64-29.12,11.3-6.18,25.28-9.28,41.92-9.28h37.76v59.52h-40.32c-21.34,0-38.83,5.87-52.48,17.6-13.66,11.74-20.48,29.76-20.48,54.08v185.6h-65.92Z"/></g></svg>