<svg width="126" height="207" viewBox="0 0 126 207" fill="none" xmlns="http://www.w3.org/2000/svg">
<g clip-path="url(#clip0_180_607)">
<path d="M0 180H8.10004L14.94 196.71H15.27L22.11 180H30.21V207H23.85V190.41H23.61L17.1301 206.82H13.08L6.60004 190.32H6.35999V207H0V180Z" fill="#FFFDFA"/>
<path d="M73.2002 190.11C73.8275 191.343 74.127 192.717 74.0701 194.1V207H67.5302V195.36C67.6037 194.404 67.3024 193.457 66.6902 192.72C66.3842 192.397 66.0101 192.145 65.595 191.985C65.1799 191.824 64.7342 191.757 64.2902 191.79C63.6747 191.783 63.0667 191.927 62.5201 192.21C62.0044 192.502 61.5869 192.941 61.3201 193.47C61.0275 194.088 60.8837 194.766 60.9002 195.45V207H54.4502V186.75H60.4502V190.47H60.6902C61.0838 189.238 61.8887 188.179 62.9702 187.47C64.1222 186.729 65.4709 186.353 66.8401 186.39C68.1355 186.36 69.4135 186.693 70.5302 187.35C71.6882 187.966 72.6225 188.932 73.2002 190.11Z" fill="#FFFDFA"/>
<path d="M98.1902 180H91.7402V207H98.1902V180Z" fill="#FFFDFA"/>
<path d="M17.7902 144H9.12012L0.120117 171H7.14011L8.9101 165.33H18.2401L20.0402 171H27.0301L17.7902 144ZM10.3501 160.35L13.3501 150.78H13.5301L16.5301 160.35H10.3501Z" fill="#FFFDFA"/>
<path d="M46.1394 156.93L40.1394 157.08C40.0868 156.672 39.9204 156.288 39.6594 155.97C39.372 155.622 39.0002 155.353 38.5794 155.19C38.1092 154.976 37.5959 154.873 37.0794 154.89C36.4113 154.872 35.7498 155.027 35.1594 155.34C34.9287 155.45 34.735 155.625 34.6018 155.844C34.4687 156.062 34.4018 156.314 34.4094 156.57C34.4023 156.766 34.4422 156.961 34.5257 157.138C34.6092 157.316 34.7339 157.471 34.8894 157.59C35.4123 157.965 36.0209 158.202 36.6594 158.28L40.5594 159.03C42.208 159.242 43.7655 159.907 45.0594 160.95C45.5545 161.4 45.9452 161.952 46.2043 162.569C46.4634 163.186 46.5846 163.852 46.5594 164.52C46.5787 165.826 46.144 167.099 45.3294 168.12C44.4567 169.206 43.3059 170.036 41.9994 170.52C40.4611 171.121 38.8206 171.416 37.1694 171.39C34.7663 171.524 32.3824 170.894 30.3594 169.59C29.5361 169.061 28.8401 168.356 28.3214 167.526C27.8027 166.696 27.4742 165.762 27.3594 164.79L33.7494 164.64C33.8001 164.981 33.9226 165.306 34.1088 165.596C34.295 165.886 34.5407 166.132 34.8294 166.32C35.5045 166.736 36.2869 166.945 37.0794 166.92C37.7895 166.939 38.4923 166.774 39.1194 166.44C39.3491 166.325 39.5431 166.15 39.6805 165.934C39.818 165.717 39.8937 165.467 39.8994 165.21C39.9006 164.994 39.846 164.781 39.7409 164.591C39.6358 164.402 39.4837 164.243 39.2994 164.13C38.7372 163.772 38.1013 163.547 37.4394 163.47L33.8994 162.78C32.2162 162.58 30.635 161.868 29.3694 160.74C28.8736 160.242 28.487 159.645 28.2339 158.99C27.9808 158.334 27.8669 157.632 27.8994 156.93C27.8377 155.679 28.2202 154.446 28.9794 153.45C29.7554 152.447 30.7937 151.679 31.9794 151.23C33.5114 150.695 35.1272 150.441 36.7494 150.48C39.0352 150.357 41.302 150.955 43.2294 152.19C44.0449 152.705 44.7314 153.4 45.2359 154.222C45.7404 155.043 46.0495 155.97 46.1394 156.93Z" fill="#FFFDFA"/>
<path d="M66.7205 156.93L60.7205 157.08C60.6577 156.67 60.481 156.285 60.2105 155.97C59.9281 155.63 59.5679 155.362 59.1605 155.19C58.6892 154.979 58.1766 154.877 57.6605 154.89C56.9924 154.872 56.3309 155.027 55.7405 155.34C55.5109 155.455 55.3169 155.63 55.1794 155.847C55.042 156.063 54.9663 156.313 54.9605 156.57C54.9659 156.767 55.0144 156.96 55.1025 157.137C55.1906 157.313 55.3163 157.468 55.4705 157.59C55.9902 157.971 56.6004 158.208 57.2405 158.28L61.1405 159.03C62.7858 159.254 64.3403 159.917 65.6405 160.95C66.1355 161.4 66.5264 161.952 66.7855 162.569C67.0446 163.186 67.1657 163.852 67.1405 164.52C67.1598 165.826 66.725 167.099 65.9105 168.12C65.0378 169.206 63.887 170.036 62.5805 170.52C61.0423 171.121 59.4017 171.416 57.7505 171.39C55.3384 171.52 52.9462 170.891 50.9105 169.59C50.1178 169.042 49.4529 168.33 48.961 167.501C48.4691 166.673 48.1619 165.748 48.0605 164.79L54.4205 164.64C54.4766 164.983 54.6044 165.309 54.7957 165.599C54.987 165.888 55.2375 166.134 55.5305 166.32C56.2056 166.736 56.988 166.945 57.7805 166.92C58.4815 166.944 59.1759 166.778 59.7906 166.44C60.0238 166.327 60.2221 166.153 60.3647 165.936C60.5072 165.72 60.5887 165.469 60.6005 165.21C60.5957 164.991 60.5353 164.778 60.4251 164.589C60.3149 164.4 60.1585 164.242 59.9705 164.13C59.4108 163.767 58.7736 163.541 58.1105 163.47L54.6005 162.78C52.9173 162.58 51.3361 161.868 50.0705 160.74C49.5708 160.243 49.1795 159.648 48.9213 158.992C48.6632 158.336 48.5437 157.634 48.5705 156.93C48.5355 155.682 48.9154 154.459 49.6505 153.45C50.4298 152.451 51.4671 151.683 52.6505 151.23C54.1825 150.695 55.7984 150.441 57.4205 150.48C59.7064 150.357 61.9732 150.955 63.9005 152.19C64.7055 152.708 65.3793 153.405 65.8687 154.228C66.358 155.051 66.6497 155.976 66.7205 156.93Z" fill="#FFFDFA"/>
<path d="M88.7402 162.42V160.83C88.7726 159.316 88.5182 157.809 87.9902 156.39C87.578 155.194 86.9074 154.103 86.0259 153.196C85.1444 152.289 84.0738 151.587 82.8902 151.14C81.6166 150.699 80.2779 150.476 78.9302 150.48C77.0725 150.424 75.2352 150.88 73.6202 151.8C72.1236 152.658 70.9052 153.929 70.1102 155.46C69.262 157.164 68.84 159.047 68.8802 160.95C68.835 162.882 69.2569 164.796 70.1102 166.53C70.9225 168.043 72.1509 169.292 73.6502 170.13C75.3344 171.005 77.2129 171.439 79.1102 171.39C80.7075 171.421 82.2961 171.146 83.7903 170.58C85.0469 170.092 86.1682 169.311 87.0602 168.3C87.8799 167.296 88.4274 166.097 88.6502 164.82L82.6502 164.64C82.4911 165.073 82.2345 165.463 81.9002 165.78C81.5581 166.105 81.1483 166.351 80.7003 166.5C80.1945 166.651 79.668 166.722 79.1402 166.71C78.3985 166.723 77.6656 166.548 77.0102 166.2C76.4151 165.871 75.9339 165.369 75.6302 164.76C75.293 164.091 75.128 163.349 75.1502 162.6V162.42H88.7402ZM75.7502 156.93C76.0853 156.376 76.5615 155.92 77.1302 155.61C77.7207 155.294 78.3804 155.129 79.0502 155.13C79.7084 155.116 80.3592 155.27 80.9402 155.58C81.4828 155.877 81.9379 156.312 82.2602 156.84C82.5593 157.405 82.7236 158.031 82.7402 158.67H75.2402C75.2535 158.055 75.4294 157.455 75.7502 156.93Z" fill="#FFFDFA"/>
<path d="M103.081 170.7L101.791 171.03C101.139 171.167 100.476 171.247 99.8107 171.27C98.4865 171.389 97.1526 171.205 95.9106 170.73C94.8954 170.358 94.0309 169.662 93.4507 168.75C92.8454 167.716 92.5632 166.525 92.6407 165.33V155.49H89.9707V150.75H92.6407V145.89H99.0607V150.75H102.721V155.49H99.0607V164.49C99.0601 164.821 99.1317 165.149 99.2706 165.45C99.3867 165.677 99.5775 165.857 99.8107 165.96C100.109 166.008 100.413 166.008 100.711 165.96H101.491H102.121L103.081 170.7Z" fill="#FFFDFA"/>
<path d="M89.1302 206.7L87.8402 207.03C87.1891 207.176 86.5267 207.267 85.8602 207.3C84.5369 207.39 83.2093 207.206 81.9602 206.76C80.9449 206.388 80.0803 205.692 79.5002 204.78C78.9033 203.743 78.6218 202.554 78.6902 201.36V191.49H75.9902V186.75H78.6902V181.89H85.1102V186.75H88.7702V191.49H85.1102V200.49C85.1055 200.822 85.1774 201.15 85.3202 201.45C85.4363 201.677 85.6269 201.857 85.8602 201.96C86.1581 202.01 86.4623 202.01 86.7602 201.96H87.5403L88.1702 201.81L89.1302 206.7Z" fill="#FFFDFA"/>
<path d="M48.8107 188.25C47.9481 187.648 46.9819 187.211 45.9606 186.96C44.8008 186.625 43.5978 186.463 42.3906 186.48C40.8003 186.449 39.2197 186.735 37.7407 187.32C36.5532 187.81 35.5177 188.607 34.7407 189.63C33.9895 190.581 33.5216 191.725 33.3906 192.93L39.3906 193.14C39.4397 192.834 39.55 192.54 39.7149 192.277C39.8798 192.014 40.0961 191.787 40.3506 191.61C40.9681 191.217 41.6892 191.019 42.4206 191.04C43.0969 191.011 43.763 191.212 44.3107 191.61C44.5457 191.793 44.7318 192.031 44.8522 192.303C44.9726 192.575 45.0236 192.873 45.0006 193.17C45.0143 193.358 44.977 193.547 44.8926 193.716C44.8081 193.885 44.6796 194.028 44.5206 194.13C44.0517 194.405 43.5306 194.578 42.9907 194.64C42.2907 194.76 41.3607 194.88 40.2007 195C39.1866 195.054 38.181 195.215 37.2007 195.48C36.3471 195.721 35.537 196.096 34.8006 196.59C34.1001 197.071 33.5326 197.721 33.1507 198.48C32.7297 199.37 32.5242 200.346 32.5506 201.33C32.5092 202.501 32.8117 203.659 33.4207 204.66C34.0049 205.533 34.8275 206.22 35.7907 206.64C36.8767 207.078 38.0398 207.292 39.2106 207.27C40.0717 207.277 40.9298 207.166 41.7606 206.94C42.479 206.72 43.1433 206.352 43.7106 205.86C44.2814 205.377 44.7505 204.786 45.0906 204.12H45.2706V207H51.2706V193.23C51.2821 192.255 51.0559 191.292 50.6116 190.425C50.1673 189.557 49.5183 188.81 48.7207 188.25H48.8107ZM44.9707 199.8C44.9842 200.419 44.806 201.026 44.4606 201.54C44.1222 202.043 43.6563 202.447 43.1106 202.71C42.5317 202.993 41.8948 203.137 41.2506 203.13C40.5981 203.154 39.9556 202.964 39.4206 202.59C39.1825 202.415 38.9919 202.184 38.8661 201.917C38.7404 201.649 38.6835 201.355 38.7007 201.06C38.6988 200.656 38.8133 200.26 39.0306 199.92C39.289 199.592 39.6169 199.326 39.9907 199.14C40.491 198.929 41.0147 198.778 41.5506 198.69H42.5106L43.4406 198.48L44.2806 198.27L44.9707 198V199.8Z" fill="#FFFDFA"/>
<path d="M120.6 198.42V196.83C120.625 195.319 120.381 193.816 119.88 192.39C119.449 191.179 118.763 190.074 117.87 189.15C117.019 188.288 115.997 187.613 114.87 187.17C113.612 186.706 112.281 186.472 110.94 186.48C109.074 186.439 107.231 186.895 105.6 187.8C104.114 188.663 102.907 189.933 102.12 191.46C101.247 193.156 100.814 195.043 100.86 196.95C100.808 198.886 101.241 200.804 102.12 202.53C102.901 204.066 104.137 205.323 105.66 206.13C107.342 207.009 109.222 207.443 111.12 207.39C112.717 207.421 114.306 207.146 115.8 206.58C117.056 206.092 118.178 205.311 119.07 204.3C119.894 203.299 120.442 202.099 120.66 200.82L114.66 200.67C114.493 201.099 114.237 201.487 113.91 201.81C113.561 202.12 113.153 202.355 112.71 202.5C112.205 202.66 111.679 202.741 111.15 202.74C110.404 202.758 109.667 202.571 109.02 202.2C108.418 201.879 107.935 201.374 107.64 200.76C107.288 200.095 107.113 199.352 107.13 198.6V198.42H120.6ZM107.64 192.93C107.963 192.377 108.429 191.921 108.99 191.61C109.591 191.294 110.26 191.129 110.94 191.13C111.598 191.116 112.249 191.271 112.83 191.58C113.365 191.89 113.81 192.335 114.12 192.87C114.445 193.415 114.621 194.036 114.63 194.67H107.13C107.143 194.055 107.319 193.455 107.64 192.93Z" fill="#FFFDFA"/>
<path d="M108 0H18C8.05887 0 0 8.05887 0 18V108C0 117.941 8.05887 126 18 126H108C117.941 126 126 117.941 126 108V18C126 8.05887 117.941 0 108 0Z" fill="#7F7F7F"/>
<path d="M57 33H27C24.6131 33 22.3239 33.9482 20.6361 35.636C18.9483 37.3239 18 39.6131 18 42V84C18.0034 85.9049 18.6112 87.7596 19.7357 89.2971C20.8603 90.8346 22.4438 91.9757 24.2582 92.556C26.0725 93.1363 28.0242 93.126 29.8324 92.5265C31.6405 91.927 33.2117 90.7693 34.32 89.22L64.32 47.22C65.4242 45.7046 66.0131 43.875 66 42C66 39.6131 65.0518 37.3239 63.364 35.636C61.6762 33.9482 59.3869 33 57 33ZM33 54C31.8133 54 30.6533 53.6481 29.6666 52.9888C28.6799 52.3295 27.9109 51.3925 27.4568 50.2961C27.0026 49.1997 26.8838 47.9933 27.1154 46.8295C27.3469 45.6656 27.9182 44.5965 28.7574 43.7574C29.5965 42.9182 30.6656 42.3468 31.8295 42.1153C32.9934 41.8838 34.1998 42.0026 35.2961 42.4567C36.3925 42.9108 37.3296 43.6799 37.9889 44.6666C38.6482 45.6533 39 46.8133 39 48C39 49.5913 38.3679 51.1174 37.2426 52.2426C36.1174 53.3679 34.5913 54 33 54Z" fill="#060606"/>
<path d="M108 42V84C108.003 86.2459 107.167 88.412 105.655 90.0727C104.143 91.7334 102.064 92.7688 99.8281 92.9756C97.5918 93.1823 95.3589 92.5453 93.5681 91.1899C91.7773 89.8345 90.558 87.8585 90.1497 85.65C90.0538 85.1051 90.0036 84.5532 89.9997 84V77.16C89.9962 75.2551 89.3885 73.4004 88.2639 71.8629C87.1393 70.3253 85.5559 69.1843 83.7416 68.604C81.9272 68.0237 79.9755 68.034 78.1674 68.6335C76.3593 69.233 74.7879 70.3907 73.6797 71.94L68.9397 78.57L61.5297 89.13C60.6948 90.2725 59.6023 91.202 58.3409 91.8431C57.0795 92.4843 55.6847 92.819 54.2697 92.82C52.6182 92.8179 50.9991 92.3614 49.5898 91.5005C48.1804 90.6396 47.0351 89.4076 46.2792 87.9392C45.5233 86.4708 45.1861 84.8228 45.3044 83.1755C45.4226 81.5283 45.9919 79.9453 46.9497 78.6L76.9497 36.6C77.7808 35.4327 78.8786 34.4808 80.1518 33.8233C81.425 33.1658 82.8367 32.8218 84.2697 32.82H99.2697C101.657 32.82 103.946 33.7682 105.634 35.456C107.321 37.1439 108.27 39.4331 108.27 41.82L108 42Z" fill="white"/>
<path d="M79.5 90C83.6421 90 87 86.6421 87 82.5C87 78.3579 83.6421 75 79.5 75C75.3579 75 72 78.3579 72 82.5C72 86.6421 75.3579 90 79.5 90Z" fill="#060606"/>
</g>
<defs>
<clipPath id="clip0_180_607">
<rect width="126" height="207" fill="white"/>
</clipPath>
</defs>
</svg>
